<svg xmlns="http://www.w3.org/2000/svg" xmlns:xlink="http://www.w3.org/1999/xlink" viewBox="408 250 108 108" width="100%" height="100%">
<defs>
<clipPath id="clip0_642_1000">
<rect width="784" height="1774" rx="32" fill="white"/>
</clipPath>
<clipPath id="clip1_642_1000">
<rect x="408" y="250" width="108" height="108" rx="8" fill="white"/>
</clipPath>
<clipPath id="clip2_642_1000">

</clipPath>
<clipPath id="clip3_642_1000">

</clipPath>
<clipPath id="clip4_642_1000">
<rect width="80" height="18.784" fill="white" transform="translate(422 703)"/>
</clipPath>
<clipPath id="clip5_642_1000">

</clipPath>
<clipPath id="clip6_642_1000">

</clipPath>
<clipPath id="clip7_642_1000">

</clipPath>
<clipPath id="clip8_642_1000">

</clipPath>
<clipPath id="clip9_642_1000">

</clipPath>
<clipPath id="clip10_642_1000">

</clipPath>
<clipPath id="clip11_642_1000">

</clipPath>
<clipPath id="clip12_642_1000">
<rect x="408" y="250" width="108" height="108" rx="8" fill="white"/>
</clipPath>
<clipPath id="clip13_642_1000">

</clipPath>
<clipPath id="clip14_642_1000">

</clipPath>
</defs>
<g clip-path="url(#clip12_642_1000)">

<path d="M433.33 293C427.081 293 422.017 298.064 422.017 304.312C422.017 310.56 427.081 315.624 433.33 315.624C439.577 315.624 444.642 310.56 444.642 304.312C444.642 298.064 439.577 293 433.33 293ZM424.449 304.312C424.449 299.861 427.724 296.179 431.995 295.536V299.69L430.145 299.697C428.755 299.697 427.911 300.718 427.911 302.107V306.462C427.911 307.852 429.051 308.924 430.44 308.924L431.988 308.925L431.995 313.096C427.724 312.451 424.449 308.762 424.449 304.312ZM430.599 306.489C430.599 306.489 430.475 306.476 430.413 306.369C430.353 306.264 430.369 306.208 430.369 306.208V302.43C430.369 302.43 430.363 302.297 430.437 302.215C430.505 302.138 430.633 302.135 430.633 302.135H435.973C435.973 302.135 436.058 302.123 436.157 302.177C436.241 302.222 436.289 302.4 436.289 302.4V306.277C436.289 306.277 436.241 306.384 436.196 306.422C436.153 306.459 436.065 306.488 436.065 306.488L434.652 306.491L430.599 306.489ZM434.629 313.103L434.621 308.896H436.287C437.678 308.896 438.699 307.852 438.699 306.462V302.107C438.699 300.718 437.591 299.703 436.201 299.703L434.621 299.705L434.62 295.525C438.913 296.15 442.209 299.846 442.209 304.312C442.209 308.776 438.92 312.477 434.629 313.103Z" fill="#B30738"/>
<path d="M497.599 314.65L497.649 314.535C497.682 314.501 497.881 314.449 497.963 314.348C498.04 314.247 499.697 310.497 499.697 310.497L499.798 310.471L501.32 313.965C501.422 314.196 501.49 314.351 501.549 314.407C501.61 314.461 501.762 314.526 501.865 314.535C501.925 314.54 501.89 314.629 501.89 314.629L500.218 314.626C500.218 314.626 500.107 314.542 500.218 314.499C500.286 314.472 500.555 314.391 500.598 314.22C500.617 314.144 500.581 313.966 500.504 313.762C500.451 313.618 500.299 313.302 500.215 313.242C500.139 313.189 499.824 313.218 499.535 313.209C499.271 313.201 498.923 313.192 498.812 313.251C498.674 313.325 498.522 313.901 498.49 313.991C498.459 314.078 498.49 314.28 498.566 314.34C498.694 314.44 498.949 314.518 499.041 314.544L499.067 314.646L497.599 314.65ZM500.13 312.936C500.172 312.881 500.015 312.569 499.866 312.239C499.756 311.993 499.569 311.516 499.509 311.534C499.467 311.546 499.314 311.925 499.195 312.197C499.067 312.49 498.912 312.858 498.973 312.919C499.01 312.956 499.297 312.979 499.535 312.97C499.808 312.961 500.091 312.988 500.13 312.936ZM453.595 313.759C453.684 313.323 453.586 313.036 453.332 312.823C453.211 312.722 452.888 312.569 452.626 312.569C452.264 312.569 452.026 312.534 452.026 312.937L452.03 313.92C452.03 314.472 452.719 314.413 452.719 314.413C453.281 314.413 453.527 314.09 453.595 313.759ZM464.468 314.49C464.475 314.497 464.681 314.438 464.775 314.294C464.825 314.217 464.886 314.113 464.886 313.852V311.251C464.886 311.089 464.836 310.933 464.767 310.868C464.7 310.802 464.594 310.733 464.359 310.715C464.359 310.715 464.18 310.604 464.359 310.554L465.931 310.551C465.931 310.551 466.076 310.596 465.949 310.664C465.835 310.724 465.735 310.681 465.644 310.784C465.581 310.855 465.543 310.993 465.54 311.215V312.5C465.54 312.551 465.59 312.626 465.608 312.628C465.693 312.636 465.744 312.532 465.787 312.509C465.958 312.364 466.22 312.081 466.458 311.854C466.885 311.448 467.101 311.236 467.172 311.14C467.266 311.013 467.284 310.834 467.233 310.774C467.172 310.707 467.045 310.707 466.935 310.672C466.935 310.672 466.833 310.604 466.951 310.562H468.354C468.354 310.562 468.405 310.689 468.329 310.723C468.135 310.741 468.063 310.782 467.947 310.842C467.835 310.899 467.603 311.062 467.403 311.259C467.403 311.259 466.377 312.141 466.416 312.245C466.476 312.406 467.068 313.1 467.47 313.656C467.643 313.895 467.814 314.194 467.912 314.269C468.007 314.337 468.158 314.481 468.286 314.481C468.435 314.481 468.363 314.617 468.363 314.617C468.363 314.617 467.565 314.587 467.428 314.6C467.334 314.608 467.222 314.438 467.222 314.438C466.91 314.03 466.016 312.781 465.949 312.703C465.915 312.678 465.549 312.95 465.54 313.18V313.937C465.54 314.164 465.594 314.279 465.659 314.345C465.77 314.455 466.05 314.489 466.05 314.481C466.179 314.515 466.093 314.601 466.093 314.601H464.401C464.401 314.601 464.342 314.515 464.468 314.49ZM459.227 314.491C459.342 314.447 459.551 314.316 459.632 314.226C459.708 314.136 459.767 314.057 459.767 313.732C459.767 313.732 459.75 311.76 459.75 311.471C459.75 311.233 459.666 310.918 459.555 310.834C459.444 310.748 459.312 310.695 459.172 310.689C459.172 310.689 459.062 310.57 459.181 310.545H460.244L462.761 313.325C462.761 313.325 462.858 313.446 462.913 313.419L462.936 313.283C462.947 313.07 462.939 311.435 462.939 311.435C462.939 311.259 462.972 311.064 462.853 310.927C462.701 310.754 462.398 310.723 462.309 310.69C462.241 310.664 462.241 310.587 462.317 310.562H463.661C463.754 310.57 463.687 310.664 463.687 310.664C463.534 310.707 463.385 310.74 463.313 310.834C463.228 310.944 463.184 311.11 463.184 311.435V314.674H463.072C463.072 314.674 460.308 311.672 460.141 311.506C460.066 311.429 460.04 311.531 460.04 311.634C460.04 311.735 460.032 313.699 460.032 313.699C460.032 314.036 460.1 314.243 460.315 314.356C460.399 314.4 460.615 314.454 460.712 314.472C460.754 314.481 460.775 314.603 460.775 314.603H459.228C459.227 314.603 459.186 314.507 459.227 314.491ZM454.642 314.613L454.692 314.498C454.726 314.464 454.926 314.413 455.007 314.311C455.083 314.209 456.74 310.46 456.74 310.46L456.844 310.434L458.365 313.928C458.467 314.158 458.534 314.314 458.594 314.37C458.654 314.424 458.807 314.489 458.908 314.498C458.97 314.503 458.935 314.592 458.935 314.592L457.242 314.634C457.242 314.634 457.183 314.541 457.293 314.498C457.362 314.472 457.6 314.354 457.642 314.183C457.661 314.107 457.625 313.928 457.548 313.725C457.495 313.581 457.345 313.265 457.26 313.206C457.184 313.152 456.868 313.181 456.579 313.172C456.315 313.164 455.967 313.154 455.857 313.215C455.718 313.289 455.566 313.864 455.534 313.954C455.503 314.041 455.534 314.243 455.61 314.302C455.739 314.402 455.993 314.481 456.086 314.507L456.111 314.609L454.642 314.613ZM457.175 312.9C457.216 312.844 457.059 312.533 456.912 312.203C456.8 311.956 456.614 311.478 456.554 311.497C456.511 311.511 456.358 311.888 456.239 312.16C456.11 312.454 455.956 312.821 456.018 312.883C456.055 312.919 456.342 312.942 456.58 312.934C456.852 312.924 457.136 312.952 457.175 312.9ZM453.392 311.601C453.395 311.327 453.235 311.074 453.059 310.927C452.957 310.843 452.762 310.74 452.541 310.74C452.235 310.74 452.033 310.783 452.033 311.072L452.03 312.151C452.005 312.406 452.616 312.342 452.616 312.342C453.128 312.342 453.383 312.271 453.392 311.601ZM450.815 314.487C451.019 314.43 451.169 314.38 451.232 314.302C451.3 314.217 451.323 314.164 451.327 313.934V311.21C451.325 311.047 451.283 310.953 451.189 310.851C451.006 310.651 450.789 310.782 450.756 310.706C450.731 310.65 450.738 310.547 450.738 310.547H452.453C452.944 310.547 453.269 310.568 453.561 310.715C453.782 310.826 454.046 311.089 454.046 311.485C454.046 312.033 453.604 312.228 453.426 312.355C453.766 312.449 454.326 312.645 454.326 313.282C454.326 313.945 453.961 314.362 453.612 314.472C453.373 314.549 453.075 314.594 452.734 314.597H450.815L450.815 314.487ZM475.462 314.523C475.462 314.535 475.674 314.455 475.768 314.379C475.835 314.323 475.887 314.211 475.887 313.945L475.896 311.369C475.896 311.154 475.869 311.054 475.793 310.935C475.716 310.818 475.529 310.791 475.309 310.757C475.309 310.757 475.148 310.638 475.261 310.589C475.249 310.587 476.454 310.596 477.035 310.604C477.63 310.613 478.224 310.556 478.285 310.596C478.361 310.647 478.321 311.219 478.335 311.327C478.343 311.386 478.297 311.507 478.242 311.514C478.174 311.522 478.158 311.401 478.158 311.327C478.158 311.173 478.028 310.996 477.996 310.953C477.914 310.844 477.757 310.822 477.682 310.822H476.767C476.686 310.822 476.662 310.821 476.635 310.851C476.614 310.878 476.579 310.946 476.576 311.03V312.159C476.576 312.228 476.579 312.324 476.618 312.338C476.713 312.372 477.323 312.364 477.323 312.364C477.426 312.364 477.545 312.261 477.579 312.203C477.632 312.111 477.72 312 477.766 311.862C477.792 311.786 477.927 311.726 477.927 311.897C477.927 312.004 477.945 313.223 477.945 313.223C477.876 313.316 477.818 313.197 477.818 313.197C477.772 312.961 477.73 312.875 477.655 312.798C477.584 312.721 477.476 312.628 477.323 312.628L476.797 312.62C476.601 312.602 476.593 312.815 476.584 312.891L476.575 313.98C476.584 314.09 476.61 314.237 476.678 314.302C476.747 314.362 476.921 314.485 477.154 314.507C477.266 314.515 477.188 314.64 477.188 314.64H475.419C475.419 314.64 475.334 314.583 475.462 314.523ZM471.228 311.047C471.604 310.687 472.149 310.531 472.699 310.528C473.249 310.528 473.705 310.614 474.084 310.978C474.491 311.37 474.702 311.854 474.706 312.509C474.706 313.172 474.492 313.713 474.067 314.107C473.691 314.456 473.16 314.664 472.621 314.667C472.047 314.667 471.497 314.512 471.117 314.124C470.734 313.73 470.593 313.201 470.59 312.576C470.59 311.925 470.815 311.444 471.228 311.047ZM471.755 314.005C472.092 314.388 472.325 314.472 472.792 314.472C473.115 314.472 473.441 314.282 473.693 313.98C473.906 313.725 474.008 313.274 474.008 312.61C474.008 311.944 473.824 311.5 473.575 311.191C473.285 310.834 472.972 310.752 472.614 310.749C472.249 310.749 471.883 310.842 471.644 311.114C471.384 311.411 471.266 311.885 471.262 312.534C471.262 313.177 471.567 313.793 471.755 314.005ZM493.086 314.49C493.086 314.499 493.358 314.405 493.46 314.252C493.523 314.156 493.564 314.065 493.564 313.742L493.528 311.2C493.511 311.004 493.363 310.867 493.299 310.834C493.214 310.791 493.075 310.801 493.001 310.74C493.001 310.74 492.831 310.614 492.975 310.587C492.964 310.592 494.004 310.554 494.018 310.592C494.131 310.664 495.755 312.466 496.427 313.24C496.649 313.503 496.733 313.46 496.724 313.206L496.733 311.302C496.733 311.03 496.597 310.935 496.538 310.893C496.414 310.805 496.299 310.74 496.095 310.705C496.095 310.705 495.926 310.647 496.095 310.592H497.43C497.524 310.587 497.524 310.664 497.43 310.689C497.312 310.689 497.168 310.785 497.091 310.875C497.013 310.966 496.975 311.168 496.975 311.491L496.971 314.6C496.963 314.745 496.826 314.668 496.826 314.668C496.826 314.668 494.294 311.905 493.992 311.567C493.988 311.564 493.945 311.48 493.872 311.533C493.826 311.566 493.82 311.582 493.825 311.658L493.832 313.741C493.832 314.076 493.948 314.26 494.046 314.362C494.109 314.428 494.213 314.482 494.437 314.506C494.573 314.498 494.549 314.641 494.549 314.641L492.993 314.642C492.993 314.642 492.966 314.523 493.086 314.49ZM490.723 314.531C490.782 314.515 490.911 314.444 490.987 314.388C491.058 314.33 491.098 314.217 491.1 313.978L491.113 311.352C491.104 311.182 491.104 310.978 491.02 310.893C490.896 310.77 490.758 310.717 490.505 310.705C490.505 310.705 490.399 310.647 490.505 310.592H492.194C492.329 310.613 492.176 310.705 492.176 310.705C492.04 310.706 491.931 310.778 491.879 310.842C491.801 310.935 491.804 311.126 491.793 311.267V313.978C491.793 314.214 491.872 314.353 491.947 314.413C492.018 314.467 492.104 314.511 492.354 314.532C492.516 314.558 492.354 314.642 492.354 314.642L490.723 314.641C490.595 314.6 490.723 314.531 490.723 314.531ZM485.418 314.515C485.407 314.517 485.672 314.343 485.731 314.277C485.792 314.214 485.842 314.109 485.842 313.844L485.859 311.31C485.859 311.091 485.815 310.969 485.765 310.885C485.706 310.783 485.568 310.767 485.341 310.749C485.341 310.749 485.017 310.672 485.315 310.596H486.905C487.076 310.604 486.931 310.705 486.931 310.705C486.803 310.707 486.701 310.749 486.637 310.827C486.58 310.9 486.523 311.03 486.536 311.255V312.151C486.536 312.151 486.523 312.364 486.709 312.355C486.983 312.343 488.204 312.379 488.392 312.364C488.614 312.347 488.656 312.211 488.656 312.109C488.665 311.854 488.656 311.281 488.656 311.281C488.656 311.063 488.598 310.896 488.533 310.828C488.466 310.763 488.32 310.723 488.092 310.705C487.933 310.682 488.044 310.592 488.044 310.592L489.736 310.594C489.736 310.594 489.821 310.69 489.685 310.707C489.548 310.698 489.493 310.76 489.425 310.828C489.358 310.894 489.326 311.034 489.326 311.255L489.328 313.954C489.328 314.175 489.372 314.246 489.439 314.311C489.504 314.371 489.577 314.474 489.804 314.499C489.922 314.515 489.974 314.634 489.838 314.643L488.29 314.677C488.29 314.677 488.086 314.583 488.316 314.507C488.316 314.515 488.495 314.448 488.563 314.337C488.608 314.263 488.64 314.065 488.64 313.929C488.64 313.929 488.648 312.985 488.648 312.84C488.648 312.739 488.614 312.603 488.478 312.628C488.478 312.628 486.819 312.624 486.684 312.611C486.591 312.603 486.53 312.653 486.53 312.832V313.903C486.53 314.124 486.649 314.305 486.718 314.371C486.784 314.434 486.907 314.494 487.135 314.515C487.33 314.541 487.185 314.643 487.185 314.643L485.376 314.641C485.377 314.641 485.273 314.55 485.418 314.515ZM483.725 310.706C483.941 310.819 484.116 310.91 484.21 310.902C484.269 310.896 484.316 310.778 484.337 310.706C484.431 310.578 484.465 310.808 484.465 310.8L484.541 311.947C484.541 311.947 484.465 312.059 484.388 311.947C484.308 311.675 484.095 311.376 483.947 311.216C483.725 310.978 483.325 310.739 482.9 310.731C482.417 310.723 482.081 310.922 481.829 311.233C481.616 311.497 481.489 311.939 481.489 312.398C481.489 312.941 481.72 313.572 482.042 313.877C482.355 314.174 482.691 314.324 483.131 314.328C483.447 314.328 483.626 314.242 483.895 314.089C484.048 314.006 484.255 313.781 484.439 313.606C484.549 313.512 484.61 313.64 484.61 313.64C484.627 313.732 484.275 314.1 483.989 314.328C483.776 314.498 483.224 314.694 482.943 314.694C482.286 314.694 481.906 314.66 481.328 314.141C481.001 313.847 480.818 313.24 480.815 312.657C480.815 312.062 481.004 311.562 481.379 311.156C481.774 310.732 482.288 310.52 482.928 310.52C483.149 310.52 483.514 310.596 483.725 310.706ZM467.026 298.993C467.052 298.943 467.059 299.035 467.185 299.173C467.311 299.31 467.233 299.352 467.309 299.463C467.384 299.575 467.384 299.515 467.365 299.643C467.348 299.769 467.323 299.744 467.21 299.835C467.099 299.926 467.193 299.885 467.083 299.774C466.975 299.662 467.07 299.502 466.962 299.408C466.852 299.313 466.844 299.313 466.87 299.161C466.898 299.008 466.999 299.044 467.026 298.993ZM466.596 299.412C466.648 299.379 466.739 299.533 466.805 299.695C466.87 299.856 466.871 299.822 466.928 300.001C466.986 300.181 466.97 300.095 466.823 300.263C466.677 300.432 466.482 300.412 466.285 300.588C466.087 300.764 466.002 300.712 465.823 300.837C465.644 300.962 465.67 300.92 465.518 300.859C465.366 300.798 465.375 300.755 465.478 300.629C465.581 300.503 465.564 300.571 465.641 300.504C465.718 300.436 465.549 300.426 465.633 300.359C465.719 300.293 465.71 300.385 465.847 300.235C465.985 300.083 465.944 300.057 465.995 299.965C466.047 299.872 466.108 299.763 466.254 299.696C466.399 299.63 466.545 299.445 466.596 299.412ZM467.713 295.794C467.764 295.769 467.875 295.771 467.993 295.789C468.063 295.8 467.942 295.771 468.24 295.758C468.392 295.751 468.477 295.829 468.612 295.907C468.928 296.09 469.15 296.154 469.218 296.254C469.276 296.338 469.321 296.504 469.299 296.628C469.281 296.729 469.27 296.925 469.141 297.033C469.03 297.128 468.965 297.214 468.91 297.268C468.857 297.319 468.877 297.471 468.787 297.504C468.677 297.546 468.592 297.469 468.457 297.467C468.312 297.464 468.201 297.548 468.159 297.505C468.128 297.473 468.095 297.422 468.042 297.385C467.992 297.35 467.916 297.375 467.907 297.315C467.892 297.221 467.774 296.972 467.683 296.88C467.649 296.846 467.734 296.667 467.687 296.608C467.636 296.547 467.645 296.454 467.637 296.395C467.63 296.333 467.63 296.281 467.631 296.217C467.632 296.158 467.553 296.063 467.591 295.987C467.618 295.937 467.657 295.821 467.713 295.794ZM466.338 296.862C466.307 296.701 466.493 296.746 466.664 296.654C466.835 296.563 466.749 296.587 466.799 296.723C466.849 296.86 466.748 296.732 466.703 296.918C466.66 297.104 466.66 297.07 466.539 297.154C466.419 297.236 466.437 297.144 466.379 297.05C466.321 296.955 466.371 297.024 466.338 296.862ZM464.301 295.837C464.266 295.758 464.475 295.482 465.026 294.794C465.515 294.182 466.532 293.776 466.95 293.629C467.039 293.597 467.334 293.511 467.436 293.49C467.513 293.474 467.822 293.461 467.895 293.436C468.04 293.387 468.283 293.405 468.328 293.382C468.434 293.331 468.546 293.302 468.669 293.276C468.811 293.246 468.991 293.322 469.119 293.298C469.368 293.252 469.563 293.394 469.702 293.467C470.183 293.719 470.707 294.608 470.905 295.111C471.102 295.615 471.509 297.029 471.58 298.184C471.626 298.926 471.598 300.866 471.569 301.163C471.518 301.693 471.496 302.935 471.459 303.173C471.415 303.46 471.382 303.954 471.278 304.131C471.086 304.457 470.304 305.04 470.136 305.194C469.999 305.32 469.408 305.834 469.339 305.83C469.254 305.824 469.155 305.649 468.969 305.469C468.64 305.146 467.781 304.843 467.418 304.644C467.062 304.447 465.895 304.338 465.182 304.293C464.673 304.262 463.893 304.193 463.868 304.133C463.84 304.066 463.784 304.09 463.706 304.088C463.637 304.088 463.63 304.173 463.613 304.206C463.586 304.257 463.646 304.232 463.62 304.376C463.592 304.52 463.66 304.428 463.676 304.547C463.692 304.666 463.743 304.616 463.699 304.725C463.656 304.835 463.876 304.914 463.917 305.034C463.965 305.175 463.963 305.357 463.811 305.363C463.647 305.371 463.503 305.436 463.327 305.374C463.199 305.33 462.763 304.935 462.741 304.688C462.721 304.477 462.693 303.99 462.675 303.838C462.644 303.567 462.542 302.852 462.514 302.496C462.483 302.138 462.449 302.214 462.518 302.071C462.588 301.928 462.41 301.906 462.471 301.714C462.516 301.578 462.459 301.317 462.538 301.147C462.573 301.07 462.482 301.07 462.488 300.993C462.499 300.89 462.508 300.823 462.535 300.722C462.556 300.644 462.545 300.552 462.539 300.408C462.532 300.263 462.533 300.204 462.594 300.102C462.631 300.04 462.561 300.008 462.571 299.882C462.576 299.808 462.665 299.144 462.701 298.89C462.739 298.637 462.794 297.962 462.841 297.873C462.971 297.629 463.046 297.078 463.099 296.883C463.156 296.677 463.336 296.493 463.378 296.334C463.396 296.267 463.506 296.209 463.549 296.236C463.608 296.271 463.632 296.449 463.631 296.516C463.629 296.616 463.564 297.045 463.521 297.135C463.468 297.244 463.412 297.641 463.404 297.702C463.388 297.808 463.384 297.931 463.375 298.007C463.365 298.084 463.313 298.185 463.286 298.269C463.266 298.339 463.303 298.48 463.283 298.549C463.257 298.642 463.265 298.702 463.221 298.778C463.18 298.85 463.244 298.922 463.218 298.982C463.186 299.055 463.25 299.126 463.199 299.21C463.145 299.298 463.235 299.317 463.205 299.431C463.169 299.567 463.175 299.677 463.141 299.744C463.107 299.812 463.205 299.901 463.171 300.025C463.127 300.194 463.157 301.155 463.131 301.349C463.103 301.543 463.112 302.154 463.135 302.266C463.152 302.342 463.158 302.495 463.226 302.486C463.311 302.477 463.326 302.202 463.408 302.218C463.459 302.227 463.426 302.384 463.439 302.489C463.462 302.685 463.447 302.519 463.493 302.864C463.525 303.094 463.486 303.475 463.518 303.594C463.55 303.714 463.533 303.823 463.66 303.825C463.77 303.826 463.729 303.741 463.815 303.632C463.901 303.522 463.907 303.506 463.977 303.557C464.036 303.601 464.452 303.597 464.588 303.574C464.764 303.542 464.886 303.397 465.007 303.307C465.153 303.198 465.719 302.662 466.003 302.419C466.131 302.31 466.485 301.89 466.622 301.756C466.85 301.534 467.202 301.167 467.257 301.102C467.301 301.052 467.319 300.984 467.269 300.89C467.239 300.833 467.193 300.821 467.133 300.854C466.987 300.936 466.799 301.181 466.653 301.273C466.398 301.434 466.077 301.651 465.9 301.756C465.704 301.872 465.421 302.004 465.242 302.104C465.011 302.234 464.752 302.317 464.713 302.336C464.628 302.378 464.597 302.402 464.518 302.341C464.451 302.29 464.471 302.321 464.538 302.104C464.582 301.96 464.468 301.803 464.629 301.596C464.732 301.462 464.83 301.115 464.994 300.913C465.052 300.84 465.369 300.446 465.434 300.341C465.486 300.257 465.59 300.211 465.606 300.183C465.658 300.08 465.723 299.954 465.753 299.937C465.86 299.881 465.968 299.722 465.984 299.702C466.02 299.662 466.034 299.636 466.012 299.568C466.003 299.542 465.949 299.447 465.884 299.524C465.816 299.607 465.689 299.631 465.638 299.665C465.542 299.727 465.567 299.842 465.473 299.849C465.336 299.86 465.349 299.636 465.366 299.56C465.388 299.471 465.317 299.449 465.36 299.355C465.461 299.142 465.432 299.119 465.458 299.077C465.483 299.035 465.507 299.067 465.56 299.002C465.595 298.959 465.528 298.9 465.57 298.849C465.658 298.747 465.683 298.626 465.769 298.571C465.863 298.513 466.027 298.294 466.045 298.236C466.066 298.163 466.073 298.089 466.098 298.015C466.108 297.989 466.011 297.976 465.972 297.929C465.93 297.877 465.965 297.844 465.983 297.75C465.992 297.7 465.891 297.638 465.892 297.571C465.893 297.494 465.884 297.461 465.791 297.468C465.698 297.475 465.494 297.687 465.331 297.717C465.159 297.749 465.025 297.628 465.113 297.46C465.22 297.25 465.475 296.947 465.526 296.887C465.603 296.801 465.588 296.719 465.581 296.634C465.573 296.547 465.494 296.353 465.468 296.148C465.453 296.029 465.323 295.589 465.297 295.536C465.28 295.502 465.242 295.396 465.341 295.358C465.384 295.341 465.469 295.435 465.526 295.521C465.615 295.65 465.751 295.889 465.792 295.974C465.844 296.081 465.893 296.189 465.916 296.273C465.932 296.333 465.973 296.443 466.059 296.453C466.142 296.462 466.195 296.454 466.246 296.404C466.333 296.319 466.786 296.141 466.98 296.073C467.073 296.041 467.125 296.024 467.225 296.085C467.282 296.119 467.351 296.316 467.384 296.333C467.453 296.369 467.486 296.36 467.468 296.411C467.456 296.444 467.468 296.427 467.382 296.529C467.295 296.629 467.371 296.664 467.286 296.8C467.198 296.934 467.128 297.119 467.093 297.203C467.059 297.285 466.981 297.321 466.922 297.38C466.852 297.448 466.876 297.541 466.843 297.558C466.736 297.609 466.739 297.593 466.705 297.666C466.671 297.742 466.652 297.86 466.736 298.015C466.776 298.091 466.853 298.109 466.868 298.169C466.9 298.283 466.978 298.28 467.02 298.34C467.091 298.444 467.078 298.437 467.119 298.503C467.195 298.623 467.186 298.572 467.28 298.64C467.338 298.683 467.387 298.82 467.454 298.889C467.564 299.001 467.706 299.087 467.807 299.208C467.888 299.304 467.89 299.353 467.88 299.438C467.865 299.581 467.897 299.497 467.844 299.598C467.806 299.674 467.842 299.776 467.841 299.827C467.841 299.921 467.84 299.988 467.78 300.073C467.718 300.157 467.547 300.376 467.512 300.46C467.482 300.53 467.459 300.603 467.493 300.638C467.539 300.686 467.576 300.707 467.636 300.666C467.745 300.589 468.068 300.06 468.344 299.706C468.491 299.518 468.794 299.015 468.864 298.881C468.935 298.742 469.149 298.482 469.192 298.426C469.217 298.393 469.293 298.393 469.31 298.453C469.324 298.506 469.3 298.563 469.316 298.598C469.339 298.644 469.4 298.616 469.409 298.692C469.416 298.769 469.424 298.803 469.398 298.844C469.379 298.877 469.446 298.895 469.406 298.963C469.371 299.023 469.412 299.142 469.317 299.251C469.182 299.407 468.85 299.847 468.713 300.025C468.524 300.269 467.972 300.924 467.887 301C467.84 301.039 467.784 301.129 467.808 301.185C467.849 301.279 468.007 301.544 468.1 301.621C468.22 301.721 468.47 301.871 468.581 301.874C468.711 301.875 468.797 301.837 468.845 301.8C469.05 301.641 469.215 301.295 469.285 301.126C469.383 300.891 469.541 300.408 469.55 300.332C469.565 300.213 469.511 300.085 469.52 300.043C469.532 299.99 469.605 300.001 469.621 300.053C469.643 300.121 469.662 300.249 469.677 300.333C469.704 300.475 469.49 301.197 469.452 301.443C469.406 301.739 469.048 302.246 469.017 302.321C468.999 302.362 469.007 302.43 468.921 302.437C468.822 302.447 468.786 302.419 468.727 302.402C468.507 302.339 468.321 302.184 468.18 302.055C468.037 301.926 467.702 301.515 467.66 301.446C467.629 301.394 467.518 301.317 467.467 301.36C467.373 301.435 467.234 301.644 467.165 301.695C467.112 301.734 467.009 301.774 466.951 301.836C466.865 301.929 466.762 302.047 466.66 302.138C466.583 302.207 466.256 302.448 466.196 302.507C466.102 302.599 465.989 302.75 465.921 302.8C465.852 302.851 465.622 302.991 465.553 303.068C465.476 303.152 465.367 303.323 465.277 303.361C465.217 303.385 465.14 303.486 465.199 303.538C465.257 303.589 465.454 303.5 465.581 303.476C465.682 303.456 465.836 303.453 465.947 303.446C466.015 303.44 466.078 303.369 466.236 303.322C466.374 303.281 466.466 303.341 466.525 303.325C466.6 303.305 466.645 303.276 466.765 303.243C466.898 303.207 467.079 303.23 467.155 303.198C467.21 303.173 467.208 303.156 467.31 303.089C467.376 303.045 467.465 303.086 467.539 303.066C467.689 303.027 467.837 302.981 467.982 302.927C468.123 302.876 468.579 302.765 468.647 302.757C468.711 302.75 468.809 302.607 468.92 302.566C469.061 302.513 469.329 302.561 469.439 302.495C469.504 302.456 469.654 302.542 469.725 302.669C469.816 302.831 469.713 302.914 469.688 303.008C469.62 303.241 469.556 303.346 469.479 303.43C469.4 303.513 469.373 303.666 469.246 303.699C469.099 303.735 469.023 303.757 468.864 303.685C468.577 303.554 468.422 303.68 468.253 303.644C468.001 303.59 467.904 303.716 467.785 303.705C467.726 303.701 467.535 303.669 467.48 303.702C467.315 303.798 467.182 303.775 467.071 303.808C466.978 303.835 466.943 303.925 466.993 303.968C467.081 304.042 467.373 304.117 467.611 304.102C467.993 304.08 468.272 304.162 468.425 304.172C468.653 304.188 468.814 304.312 468.925 304.314C469.05 304.315 469.102 304.375 469.229 304.411C469.313 304.435 469.415 304.465 469.508 304.456C469.611 304.449 469.688 304.526 469.728 304.51C469.882 304.453 469.882 304.466 469.967 304.445C470.035 304.429 470.173 304.251 470.267 304.186C470.387 304.102 470.636 303.867 470.688 303.724C470.742 303.578 470.759 303.513 470.811 303.326C470.857 303.169 470.789 303.157 470.851 302.903C470.906 302.683 470.85 302.326 470.894 302.191C470.921 302.105 470.913 302.063 470.939 301.987C470.975 301.884 470.939 301.808 470.933 301.767C470.926 301.715 471.004 301.606 471.004 301.538C471.004 301.479 470.938 301.427 470.982 301.309C471.036 301.16 470.993 301.003 471.036 300.953C471.08 300.902 470.988 300.817 471.014 300.74C471.054 300.625 471.057 300.154 471.032 299.909C471.003 299.603 471.049 299.187 471.06 299.034C471.065 298.957 470.96 298.898 470.994 298.83C471.042 298.738 470.989 298.593 470.974 298.474C470.953 298.315 470.903 298.023 470.896 297.845C470.885 297.539 470.599 295.763 470.418 295.309C470.163 294.669 469.482 293.999 469.204 293.877C468.939 293.76 468.594 293.776 468.375 293.773C468.204 293.771 467.6 293.866 467.064 294.037C466.587 294.189 466.078 294.425 465.912 294.524C465.715 294.64 465.492 294.909 465.344 295.06C465.187 295.224 465.146 295.419 465.102 295.507C464.981 295.752 465.104 296.059 465.129 296.144C465.169 296.288 465.133 296.391 465.074 296.415C464.941 296.47 464.998 296.473 464.75 296.504C464.67 296.514 464.522 296.443 464.514 296.383C464.496 296.236 464.366 295.99 464.301 295.837ZM501.896 298.927C501.754 299.005 501.32 299.489 501.209 299.538C501.102 299.586 500.948 299.468 500.854 299.484C500.606 299.522 500.017 299.664 499.602 299.739C499.254 299.803 498.675 300.019 498.52 300.1C498.409 300.157 498.405 300.236 498.467 300.294C498.677 300.492 498.854 300.587 498.954 300.716C499.022 300.804 498.918 300.843 498.891 300.987C498.858 301.163 498.744 301.995 498.797 302.446C498.845 302.839 499.051 304.025 499.105 304.351C499.152 304.64 499.194 305.036 499.231 305.184C499.283 305.393 499.207 305.761 499.13 305.846C498.845 306.154 498.399 306.609 498.279 306.65C498.099 306.712 497.863 306.704 497.695 306.566C497.476 306.387 497.395 306.062 497.329 305.892C497.216 305.599 496.895 305.376 496.666 305.212C496.266 304.922 495.386 304.475 495.254 304.16C495.235 304.115 495.205 304.023 495.299 303.99C495.475 303.928 495.56 304.147 495.678 304.233C495.9 304.396 496.091 304.441 496.252 304.494C496.504 304.577 496.956 304.689 497.063 304.724C497.32 304.81 497.452 304.849 497.649 304.783C497.782 304.739 498.002 304.321 498.014 304.142C498.038 303.71 497.94 303.199 497.951 302.987C497.982 302.377 497.969 302.263 498.033 301.8C498.08 301.46 497.989 301.205 498 301.052C498.013 300.863 498.014 300.585 498.066 300.451C498.11 300.337 497.97 300.343 497.872 300.372C497.403 300.51 497.184 300.728 496.779 300.918C496.497 301.051 495.993 301.36 495.787 301.432C495.645 301.485 495.53 301.684 495.446 301.606C495.351 301.519 495.217 301.544 495.135 301.39C495.014 301.166 495.208 300.959 495.363 300.867C495.566 300.746 495.752 300.821 496.376 300.515C497 300.208 497.675 299.801 498.178 299.604C498.67 299.41 500.011 299.007 500.207 298.966C500.401 298.924 500.827 298.885 500.895 298.855C501.159 298.74 501.398 298.743 501.482 298.727C501.6 298.704 501.77 298.747 501.872 298.756C501.996 298.769 502.032 298.853 501.896 298.927ZM496.6 297.462C496.78 297.371 496.828 297.584 496.888 297.584C497.065 297.586 497.226 297.607 497.448 297.533C497.618 297.475 498.695 296.936 499.06 296.847C499.686 296.695 500.56 296.45 500.865 296.47C500.967 296.477 500.975 296.548 500.872 296.606C500.757 296.672 500.725 296.834 500.63 296.925C500.569 296.985 500.594 297.171 500.541 297.238C500.479 297.32 500.387 297.364 500.277 297.363C500.106 297.361 500.09 297.361 499.98 297.359C499.854 297.358 499.603 297.518 499.511 297.54C499.477 297.548 499.391 297.475 499.309 297.453C499.114 297.4 498.376 297.694 498.09 297.819C497.791 297.952 497.261 298.213 496.995 298.494C496.892 298.603 496.786 298.806 496.619 298.71C496.466 298.623 496.404 298.274 496.363 298.121C496.327 297.988 496.345 297.592 496.6 297.462ZM495.641 293.274C495.802 293.301 496.099 294.026 496.265 294.351C496.318 294.457 496.354 294.625 496.386 294.896C496.401 295.023 496.517 295.263 496.487 295.551C496.473 295.695 496.515 295.954 496.465 296.076C496.429 296.161 496.293 296.244 496.292 296.363C496.291 296.434 496.179 296.591 496.11 296.658C496.001 296.762 495.935 297.04 495.865 297.131C495.736 297.298 495.409 297.293 495.176 297.359C495.004 297.409 494.798 297.517 494.619 297.641C494.44 297.767 494.118 297.879 493.894 298.031C493.722 298.148 493.371 298.501 493.268 298.584C493.196 298.641 493.074 298.738 493.188 298.838C493.306 298.941 493.637 298.885 494.085 299.086C494.38 299.219 494.64 299.4 494.79 299.647C494.915 299.851 494.853 300.031 494.717 300.113C494.607 300.179 494.532 300.377 494.296 300.574C494.176 300.675 494.089 300.931 493.899 301.095C493.753 301.22 493.225 301.783 493.023 301.933C492.912 302.018 492.914 302.156 493.096 302.223C493.265 302.285 493.789 302.654 493.962 302.904C494.145 303.169 494.226 303.741 494.26 304.206C494.282 304.513 494.072 304.977 493.983 305.299C493.94 305.459 493.908 305.527 493.701 305.49C493.648 305.481 493.554 305.355 493.466 305.266C493.341 305.138 493.165 305.086 493.079 304.99C492.978 304.878 492.839 304.815 492.769 304.706C492.685 304.578 492.695 303.99 492.738 303.73C492.774 303.509 492.809 303.354 492.864 303.188C492.908 303.053 492.994 302.609 492.829 302.576C492.735 302.559 492.384 302.75 492.197 302.84C491.989 302.942 491.752 303.081 491.649 303.199C491.534 303.33 491.467 303.51 491.449 303.646C491.431 303.779 491.337 303.871 491.277 303.839C491.151 303.77 491.026 303.829 490.937 303.852C490.81 303.884 490.726 303.768 490.582 303.711C490.337 303.615 490.449 303.689 490.236 303.512C490.102 303.4 489.803 302.961 489.916 302.651C489.978 302.482 489.919 302.404 490.092 302.246C490.51 301.858 490.673 301.642 491.097 301.18C491.32 300.937 491.699 300.542 491.932 300.35C492.024 300.272 492.111 300.134 492.181 299.971C492.225 299.87 492.47 299.687 492.313 299.582C492.145 299.47 491.928 299.457 491.805 299.508C491.686 299.557 491.608 299.42 491.467 299.342C491.341 299.273 491.2 299.367 491.103 299.296C490.985 299.209 490.927 299.149 490.818 299.072C490.716 299 490.525 298.896 490.618 298.704C490.688 298.561 490.63 298.356 490.784 298.239C490.982 298.089 491.119 297.938 491.257 297.821C491.523 297.595 492.255 296.747 492.745 296.184C493.262 295.591 494.213 294.182 494.582 293.804C494.66 293.724 494.626 293.539 495.021 293.334C495.26 293.21 495.449 293.241 495.641 293.274ZM484.196 295.146C484.227 295.29 484.102 295.824 483.951 296.281C483.801 296.736 483.767 296.889 483.633 297.304C483.574 297.488 483.455 297.403 483.386 297.479C483.309 297.563 483.48 297.412 483.153 297.731C482.956 297.923 482.538 298.181 482.424 298.307C482.365 298.375 482.238 298.339 482.213 298.212C482.199 298.128 482.199 298.05 482.192 297.88C482.187 297.736 482.314 297.558 482.342 297.483C482.386 297.365 482.457 297.128 482.459 296.975C482.462 296.686 482.772 296.3 483.014 296.015C483.254 295.729 484.196 295.146 484.196 295.146ZM482.688 299.669C482.816 299.576 482.806 299.823 482.925 299.799C483 299.784 483.063 299.692 483.114 299.633C483.156 299.581 483.221 299.545 483.265 299.761C483.289 299.88 483.311 299.993 483.244 300.075C483.141 300.2 482.552 300.414 482.45 300.456C482.378 300.485 482.355 300.516 482.324 300.369C482.284 300.182 482.505 300.083 482.515 299.998C482.532 299.843 482.584 299.744 482.688 299.669ZM483.963 302.282C484.083 302.3 484.39 302.126 484.519 302.026C484.611 301.953 484.696 302.062 484.645 302.154C484.588 302.254 484.385 302.491 484.342 302.601C484.316 302.665 484.247 302.71 484.196 302.692C484.083 302.651 483.972 302.602 483.866 302.544C483.748 302.476 483.854 302.265 483.963 302.282ZM481.228 302.461C481.269 302.367 481.506 302.643 481.658 302.679C481.821 302.717 482.006 302.794 482.208 302.847C482.487 302.919 482.782 303.083 482.993 303.23C483.138 303.33 483.331 303.369 483.499 303.541C483.561 303.605 483.539 303.694 483.488 303.753C483.428 303.821 483.392 303.904 483.281 303.979C482.991 304.175 482.025 304.686 481.896 304.794C481.732 304.933 481.42 304.856 481.319 304.761C481.23 304.678 481.136 304.551 481.111 304.377C481.072 304.105 481.054 303.596 481.074 303.35C481.092 303.118 481.097 302.765 481.228 302.461ZM478.129 302.601C478.13 302.542 478.436 302.401 478.606 302.318C478.772 302.238 478.923 302.169 479.067 302.154C479.14 302.146 479.222 302.209 479.193 302.3C479.149 302.444 478.488 303.081 478.256 303.333C478.206 303.386 478.112 303.195 478.107 303.076C478.099 302.94 478.127 302.73 478.129 302.601ZM477.602 301.186C477.697 301.175 477.736 301.311 477.659 301.424C477.607 301.5 477.464 301.54 477.429 301.497C477.373 301.426 477.423 301.362 477.508 301.302C477.584 301.252 477.534 301.194 477.602 301.186ZM478.363 298.682C478.533 298.668 478.538 298.748 478.549 298.761C478.591 298.813 478.683 299.028 478.749 299.103C478.807 299.171 478.853 299.25 478.95 299.284C479.001 299.301 479.007 299.531 478.996 299.633C478.986 299.742 478.718 299.787 478.586 299.89C478.5 299.957 478.45 300.011 478.397 300.083C478.328 300.175 478.311 300.226 478.216 300.31C478.138 300.379 478.233 300.745 478.174 300.912C478.148 300.988 478.25 300.981 478.335 300.982C478.377 300.983 478.392 300.903 478.447 300.856C478.516 300.798 478.704 300.663 478.798 300.607C478.867 300.564 478.778 300.333 478.878 300.31C478.947 300.294 478.951 300.544 478.993 300.642C479.026 300.719 479.136 301.004 479.106 301.119C479.078 301.221 479.06 301.333 479.026 301.399C478.991 301.465 478.581 301.642 478.622 301.817C478.647 301.92 478.95 301.776 479.106 301.789C479.224 301.8 479.451 301.776 479.556 301.778C479.657 301.779 479.854 301.93 479.967 302.131C480.026 302.234 479.608 302.6 479.389 302.88C479.174 303.157 478.334 303.868 478.162 304.035C478.074 304.122 478.132 304.435 478.063 304.476C477.98 304.526 477.908 304.477 477.817 304.498C477.749 304.515 477.631 304.561 477.594 304.64C477.56 304.716 477.552 304.776 477.618 304.81C477.702 304.853 478.59 304.406 479.019 304.022C479.468 303.618 480.083 302.998 480.309 302.712C480.481 302.494 480.416 301.568 480.614 300.662C480.705 300.246 480.906 298.901 481.05 298.266C481.215 297.54 481.783 296.413 481.89 296.247C481.933 296.18 481.887 296.114 481.927 296.052C481.97 295.985 481.987 295.934 482.139 296.004C482.201 296.033 482.299 296.15 482.358 296.126C482.492 296.07 482.289 296.184 482.77 295.714C483.251 295.245 483.714 295.013 483.97 294.821C484.227 294.628 484.399 294.41 484.528 294.353C484.633 294.305 484.733 294.35 484.772 294.458C484.814 294.568 484.824 294.731 484.766 294.933C484.731 295.06 484.637 295.238 484.522 295.507C484.477 295.613 484.337 296.152 484.239 296.446C484.139 296.739 484.022 297.44 483.952 297.563C483.849 297.747 483.971 297.793 483.898 297.995C483.874 298.06 483.738 298.369 483.653 298.543C483.566 298.721 483.313 299.278 483.261 299.328C483.196 299.392 483.242 299.528 483.276 299.583C483.316 299.651 483.55 299.796 483.71 300.183C483.759 300.302 483.743 300.425 483.646 300.554C483.577 300.648 483.298 300.736 483.142 300.812C482.937 300.911 482.116 301.326 481.842 301.552C481.782 301.602 481.683 301.589 481.707 301.499C481.752 301.338 481.698 300.846 481.76 300.676C481.85 300.426 481.812 300.524 482.02 300.238C482.13 300.085 482.36 299.529 482.609 299.253C482.633 299.226 482.684 299.083 482.603 299.031C482.535 298.988 482.451 299.077 482.364 299.105C482.314 299.121 482.303 299.248 482.244 299.273C482.152 299.311 482.064 299.217 481.981 299.287C481.92 299.338 481.81 299.58 481.788 299.743C481.779 299.811 481.663 299.9 481.633 299.945C481.598 299.996 481.62 300.216 481.602 300.369C481.579 300.554 481.405 301.026 481.362 301.223C481.335 301.351 481.283 301.634 481.296 301.799C481.303 301.894 481.346 301.959 481.413 301.945C481.49 301.929 481.543 301.799 481.619 301.787C481.713 301.771 482.017 301.767 482.152 301.802C482.216 301.818 482.331 301.897 482.534 301.857C482.651 301.835 482.831 301.785 482.968 301.787C483.104 301.788 483.766 301.787 484.046 301.791C484.148 301.792 484.72 301.51 484.899 301.428C485.047 301.36 485.403 301.026 485.646 300.775C485.784 300.633 486.107 300.535 486.276 300.613C486.362 300.653 486.309 300.905 486.177 301.002C486.075 301.078 485.828 301.21 485.707 301.294C485.515 301.428 485.207 301.809 485.061 302.058C484.992 302.177 484.767 302.496 484.655 302.698C484.632 302.737 484.631 302.838 484.72 302.928C484.803 303.014 485.505 303.201 485.835 303.315C485.865 303.325 485.911 303.384 485.979 303.359C486.025 303.342 486.09 303.319 486.097 303.437C486.1 303.494 486.561 303.507 486.613 303.546C486.791 303.675 487.467 303.827 487.686 303.967C487.77 304.018 487.796 304.04 487.871 304.129C487.921 304.19 488.048 304.187 488.031 304.275C488.012 304.37 486.709 304.692 486.244 304.669C485.843 304.651 485.43 304.601 485.049 304.469C484.711 304.352 484.063 303.862 483.97 303.861C483.817 303.859 483.833 303.894 483.73 303.994C483.702 304.022 483.649 304.116 483.575 304.187C483.49 304.271 483.189 304.566 483.128 304.649C483.041 304.767 482.837 304.813 482.709 304.915C482.615 304.991 482.434 305.192 482.322 305.267C482.118 305.405 481.861 305.575 481.708 305.642C481.551 305.708 481.277 305.608 481.046 305.574C480.791 305.537 480.481 305.271 480.365 305.039C480.295 304.903 480.299 304.562 480.263 304.359C480.239 304.223 480.347 303.804 480.261 303.749C480.144 303.671 480.081 303.76 480.023 303.822C479.929 303.922 479.815 304.116 479.516 304.325C479.383 304.416 479.383 304.481 479.232 304.627C479.12 304.736 478.859 304.891 478.676 305.044C478.495 305.194 478.17 305.286 477.96 305.324C477.882 305.338 477.67 305.469 477.549 305.522C477.438 305.573 477.085 305.696 476.867 305.76C476.731 305.801 476.666 305.504 476.635 305.299C476.604 305.095 476.683 304.884 476.803 304.818C477.002 304.706 477.318 304.34 477.49 304.155C477.534 304.108 477.445 303.997 477.364 304.001C477.084 304.015 476.907 303.894 476.907 303.894C477.112 303.862 477.459 303.851 477.581 303.698C477.6 303.674 477.658 303.623 477.658 303.554C477.66 303.455 477.628 303.431 477.619 303.367C477.61 303.319 477.676 303.236 477.654 303.189C477.63 303.138 477.582 303.018 477.495 303.07C477.316 303.174 477.01 303.48 476.928 303.639C476.876 303.74 476.865 303.85 476.865 303.85C476.814 303.901 476.721 303.857 476.721 303.857C476.558 304.025 476.299 304.31 476.171 304.419C476.075 304.501 475.945 304.56 475.838 304.508C475.713 304.448 475.628 304.184 475.572 304.098C475.522 304.021 475.592 303.912 475.669 303.861C475.784 303.787 476.087 303.629 476.173 303.553C476.267 303.471 476.671 303.068 476.766 302.993C476.916 302.872 477.126 302.736 477.246 302.608C477.332 302.516 477.225 302.403 477.163 302.455C477.111 302.496 477.035 302.478 477.002 302.402C476.92 302.209 476.747 301.736 476.749 301.558C476.75 301.448 476.752 301.386 476.795 301.287C476.926 300.983 477.36 300.415 477.495 300.311C477.623 300.21 477.547 300.115 477.507 300.039C477.457 299.945 477.206 299.636 477.216 299.526C477.231 299.363 477.474 299.216 477.715 299.049C477.953 298.881 478.194 298.697 478.363 298.682ZM479.175 296.137C479.236 296.011 479.652 295.982 479.839 296.018C480.007 296.052 480.21 296.383 480.274 296.541C480.315 296.644 480.386 296.86 480.354 296.941C480.31 297.051 480.134 297.051 479.962 297.098C479.901 297.114 479.741 297.172 479.629 297.23C479.484 297.304 479.306 297.46 479.243 297.522C479.174 297.588 479.06 297.619 479.004 297.604C478.97 297.595 478.972 297.498 479.032 297.434C479.144 297.316 479.283 296.987 479.252 296.86C479.234 296.794 479.168 296.765 479.162 296.561C479.159 296.459 479.125 296.244 479.175 296.137ZM479.118 293.853C479.186 293.837 479.233 293.953 479.338 294C479.414 294.035 479.447 294.104 479.523 294.105C479.628 294.106 479.631 294.268 479.69 294.319C479.74 294.362 479.807 294.523 479.865 294.576C479.932 294.636 479.957 294.713 480.024 294.764C480.097 294.821 480.118 295.012 480.029 295.121C479.96 295.204 479.849 295.319 479.703 295.363C479.566 295.403 479.267 295.415 479.099 295.517C478.961 295.601 478.707 295.802 478.566 295.952C478.299 296.237 477.997 296.734 477.754 297.156C477.589 297.442 476.973 298.496 476.79 298.909C476.714 299.082 476.321 299.921 476.18 300.226C475.997 300.622 475.549 301.487 475.457 301.719C475.334 302.032 475.406 302.295 475.321 302.414C475.244 302.523 475.09 302.513 474.999 302.444C474.906 302.375 474.759 302.236 474.722 302.093C474.691 301.965 474.757 301.667 474.798 301.516C474.824 301.415 474.879 301.346 474.961 301.306C475.012 301.281 475.099 301.305 475.174 301.275C475.231 301.252 475.476 300.846 475.598 300.618C475.759 300.316 476.186 299.414 476.286 299.2C476.347 299.07 476.593 298.517 476.773 298.18C476.886 297.969 477.439 296.447 477.708 296.076C477.769 295.992 478.054 295.388 478.229 295.116C478.385 294.872 479.015 293.877 479.118 293.853ZM455.116 303.731C455.166 303.731 455.199 303.774 455.215 303.859C455.238 303.977 455.223 303.977 455.238 304.078C455.254 304.179 455.215 304.205 455.235 304.289C455.26 304.39 455.249 304.446 455.257 304.55C455.273 304.728 455.278 304.887 455.244 304.997C455.208 305.106 455.25 305.14 455.249 305.25C455.247 305.35 455.189 305.509 455.177 305.661C455.166 305.788 455.291 305.917 455.289 306.068C455.289 306.16 455.247 306.16 455.162 306.151C455.07 306.141 454.96 306.081 454.928 306.004C454.895 305.928 454.796 305.674 454.798 305.582C454.799 305.48 454.828 305.296 454.845 305.178C454.864 305.051 454.832 304.9 454.833 304.781C454.835 304.638 455.005 304.488 455.007 304.344C455.009 304.202 454.975 304.185 454.978 304.007C454.98 303.831 455.048 303.73 455.116 303.731ZM456.502 297.182C456.496 297.088 456.832 296.882 456.997 296.775C457.149 296.676 457.266 296.537 457.396 296.467C457.583 296.369 457.752 296.4 457.86 296.406C458.029 296.416 458.234 296.326 458.325 296.437C458.407 296.539 458.383 296.623 458.354 296.741C458.332 296.834 457.846 297.595 457.615 297.869C457.374 298.158 456.777 298.842 456.718 298.878C456.649 298.92 456.595 298.819 456.578 298.675C456.561 298.548 456.544 298.441 456.572 298.379C456.606 298.304 456.565 298.255 456.549 298.186C456.534 298.109 456.457 297.83 456.472 297.62C456.482 297.468 456.514 297.316 456.502 297.182ZM452.486 299.611C452.508 299.559 452.733 299.445 452.834 299.363C452.905 299.304 453.081 299.188 453.149 299.13C453.345 298.963 453.32 298.995 453.498 298.873C453.583 298.815 453.701 298.774 453.716 298.951C453.734 299.162 453.709 299.541 453.716 299.676C453.722 299.811 453.688 299.844 453.679 299.954C453.671 300.048 453.711 300.098 453.718 300.157C453.727 300.216 453.706 300.233 453.691 300.341C453.682 300.409 453.731 300.511 453.671 300.628C453.611 300.746 453.286 301.003 453.184 301.035C453.083 301.068 453.153 300.883 452.986 300.763C452.818 300.643 452.779 300.474 452.704 300.355C452.613 300.207 452.639 300.135 452.532 300.007C452.423 299.88 452.425 299.753 452.486 299.611ZM450.363 297.572C450.467 297.54 450.67 297.935 450.868 298.149C451.067 298.363 451.365 298.633 451.426 298.687C451.493 298.747 451.65 298.985 451.71 298.986C451.741 298.986 451.933 298.821 452.092 298.712C452.262 298.597 452.647 298.334 452.765 298.256C452.859 298.194 453.153 297.98 453.333 297.842C453.515 297.704 453.908 297.448 453.921 297.411C453.929 297.389 453.913 297.302 453.975 297.134C454.012 297.031 453.93 296.985 453.926 296.964C453.918 296.922 453.97 296.797 453.979 296.729C453.998 296.604 453.967 296.345 453.985 296.291C454.028 296.157 454.043 295.876 454.049 295.794C454.069 295.564 454.042 295.465 454.071 295.373C454.17 295.066 454.18 294.818 454.157 294.59C454.139 294.398 454.093 294.379 454.147 294.085C454.196 293.819 454.438 293.535 454.547 293.408C454.62 293.323 454.839 293.309 455.005 293.471C455.067 293.533 455.215 293.6 455.356 293.746C455.493 293.885 455.749 294.202 455.839 294.282C455.98 294.411 456.254 294.76 456.429 294.981C456.561 295.149 456.633 295.455 456.649 295.565C456.672 295.731 456.636 295.953 456.75 295.974C456.912 296.006 457.229 295.732 457.735 295.637C458.072 295.574 458.621 295.589 458.983 295.593C459.144 295.596 459.456 295.581 459.482 295.656C459.53 295.793 459.447 296.21 459.24 296.675C459.058 297.086 458.958 297.165 458.75 297.428C458.58 297.646 458.554 297.782 458.244 298.189C457.944 298.582 457.347 299.156 457.463 299.267C457.563 299.362 457.859 299.22 457.908 299.441C457.948 299.618 457.753 299.734 457.683 299.91C457.586 300.155 457.645 300.332 457.424 300.438C457.222 300.536 457.103 300.501 456.976 300.585C456.822 300.683 456.88 300.937 456.783 301.122C456.611 301.448 456.7 301.76 456.594 302.024C456.436 302.421 456.474 302.266 456.344 302.679C456.316 302.768 456.252 303.222 456.216 303.381C456.186 303.517 456.082 303.626 456.079 303.675C456.066 303.814 455.998 304.173 456.004 304.213C456.012 304.265 455.917 304.331 455.926 304.423C455.933 304.507 455.843 304.72 455.827 304.869C455.765 305.454 455.818 305.531 455.84 305.856C455.863 306.18 455.802 306.251 455.767 306.337C455.736 306.416 455.614 306.434 455.529 306.459C455.437 306.485 455.443 306.584 455.385 306.603C455.317 306.626 455.22 306.553 455.187 306.61C455.121 306.723 455.052 306.866 454.967 306.873C454.88 306.881 454.85 306.829 454.825 306.695C454.82 306.66 454.734 306.651 454.719 306.576C454.694 306.456 454.667 306.53 454.561 306.333C454.471 306.168 454.547 306.11 454.537 305.962C454.53 305.848 454.378 305.744 454.416 305.565C454.437 305.469 454.411 305.274 454.391 305.113C454.368 304.927 454.361 304.797 454.361 304.75C454.363 304.664 454.334 304.748 454.356 304.48C454.376 304.245 454.302 304.05 454.303 303.983C454.304 303.898 454.271 303.839 454.204 303.837C454.15 303.837 454.122 303.867 454.094 304.002C454.064 304.137 454.061 304.407 454.078 304.569C454.093 304.721 454.188 305.145 454.195 305.279C454.204 305.459 454.185 305.372 454.19 305.616C454.192 305.735 454.249 306.031 454.291 306.194C454.334 306.356 454.428 306.349 454.459 306.463C454.491 306.581 454.524 306.683 454.565 306.751C454.618 306.838 454.825 306.888 454.799 306.939C454.767 307.001 454.679 307.123 454.61 307.13C454.475 307.145 454.226 306.865 454.177 306.742C454.089 306.521 454.029 305.733 453.982 305.446C453.903 304.962 453.82 304.749 453.761 304.212C453.701 303.654 453.567 302.2 453.571 301.892C453.573 301.689 453.439 301.62 453.366 301.616C453.277 301.612 453.164 301.706 453.157 301.802C453.149 301.92 453.176 302.198 453.052 302.248C452.95 302.289 452.229 302.086 451.667 301.716C450.75 301.112 450.425 299.61 450.273 299.322C450.067 298.933 450.061 298.121 450.103 297.964C450.147 297.802 450.209 297.619 450.363 297.572Z" fill="#231F20"/>
</g>
</svg>




