<svg xmlns="http://www.w3.org/2000/svg" xmlns:xlink="http://www.w3.org/1999/xlink" viewBox="128 250 108 108" width="100%" height="100%">
<defs>
<clipPath id="clip0_642_1000">
<rect width="784" height="1774" rx="32" fill="white"/>
</clipPath>
<clipPath id="clip1_642_1000">
<rect x="128" y="250" width="108" height="108" rx="8" fill="white"/>
</clipPath>
<clipPath id="clip2_642_1000">

</clipPath>
<clipPath id="clip3_642_1000">

</clipPath>
<clipPath id="clip4_642_1000">
<rect width="80" height="18.784" fill="white" transform="translate(422 703)"/>
</clipPath>
<clipPath id="clip5_642_1000">

</clipPath>
<clipPath id="clip6_642_1000">

</clipPath>
<clipPath id="clip7_642_1000">

</clipPath>
<clipPath id="clip8_642_1000">

</clipPath>
<clipPath id="clip9_642_1000">

</clipPath>
<clipPath id="clip10_642_1000">

</clipPath>
<clipPath id="clip11_642_1000">

</clipPath>
<clipPath id="clip12_642_1000">

</clipPath>
<clipPath id="clip13_642_1000">

</clipPath>
<clipPath id="clip14_642_1000">
<rect x="128" y="250" width="108" height="108" rx="8" fill="white"/>
</clipPath>
</defs>
<g clip-path="url(#clip14_642_1000)">

<path d="M160.76 300.904H163.526C164.783 300.904 165.598 301.641 165.598 302.643C165.607 302.959 165.518 303.271 165.342 303.535C165.167 303.799 164.914 304.003 164.618 304.117C165.404 304.343 165.964 304.978 165.964 305.816C165.964 306.964 165.149 307.779 163.735 307.779H160.76V300.904ZM163.311 303.752C163.899 303.752 164.332 303.438 164.332 302.809C164.332 302.181 163.87 301.896 163.301 301.896H162.046V303.752H163.311ZM163.526 306.785C164.145 306.785 164.666 306.471 164.666 305.745C164.666 305.018 164.145 304.694 163.482 304.694H162.046V306.785H163.526Z" fill="#1F4396"/>
<path d="M166.351 305.294C166.351 303.772 167.166 302.672 168.55 302.672C168.868 302.661 169.182 302.738 169.459 302.894C169.736 303.05 169.965 303.279 170.121 303.555V302.809H171.329V307.777H170.121V307.03C169.964 307.305 169.734 307.533 169.458 307.688C169.181 307.844 168.867 307.921 168.55 307.913C167.166 307.913 166.351 306.814 166.351 305.292V305.294ZM168.845 306.908C169.66 306.908 170.102 306.25 170.102 305.294C170.102 304.337 169.661 303.687 168.845 303.687C168.029 303.687 167.588 304.344 167.588 305.301C167.588 306.258 168.04 306.904 168.845 306.904V306.908Z" fill="#1F4396"/>
<path d="M172.212 302.809H173.419V303.594C173.562 303.313 173.782 303.078 174.053 302.916C174.324 302.755 174.635 302.673 174.951 302.681C176.119 302.681 176.728 303.388 176.728 304.596V307.777H175.49V304.812C175.49 304.105 175.196 303.693 174.548 303.693C173.851 303.693 173.448 304.223 173.448 305.127V307.777H172.212V302.809Z" fill="#1F4396"/>
<path d="M177.41 308.092H178.667C178.785 308.474 179.139 308.73 179.744 308.73C180.579 308.73 180.912 308.209 180.912 307.439V306.879C180.745 307.101 180.526 307.279 180.275 307.399C180.024 307.518 179.747 307.576 179.469 307.566C178.114 307.566 177.309 306.544 177.309 305.121C177.309 303.698 178.114 302.666 179.469 302.666C179.764 302.657 180.057 302.724 180.318 302.861C180.58 302.998 180.801 303.2 180.962 303.448V302.809H182.157V307.438C182.157 308.871 181.204 309.686 179.732 309.686C178.416 309.686 177.562 309.068 177.414 308.096L177.41 308.092ZM179.758 306.57C180.532 306.57 180.975 305.98 180.975 305.127C180.975 304.273 180.537 303.687 179.762 303.687C178.987 303.687 178.554 304.275 178.554 305.13C178.554 305.985 178.996 306.57 179.762 306.57H179.758Z" fill="#1F4396"/>
<path d="M184.28 305.362V307.777H183.043V300.904H184.28V304.851L186.058 302.806H187.54L185.518 305.055L187.805 307.777H186.283L184.281 305.361L184.28 305.362Z" fill="#1F4396"/>
<path d="M187.483 305.294C187.483 303.772 188.416 302.662 190.006 302.662C191.596 302.662 192.511 303.772 192.511 305.294C192.511 306.815 191.587 307.925 190.006 307.925C188.425 307.925 187.483 306.815 187.483 305.294ZM190.003 306.923C190.828 306.923 191.27 306.246 191.27 305.294C191.27 304.341 190.832 303.664 190.003 303.664C189.174 303.664 188.717 304.351 188.717 305.294C188.717 306.236 189.172 306.923 190.003 306.923Z" fill="#1F4396"/>
<path d="M194.367 307.777H193.131V300.904H194.367V304.851L196.144 302.806H197.627L195.605 305.055L197.892 307.777H196.37L194.367 305.361V307.777Z" fill="#1F4396"/>
<path d="M200.405 300.904H203.175C204.431 300.904 205.245 301.641 205.245 302.643C205.254 302.96 205.165 303.272 204.989 303.536C204.813 303.8 204.56 304.003 204.264 304.117C205.049 304.343 205.609 304.978 205.609 305.816C205.609 306.964 204.794 307.779 203.38 307.779H200.405V300.904ZM202.958 303.752C203.547 303.752 203.98 303.438 203.98 302.809C203.98 302.181 203.518 301.896 202.948 301.896H201.691V303.752H202.958ZM203.173 306.785C203.792 306.785 204.312 306.471 204.312 305.745C204.312 305.018 203.792 304.694 203.128 304.694H201.691V306.785H203.173Z" fill="#1F4396"/>
<path d="M205.997 305.294C205.997 303.772 206.811 302.672 208.197 302.672C208.514 302.662 208.828 302.739 209.105 302.894C209.382 303.05 209.611 303.279 209.767 303.555V302.809H210.974V307.777H209.767V307.03C209.609 307.306 209.379 307.534 209.102 307.69C208.824 307.845 208.51 307.923 208.192 307.914C206.807 307.914 205.992 306.815 205.992 305.294H205.997ZM208.49 306.908C209.305 306.908 209.747 306.25 209.747 305.294C209.747 304.337 209.305 303.679 208.49 303.679C207.676 303.679 207.234 304.337 207.234 305.294C207.234 306.25 207.685 306.904 208.49 306.904V306.908Z" fill="#1F4396"/>
<path d="M211.857 302.809H213.065V303.594C213.208 303.313 213.427 303.078 213.699 302.916C213.97 302.755 214.281 302.673 214.596 302.681C215.765 302.681 216.373 303.388 216.373 304.596V307.777H215.136V304.812C215.136 304.105 214.842 303.693 214.194 303.693C213.496 303.693 213.094 304.223 213.094 305.127V307.777H211.857V302.809Z" fill="#1F4396"/>
<path d="M218.475 307.777H217.238V300.904H218.475V304.851L220.252 302.806H221.735L219.709 305.058L222 307.777H220.478L218.475 305.361V307.777Z" fill="#1F4396"/>
<path d="M155.52 301.943L149.469 294L143.42 301.943C142.398 303.287 142 304.457 142 305.732C142 307.669 142.969 309.417 144.714 310.636L149.469 313.919L154.226 310.632C155.968 309.413 156.939 307.669 156.939 305.732C156.939 304.457 156.541 303.287 155.52 301.943ZM148.499 310.309V311.479L145.585 309.487C144.216 308.566 143.444 307.196 143.444 305.802C143.452 305.078 143.64 304.368 143.992 303.735C144.142 304.159 144.39 304.582 144.938 305.204L148.027 308.638C148.523 309.213 148.499 309.562 148.499 310.309ZM146.208 304.457C145.436 303.611 145.287 303.138 145.287 302.639C145.287 302.141 145.386 301.749 145.982 300.971L149.469 296.44L152.956 300.971C153.528 301.744 153.653 302.167 153.653 302.639C153.653 303.138 153.503 303.608 152.732 304.457L149.469 308.093L146.208 304.457ZM153.354 309.487L150.44 311.479V310.309C150.44 309.562 150.416 309.213 150.914 308.641L154.002 305.204C154.549 304.582 154.798 304.159 154.948 303.735C155.299 304.368 155.487 305.078 155.496 305.802C155.496 307.196 154.723 308.566 153.354 309.487Z" fill="#1F4396"/>
</g>
</svg>




