<svg xmlns="http://www.w3.org/2000/svg" xmlns:xlink="http://www.w3.org/1999/xlink" viewBox="128 189 108 108" width="100%" height="100%">
<defs>
<linearGradient id="paint0_linear_642_999" x1="282" y1="663.116" x2="362" y2="663.116" gradientUnits="userSpaceOnUse">
<stop stop-color="#FFCA06"/>
<stop offset="0.330844" stop-color="#FBAA18"/>
<stop offset="0.694742" stop-color="#FFC907"/>
<stop offset="1" stop-color="#FAA619"/>
</linearGradient>
<clipPath id="clip0_642_999">
<rect width="784" height="1774" rx="32" fill="white"/>
</clipPath>
<clipPath id="clip1_642_999">
<rect x="128" y="189" width="108" height="108" rx="8" fill="white"/>
</clipPath>
<clipPath id="clip2_642_999">

</clipPath>
<clipPath id="clip3_642_999">

</clipPath>
<clipPath id="clip4_642_999">

</clipPath>
<clipPath id="clip5_642_999">

</clipPath>
<clipPath id="clip6_642_999">

</clipPath>
<clipPath id="clip7_642_999">

</clipPath>
<clipPath id="clip8_642_999">
<rect width="49.2518" height="80" fill="white" transform="translate(437 203)"/>
</clipPath>
<clipPath id="clip9_642_999">

</clipPath>
<clipPath id="clip10_642_999">

</clipPath>
<clipPath id="clip11_642_999">
<rect x="128" y="189" width="108" height="108" rx="8" fill="white"/>
</clipPath>
</defs>
<g clip-path="url(#clip11_642_999)">

<path fill-rule="evenodd" clip-rule="evenodd" d="M142 239.135L148.749 247.649L142 253.241V239.135Z" fill="#F15A23"/>
<path fill-rule="evenodd" clip-rule="evenodd" d="M144.716 253.241L149.795 248.993L153.305 253.241H144.716Z" fill="#F15A23"/>
<path fill-rule="evenodd" clip-rule="evenodd" d="M142 234.58L143.761 236.808L151.003 245.856L153.349 243.988C153.349 243.988 151.401 241.694 150.093 239.135C147.536 234.132 149.346 231.016 149.346 231.016H142V234.58Z" fill="#F15A23"/>
<path fill-rule="evenodd" clip-rule="evenodd" d="M152.035 247.253L154.425 245.279C154.425 245.279 156.707 248.284 159.354 248.993C162.822 249.922 164.357 247.649 164.357 247.649V253.241H156.74L158.457 251.756C158.457 251.756 157.561 252.354 155.37 250.836C154.076 249.939 152.035 247.253 152.035 247.253Z" fill="#F15A23"/>
<path fill-rule="evenodd" clip-rule="evenodd" d="M152.255 231C152.255 231 151.492 232.039 152.035 234.58C152.615 237.296 154.922 240.17 154.917 240.106C154.917 240.106 155.065 237.252 156.74 235.577C160.31 232.006 164.357 234.132 164.357 234.132V231.016L152.255 231Z" fill="#F15A23"/>
<path fill-rule="evenodd" clip-rule="evenodd" d="M164.357 237.895C164.357 237.895 162.099 235.961 160.136 235.961C157.625 235.961 156.254 238.129 156.254 239.702C156.254 241.993 157.354 243.266 158.457 244.369C160.043 245.955 161.973 247.666 164.357 246.289C164.357 243.683 164.357 237.895 164.357 237.895Z" fill="#F15A23"/>
<path fill-rule="evenodd" clip-rule="evenodd" d="M190.072 231.233H195.4C195.4 231.233 200.12 238.38 202.44 241.333C204.759 244.285 207.256 247.649 207.256 247.649C207.256 247.649 207.256 237.896 207.256 232.834C207.256 232.194 205.576 231.233 205.576 231.233H211.72C211.72 231.233 209.704 232.061 209.704 232.834C209.704 239.135 209.704 254.386 209.704 254.386C209.704 254.386 207.77 253.313 205.576 250.764C203.112 247.9 194.344 236.338 194.344 236.338C194.344 236.338 194.344 247.253 194.344 251.314C194.344 252.081 196.024 253.241 196.024 253.241H190.072C190.072 253.241 191.704 252.072 191.704 251.314C191.704 245.856 191.704 237.896 191.704 232.834C191.704 232.153 190.072 231.233 190.072 231.233Z" fill="#005E6A"/>
<path fill-rule="evenodd" clip-rule="evenodd" d="M215.162 231.233H222C222 231.233 220.164 232.103 220.164 232.834C220.164 237.896 220.164 246.289 220.164 251.314C220.164 252.113 222 253.241 222 253.241H215.162C215.162 253.241 216.871 252.087 216.871 251.314C216.871 245.279 216.871 237.896 216.871 232.834C216.871 232.131 215.162 231.233 215.162 231.233Z" fill="#005E6A"/>
<path fill-rule="evenodd" clip-rule="evenodd" d="M169.953 231.233C169.953 231.233 171.726 232.117 171.726 232.834C171.726 237.896 171.726 245.279 171.726 251.314C171.726 252.1 169.953 253.241 169.953 253.241C169.953 253.241 178.81 253.241 180.084 253.241C180.717 253.241 187.808 252.082 187.808 246.614C187.808 241.147 182.3 240.635 182.3 240.635C182.3 240.635 185.655 239.702 185.655 235.961C185.655 231.929 180.717 231.233 180.084 231.233C178.768 231.233 169.953 231.233 169.953 231.233ZM175.335 240.273V233.392C175.335 233.392 178.271 233.392 179.45 233.392C180.084 233.392 182.3 234.132 182.3 236.874C182.3 239.135 180.084 240.273 179.45 240.273C178.015 240.273 175.335 240.273 175.335 240.273ZM175.335 242.077C175.335 242.077 179.45 242.077 180.084 242.077C180.717 242.077 184.452 243.048 184.452 246.289C184.452 249.593 180.717 250.764 180.084 250.764C179.45 250.764 175.335 250.764 175.335 250.764V242.077Z" fill="#005E6A"/>
</g>
</svg>




