<svg xmlns="http://www.w3.org/2000/svg" xmlns:xlink="http://www.w3.org/1999/xlink" viewBox="268 189 108 108" width="100%" height="100%">
<defs>
<linearGradient id="paint0_linear_642_999" x1="282" y1="663.116" x2="362" y2="663.116" gradientUnits="userSpaceOnUse">
<stop stop-color="#FFCA06"/>
<stop offset="0.330844" stop-color="#FBAA18"/>
<stop offset="0.694742" stop-color="#FFC907"/>
<stop offset="1" stop-color="#FAA619"/>
</linearGradient>
<clipPath id="clip0_642_999">
<rect width="784" height="1774" rx="32" fill="white"/>
</clipPath>
<clipPath id="clip1_642_999">
<rect x="268" y="189" width="108" height="108" rx="8" fill="white"/>
</clipPath>
<clipPath id="clip2_642_999">

</clipPath>
<clipPath id="clip3_642_999">

</clipPath>
<clipPath id="clip4_642_999">

</clipPath>
<clipPath id="clip5_642_999">

</clipPath>
<clipPath id="clip6_642_999">

</clipPath>
<clipPath id="clip7_642_999">

</clipPath>
<clipPath id="clip8_642_999">
<rect width="49.2518" height="80" fill="white" transform="translate(437 203)"/>
</clipPath>
<clipPath id="clip9_642_999">

</clipPath>
<clipPath id="clip10_642_999">
<rect x="268" y="189" width="108" height="108" rx="8" fill="white"/>
</clipPath>
<clipPath id="clip11_642_999">

</clipPath>
</defs>
<g clip-path="url(#clip10_642_999)">

<path d="M307.636 228H286.617C284.068 228 282 230.118 282 232.734V253.545C282 256.137 284.027 258.241 286.548 258.279L307.621 258.279C310.17 258.279 312.243 256.161 312.243 253.545L312.253 232.734C312.253 230.118 310.184 228 307.636 228ZM289.115 255.853L287.968 255.867C286.579 255.867 285.458 254.724 285.458 253.318L285.449 253.116V233.898L285.458 232.862C285.514 231.503 286.545 230.404 287.899 230.404H290.228C292.344 230.404 294.055 232.242 294.055 234.406C294.055 235.481 293.634 236.452 292.953 237.161L287.008 243.19L292.582 248.869C293.298 249.611 293.731 250.585 293.731 251.649C293.731 253.971 291.668 255.853 289.115 255.853ZM306.253 255.836L295.859 255.833C295.859 255.833 297.061 253.233 297.061 251.626C297.061 249.667 296.405 247.914 295.38 246.756L291.827 243.132L295.45 239.386C296.535 238.367 297.251 236.565 297.251 234.514C297.251 232.889 296.802 231.45 296.075 230.404H298.595C300.709 230.404 302.421 232.242 302.421 234.406C302.421 235.481 302.002 236.452 301.323 237.161L295.488 243.129L307.603 255.484C307.217 255.726 306.734 255.836 306.253 255.836ZM308.788 251.977L300.105 243.127L304.24 238.926C305.083 237.871 305.619 236.286 305.619 234.514C305.619 232.88 305.162 231.402 304.432 230.357L306.281 230.415C307.667 230.415 308.795 231.555 308.795 232.964L308.788 251.977Z" fill="#00529C"/>
<path d="M330.883 241.718C331.052 241.549 331.252 241.331 331.483 241.065C331.712 240.798 331.93 240.484 332.136 240.12C332.342 239.757 332.517 239.352 332.662 238.904C332.808 238.456 332.881 237.978 332.881 237.47C332.881 236.478 332.711 235.552 332.372 234.693C332.033 233.834 331.513 233.083 330.811 232.441C330.109 231.8 329.232 231.298 328.178 230.934C327.126 230.572 325.897 230.39 324.493 230.39H324.455H320.42H319.37H315.235V235.018V251.04V255.805H325.401C326.877 255.805 328.166 255.605 329.268 255.206C330.369 254.807 331.283 254.256 332.009 253.554C332.735 252.852 333.273 252.035 333.625 251.104C333.975 250.172 334.151 249.173 334.151 248.108C334.151 246.68 333.824 245.41 333.171 244.295C332.517 243.183 331.754 242.323 330.883 241.718ZM326.388 235.047C326.73 235.177 327.016 235.347 327.239 235.561C327.817 236.115 328.107 236.778 328.107 237.549C328.107 238.249 327.986 238.827 327.745 239.285C327.504 239.743 327.263 240.093 327.022 240.333H319.955V234.747H324.348C325.171 234.747 325.849 234.848 326.388 235.047ZM325.655 244.732C326.934 244.732 327.882 245.063 328.5 245.725C329.08 246.376 329.372 247.145 329.372 248.035C329.372 248.951 329.041 249.734 328.378 250.385C327.715 251.036 326.625 251.362 325.106 251.362H324.538H319.955V244.732H325.655Z" fill="#00529C"/>
<path d="M351.387 244.859C352.149 244.338 352.785 243.733 353.293 243.043C353.802 242.353 354.176 241.591 354.419 240.756C354.661 239.921 354.782 239.068 354.782 238.196C354.782 237.058 354.594 236.012 354.219 235.055C353.843 234.1 353.281 233.277 352.531 232.587C351.78 231.897 350.842 231.358 349.717 230.971C348.591 230.584 347.29 230.39 345.814 230.39H345.681H335.902H335.811V255.805H340.622V246.365H343.305L349.941 255.805H355.58L348.719 246.039C349.735 245.773 350.624 245.379 351.387 244.859ZM345.85 234.747C346.153 234.747 346.438 234.767 346.71 234.801C347.568 234.93 348.269 235.236 348.809 235.723C349.544 236.387 349.912 237.2 349.912 238.163C349.912 238.647 349.833 239.116 349.676 239.574C349.519 240.032 349.273 240.436 348.935 240.785C348.597 241.135 348.164 241.418 347.634 241.635C347.103 241.852 346.464 241.96 345.717 241.96H340.622V234.747H345.85Z" fill="#00529C"/>
<path d="M357.28 230.39V230.397C357.231 230.396 357.184 230.39 357.135 230.39H357.094V230.392V239.708V246.383V255.805H362V230.39H357.28Z" fill="#00529C"/>
</g>
</svg>




