<svg xmlns="http://www.w3.org/2000/svg" xmlns:xlink="http://www.w3.org/1999/xlink" viewBox="268 393 108 108" width="100%" height="100%">
<defs>
<linearGradient id="paint0_linear_642_999" x1="282" y1="663.116" x2="362" y2="663.116" gradientUnits="userSpaceOnUse">
<stop stop-color="#FFCA06"/>
<stop offset="0.330844" stop-color="#FBAA18"/>
<stop offset="0.694742" stop-color="#FFC907"/>
<stop offset="1" stop-color="#FAA619"/>
</linearGradient>
<clipPath id="clip0_642_999">
<rect width="784" height="1774" rx="32" fill="white"/>
</clipPath>
<clipPath id="clip1_642_999">
<rect x="268" y="393" width="108" height="108" rx="8" fill="white"/>
</clipPath>
<clipPath id="clip2_642_999">

</clipPath>
<clipPath id="clip3_642_999">

</clipPath>
<clipPath id="clip4_642_999">

</clipPath>
<clipPath id="clip5_642_999">
<rect x="268" y="393" width="108" height="108" rx="8" fill="white"/>
</clipPath>
<clipPath id="clip6_642_999">

</clipPath>
<clipPath id="clip7_642_999">

</clipPath>
<clipPath id="clip8_642_999">
<rect width="49.2518" height="80" fill="white" transform="translate(437 203)"/>
</clipPath>
<clipPath id="clip9_642_999">

</clipPath>
<clipPath id="clip10_642_999">

</clipPath>
<clipPath id="clip11_642_999">

</clipPath>
</defs>
<g clip-path="url(#clip5_642_999)">

<path d="M282.092 449.489C282.288 449.448 282.435 449.394 282.529 449.329C282.743 449.177 282.895 448.888 282.987 448.46L284.425 441.768C284.465 441.569 284.494 441.404 284.51 441.273C284.527 441.142 284.534 441.04 284.529 440.966C284.513 440.7 284.427 440.532 284.274 440.463C284.218 440.44 284.152 440.416 284.066 440.397L284.168 439.932H287.445C288.563 439.932 289.44 440.108 290.073 440.463C290.712 440.814 291.055 441.38 291.103 442.168C291.149 442.93 290.807 443.539 290.074 443.994C289.681 444.242 289.147 444.449 288.469 444.615C289.111 444.839 289.569 445.063 289.846 445.284C290.311 445.659 290.563 446.173 290.6 446.821C290.653 447.643 290.354 448.366 289.716 448.985C289.076 449.602 287.965 449.911 286.381 449.911H282L282.092 449.489ZM285.495 449.386C285.617 449.426 285.81 449.446 286.067 449.446C287.016 449.446 287.672 449.007 288.035 448.134C288.248 447.616 288.341 447.074 288.308 446.515C288.268 445.83 288.001 445.37 287.514 445.133C287.224 444.991 286.704 444.904 285.954 444.871L285.189 448.513C285.173 448.571 285.158 448.637 285.147 448.716C285.142 448.79 285.142 448.874 285.149 448.973C285.162 449.176 285.276 449.313 285.495 449.386ZM287.536 444.251C287.806 444.188 288.049 444.054 288.263 443.849C288.537 443.593 288.722 443.235 288.82 442.78C288.882 442.483 288.909 442.19 288.89 441.9C288.862 441.461 288.749 441.108 288.549 440.835C288.348 440.559 287.974 440.419 287.432 440.419C287.201 440.419 287.045 440.474 286.957 440.579C286.875 440.688 286.815 440.853 286.768 441.075L286.051 444.425C286.775 444.369 287.271 444.309 287.536 444.251Z" fill="#0069AB"/>
<path d="M292.303 444.797C293.148 443.618 294.038 443.03 294.971 443.03C295.353 443.03 295.636 443.141 295.828 443.362C295.941 443.498 296.049 443.727 296.149 444.047L296.73 443.223H298.028L297.138 446.634C297.013 447.13 296.924 447.507 296.875 447.77C296.769 448.27 296.72 448.625 296.731 448.839C296.736 448.928 296.758 448.99 296.8 449.023C296.841 449.057 296.883 449.073 296.931 449.073C297.021 449.073 297.102 449.042 297.181 448.978C297.262 448.91 297.352 448.818 297.444 448.694L297.51 448.616C297.613 448.683 297.746 448.777 297.859 448.856C297.63 449.167 297.407 449.424 297.186 449.634C296.841 449.97 296.476 450.137 296.104 450.137C295.874 450.137 295.648 450.052 295.425 449.883C295.202 449.712 295.082 449.464 295.066 449.131C295.061 449.008 295.109 448.706 295.208 448.225L295.157 448.309C295.109 448.396 295.029 448.525 294.922 448.694C294.677 449.093 294.383 449.431 294.036 449.709C293.696 449.984 293.307 450.122 292.872 450.122C292.473 450.122 292.101 449.975 291.745 449.677C291.39 449.382 291.193 448.879 291.157 448.168C291.102 447.072 291.485 445.949 292.303 444.797ZM295.72 443.988C295.619 443.765 295.44 443.656 295.188 443.656C294.646 443.656 294.123 444.293 293.62 445.569C293.174 446.703 292.968 447.568 292.999 448.168C293.01 448.408 293.078 448.613 293.203 448.789C293.334 448.964 293.496 449.052 293.689 449.052C294.188 449.057 294.716 448.401 295.277 447.085C295.67 445.982 295.849 445.107 295.817 444.463C295.808 444.268 295.777 444.109 295.72 443.988Z" fill="#0069AB"/>
<path d="M298.156 449.911L299.316 444.888C299.36 444.696 299.39 444.54 299.411 444.429C299.449 444.222 299.467 444.076 299.464 443.993C299.452 443.813 299.39 443.702 299.277 443.657C299.217 443.636 299.126 443.616 299.007 443.602L299.076 443.223H301.484L300.75 445.804L300.789 445.824C300.766 445.849 300.899 445.628 301.194 445.162C301.486 444.692 301.768 444.31 302.038 444.018C302.309 443.721 302.592 443.487 302.888 443.311C303.193 443.133 303.511 443.041 303.855 443.041C304.168 443.041 304.442 443.133 304.668 443.311C304.901 443.491 305.027 443.784 305.05 444.195C305.069 444.573 304.889 445.406 304.517 446.698C304.138 447.987 303.952 448.675 303.959 448.767C303.961 448.856 303.992 448.923 304.048 448.973C304.104 449.014 304.158 449.038 304.212 449.038C304.333 449.038 304.497 448.899 304.712 448.621L305.066 448.847C304.912 449.076 304.772 449.257 304.645 449.394C304.221 449.846 303.758 450.072 303.256 450.072C302.988 450.072 302.745 449.992 302.522 449.839C302.305 449.683 302.188 449.437 302.171 449.102C302.161 448.889 302.197 448.577 302.277 448.169C302.36 447.762 302.463 447.344 302.588 446.909L303.222 444.68L303.25 444.543C303.256 444.504 303.26 444.464 303.26 444.425C303.253 444.315 303.211 444.236 303.129 444.195C303.055 444.15 302.973 444.128 302.884 444.128C302.58 444.128 302.25 444.364 301.899 444.841C301.548 445.313 301.265 445.782 301.05 446.255C300.817 446.764 300.63 447.281 300.48 447.805C300.332 448.331 300.157 449.032 299.956 449.911H298.156Z" fill="#0069AB"/>
<path d="M305.357 449.911C305.357 449.911 307.307 441.161 307.322 441.067C307.337 440.976 307.343 440.887 307.339 440.798C307.327 440.576 307.25 440.44 307.106 440.39C307.037 440.368 306.948 440.351 306.832 440.34L306.921 439.936H309.356L307.958 446.305C308.5 445.897 308.974 445.51 309.374 445.148C309.991 444.58 310.297 444.183 310.284 443.959C310.277 443.799 310.199 443.7 310.052 443.659C309.986 443.644 309.916 443.627 309.835 443.616L309.921 443.217L312.114 443.241L311.969 443.747C311.573 443.761 311.599 443.796 310.629 444.717C310.629 444.717 309.907 445.399 309.812 445.483L309.739 445.55C309.752 445.59 309.812 445.844 309.921 446.311C310.049 446.852 310.147 447.219 310.209 447.412C310.428 448.062 310.585 448.488 310.683 448.686C310.784 448.881 310.924 448.978 311.097 448.978C311.275 448.978 311.433 448.883 311.58 448.693C311.595 448.674 311.614 448.648 311.633 448.62L311.947 448.856C311.808 449.086 311.658 449.301 311.496 449.495C311.188 449.864 310.816 450.049 310.384 450.049C310.056 450.049 309.775 449.938 309.544 449.722C309.315 449.504 309.119 449.212 308.961 448.847C308.791 448.464 308.644 448.023 308.52 447.523C308.405 447.022 308.343 446.75 308.341 446.707L307.78 447.114L307.177 449.911H305.357Z" fill="#0069AB"/>
<path d="M336.045 442.214H337.623C338.169 442.214 338.574 442.326 338.574 442.927C338.574 443.543 337.959 443.723 337.472 443.723H335.737L336.045 442.214ZM331.479 449.799H337.204C339.387 449.799 341.314 448.847 341.314 446.442C341.314 445.521 340.729 444.638 339.804 444.442V444.416H339.818C341.022 444.096 341.65 443.269 341.65 442.012C341.65 440.57 340.839 439.816 338.672 439.816H333.548L331.479 449.799ZM335.359 445.584H337.049C337.693 445.584 338.241 445.695 338.241 446.439C338.241 447.248 337.486 447.442 336.938 447.442H334.966L335.359 445.584Z" fill="#0069AB"/>
<path d="M343.936 449.799H347.009L348.548 442.373H351.316L351.85 439.816H343.236L342.705 442.373H345.473L343.936 449.799Z" fill="#0069AB"/>
<path d="M350.868 449.799H353.789L354.949 444.207H354.977L356.808 449.799H359.828L361.926 439.816H359.002L357.884 445.269H357.858L355.984 439.816H352.935L350.868 449.799Z" fill="#0069AB"/>
<path d="M330.341 456.685C330.433 456.345 330.395 456.347 330.623 455.431C330.786 454.527 331.781 453.144 333.535 453.002C334.133 452.93 357.093 451.955 362 451.611L361.853 452.46C357.23 453.057 336.315 455.893 330.341 456.685Z" fill="#E31C24"/>
<path d="M320.302 449.801V451.614L321.874 450.706L323.447 451.614V449.801L321.874 448.891L320.302 449.801Z" fill="#A68561"/>
<path d="M326.59 449.801V447.983L321.874 445.26L317.16 447.983V449.801L321.874 447.075L326.59 449.801Z" fill="#A68561"/>
<path d="M315.587 441.631L321.874 438L328.163 441.631V448.892L326.59 449.801L326.591 442.54L321.874 439.816L317.16 442.54L317.16 449.801L315.587 448.892V441.631Z" fill="#0069AB"/>
<path d="M321.874 441.631L325.018 443.447V450.706L323.447 451.614L323.447 444.353L321.874 443.447L320.303 444.353V451.613L318.732 450.706V443.447L321.874 441.631Z" fill="#0069AB"/>
</g>
</svg>




