<svg xmlns="http://www.w3.org/2000/svg" xmlns:xlink="http://www.w3.org/1999/xlink" viewBox="548 394 108 108" width="100%" height="100%">
<defs>
<linearGradient id="paint0_linear_642_999" x1="282" y1="663.116" x2="362" y2="663.116" gradientUnits="userSpaceOnUse">
<stop stop-color="#FFCA06"/>
<stop offset="0.330844" stop-color="#FBAA18"/>
<stop offset="0.694742" stop-color="#FFC907"/>
<stop offset="1" stop-color="#FAA619"/>
</linearGradient>
<clipPath id="clip0_642_999">
<rect width="784" height="1774" rx="32" fill="white"/>
</clipPath>
<clipPath id="clip1_642_999">
<rect x="548" y="394" width="108" height="108" rx="8" fill="white"/>
</clipPath>
<clipPath id="clip2_642_999">
<rect x="548" y="394" width="108" height="108" rx="8" fill="white"/>
</clipPath>
<clipPath id="clip3_642_999">

</clipPath>
<clipPath id="clip4_642_999">

</clipPath>
<clipPath id="clip5_642_999">

</clipPath>
<clipPath id="clip6_642_999">

</clipPath>
<clipPath id="clip7_642_999">

</clipPath>
<clipPath id="clip8_642_999">
<rect width="49.2518" height="80" fill="white" transform="translate(437 203)"/>
</clipPath>
<clipPath id="clip9_642_999">

</clipPath>
<clipPath id="clip10_642_999">

</clipPath>
<clipPath id="clip11_642_999">

</clipPath>
</defs>
<g clip-path="url(#clip2_642_999)">

<path d="M577.328 445.642H578.638C579.142 445.642 579.571 445.728 579.571 446.297C579.571 446.93 578.981 447.08 578.552 447.08H577.028L577.328 445.642ZM574.323 448.905H578.766C580.452 448.905 581.954 448.164 581.954 446.307C581.954 445.588 581.493 444.901 580.774 444.751V444.73H580.784C581.718 444.483 582.212 443.839 582.212 442.873C582.212 441.746 581.579 441.166 579.904 441.166H575.933L574.323 448.905ZM577.865 443.023H579.088C579.507 443.023 579.829 443.109 579.829 443.581C579.829 444.053 579.346 444.193 578.97 444.193H577.629L577.865 443.023Z" fill="#0069AC"/>
<path d="M583.983 448.905H586.366L587.557 443.152H589.704L590.112 441.166H583.436L583.028 443.152H585.175L583.983 448.905Z" fill="#0069AC"/>
<path d="M589.35 448.905H591.615L592.517 444.569H592.538L593.955 448.905H596.306L597.926 441.166H595.662L594.792 445.395H594.771L593.322 441.166H590.96L589.35 448.905Z" fill="#0069AC"/>
<path d="M573.442 454.24C573.518 453.982 573.485 453.982 573.657 453.274C573.786 452.565 574.559 451.503 575.922 451.385C576.383 451.331 594.18 450.58 597.98 450.311L597.873 450.966C594.288 451.428 578.069 453.628 573.442 454.24Z" fill="#E21C23"/>
<path d="M565.66 448.905V450.311L566.873 449.603L568.097 450.311V448.905L566.873 448.197L565.66 448.905Z" fill="#A58560"/>
<path d="M570.533 448.905V447.499L566.873 445.384L563.224 447.499V448.905L566.873 446.79L570.533 448.905Z" fill="#A58560"/>
<path d="M562 442.572L566.873 439.76L571.757 442.572V448.197L570.533 448.905V443.28L566.873 441.166L563.224 443.28V448.905L562 448.197V442.572Z" fill="#0069AC"/>
<path d="M566.873 442.572L569.321 443.978V449.603L568.097 450.311V444.687L566.873 443.978L565.66 444.687V450.311L564.447 449.603V443.978L566.873 442.572Z" fill="#0069AC"/>
<path fill-rule="evenodd" clip-rule="evenodd" d="M642 450.859H640.283V445.62H638.469V448.519H630.139V446.887C630.139 446.887 630.901 444.161 635.366 444.236V446.919H636.773V441.134H638.447V443.839H641.968L642 450.859ZM632.876 442.969L633.778 442.068L634.679 442.969L633.778 443.871L632.876 442.969ZM630.354 442.969L631.255 442.068L632.146 442.969L631.255 443.871L630.354 442.969ZM626.972 442.969L627.863 442.068L628.765 442.969L627.863 443.871L626.972 442.969ZM633.692 446.909L631.824 446.887C631.824 446.887 632.125 445.932 633.681 445.642L633.692 446.909ZM628.797 444.214H627.112V446.951H623.903V445.61C623.903 445.61 624.858 445.524 625.513 445.052V444.214H622.217V446.941H620.779V444.225C620.779 444.225 616.657 443.796 615.777 446.941V448.497H628.765L628.797 444.214ZM619.115 446.909L617.323 446.887C617.323 446.887 617.655 445.771 619.105 445.556L619.115 446.909ZM618.385 442.969L619.287 442.068L620.189 442.969L619.287 443.871L618.385 442.969ZM615.874 442.969L616.775 442.068L617.666 442.969L616.775 443.871L615.874 442.969ZM638.361 449.463H615.766V450.816H638.361V449.463ZM614.757 444.247H613.136V446.898H611.215V444.225H609.498V448.465H613.201V450.719H614.757V444.247ZM612.106 449.463H601.351V450.816H612.106V449.463ZM608.553 441.059L608.542 442.669C608.542 442.669 605.451 442.229 604.41 444.096L604.367 444.193H608.51V448.422H601.329V446.919H606.814V445.47H602.188V444.118C602.188 444.118 603.132 440.64 608.553 441.059Z" fill="#B38767"/>
</g>
</svg>




