<svg xmlns="http://www.w3.org/2000/svg" xmlns:xlink="http://www.w3.org/1999/xlink" viewBox="408 454 108 108" width="100%" height="100%">
<defs>
<clipPath id="clip0_642_1000">
<rect width="784" height="1774" rx="32" fill="white"/>
</clipPath>
<clipPath id="clip1_642_1000">
<rect x="408" y="454" width="108" height="108" rx="8" fill="white"/>
</clipPath>
<clipPath id="clip2_642_1000">

</clipPath>
<clipPath id="clip3_642_1000">

</clipPath>
<clipPath id="clip4_642_1000">
<rect width="80" height="18.784" fill="white" transform="translate(422 703)"/>
</clipPath>
<clipPath id="clip5_642_1000">

</clipPath>
<clipPath id="clip6_642_1000">

</clipPath>
<clipPath id="clip7_642_1000">

</clipPath>
<clipPath id="clip8_642_1000">
<rect x="408" y="454" width="108" height="108" rx="8" fill="white"/>
</clipPath>
<clipPath id="clip9_642_1000">

</clipPath>
<clipPath id="clip10_642_1000">

</clipPath>
<clipPath id="clip11_642_1000">

</clipPath>
<clipPath id="clip12_642_1000">

</clipPath>
<clipPath id="clip13_642_1000">

</clipPath>
<clipPath id="clip14_642_1000">

</clipPath>
</defs>
<g clip-path="url(#clip8_642_1000)">

<path fill-rule="evenodd" clip-rule="evenodd" d="M431.841 514.78L431.783 514.837C430.851 515.787 429.772 516.29 428.661 516.29C426.342 516.29 424.658 514.549 424.658 512.148C424.658 509.751 426.342 508.01 428.661 508.01C429.772 508.01 430.851 508.514 431.783 509.465L431.841 509.524L433.332 507.719L433.292 507.671C432.053 506.204 430.564 505.492 428.734 505.492C426.898 505.492 425.219 506.11 424.009 507.224C422.694 508.432 422 510.133 422 512.148C422 514.164 422.694 515.87 424.009 517.077C425.219 518.197 426.898 518.811 428.734 518.811C430.564 518.811 432.053 518.098 433.292 516.631L433.332 516.586L431.841 514.78ZM434.84 518.564H437.475V505.7H434.84V518.564ZM447.799 515.767C447.095 516.195 446.441 516.411 445.852 516.411C445.001 516.411 444.616 515.962 444.616 514.961V508.134H447.301V505.711H444.616V501.708L442.033 503.091V505.711H439.805V508.134H442.033V515.397C442.033 517.374 443.205 518.725 444.956 518.762C446.143 518.785 446.859 518.431 447.293 518.172L447.32 518.154L447.954 515.673L447.799 515.767ZM449.98 518.564H452.618V505.7H449.98V518.564Z" fill="#1C4882"/>
<path fill-rule="evenodd" clip-rule="evenodd" d="M454.155 503.444C451.747 500.034 447.749 498 443.682 498C439.615 498 435.616 500.034 433.213 503.444L433.089 503.619H436.121L436.154 503.582C438.218 501.455 440.912 500.328 443.682 500.328C446.452 500.328 449.144 501.455 451.212 503.582L451.247 503.619H454.276L454.155 503.444Z" fill="#CC2131"/>
<path fill-rule="evenodd" clip-rule="evenodd" d="M457.651 508.757L457.615 508.804V515.459L457.641 515.5C458.471 516.784 459.824 517.552 461.261 517.552C463.483 517.552 464.61 515.679 464.61 511.987C464.61 508.687 463.362 506.798 461.187 506.798C459.867 506.797 458.677 507.457 457.651 508.757ZM502 518.519V518.564H500.408C500.317 518.381 497.072 511.51 497.072 511.51L494.649 514.906V518.565H493.146V501.664C493.277 501.589 494.294 501.005 494.649 500.806V513.077L495.472 511.8C495.469 511.804 499.158 506.463 499.63 505.783H501.277C500.927 506.251 498.027 510.243 498.027 510.243C498.027 510.243 501.624 517.745 502 518.519ZM472.022 518.833H471.384C470.088 518.758 467.755 518.157 467.755 514.809C467.755 511.835 470.21 510.779 472.509 510.779C473.666 510.779 474.806 511.045 475.633 511.51L475.882 511.646V509.812C475.882 507.777 474.888 506.747 472.924 506.747C471.713 506.747 470.62 507.051 469.501 507.684C469.4 507.457 469.053 506.687 468.957 506.47C470.128 505.851 471.574 505.506 473.047 505.506C475.966 505.506 477.386 506.839 477.386 509.587V518.564H475.882V516.7L475.59 517.023C474.562 518.155 473.394 518.752 472.022 518.833ZM461.685 518.833H461.09C459.845 518.756 458.828 518.216 457.907 517.15L457.615 516.808V518.564H456.114V501.664C456.241 501.589 457.262 501.005 457.615 500.805V507.644L457.905 507.325C459.014 506.101 460.24 505.506 461.65 505.506C464.471 505.506 466.091 507.857 466.091 511.96C466.091 516.001 464.37 518.661 461.685 518.833ZM469.229 514.685C469.229 516.597 470.219 517.648 472.018 517.648C473.55 517.648 474.909 516.925 475.853 515.609L475.882 515.564V512.762L475.797 512.713C474.837 512.166 473.856 511.944 472.41 511.944C470.42 511.945 469.229 512.969 469.229 514.685ZM482.293 507.305C483.069 506.146 484.285 505.506 485.708 505.506C488.543 505.506 490.047 507.315 490.047 510.738V518.564H488.539V511.062C488.539 508.15 487.527 506.797 485.338 506.797C483.241 506.797 481.988 508.393 481.988 511.062V518.564H480.485V505.783H481.988V507.764L482.293 507.305Z" fill="#1C4882"/>
</g>
</svg>




