<svg xmlns="http://www.w3.org/2000/svg" xmlns:xlink="http://www.w3.org/1999/xlink" viewBox="548 454 108 108" width="100%" height="100%">
<defs>
<clipPath id="clip0_642_1000">
<rect width="784" height="1774" rx="32" fill="white"/>
</clipPath>
<clipPath id="clip1_642_1000">
<rect x="548" y="454" width="108" height="108" rx="8" fill="white"/>
</clipPath>
<clipPath id="clip2_642_1000">

</clipPath>
<clipPath id="clip3_642_1000">

</clipPath>
<clipPath id="clip4_642_1000">
<rect width="80" height="18.784" fill="white" transform="translate(422 703)"/>
</clipPath>
<clipPath id="clip5_642_1000">

</clipPath>
<clipPath id="clip6_642_1000">

</clipPath>
<clipPath id="clip7_642_1000">
<rect x="548" y="454" width="108" height="108" rx="8" fill="white"/>
</clipPath>
<clipPath id="clip8_642_1000">

</clipPath>
<clipPath id="clip9_642_1000">

</clipPath>
<clipPath id="clip10_642_1000">

</clipPath>
<clipPath id="clip11_642_1000">

</clipPath>
<clipPath id="clip12_642_1000">

</clipPath>
<clipPath id="clip13_642_1000">

</clipPath>
<clipPath id="clip14_642_1000">

</clipPath>
</defs>
<g clip-path="url(#clip7_642_1000)">

<path fill-rule="evenodd" clip-rule="evenodd" d="M589.586 506.177V507.334L589.74 507.322V507.31C589.769 507.139 590.076 506.814 590.46 506.814C590.46 506.814 591.564 506.814 591.606 506.814C591.606 506.873 591.606 512.795 591.606 512.795H592.739C592.739 512.795 592.739 506.873 592.739 506.832C592.798 506.832 593.914 506.832 593.914 506.832C594.31 506.832 594.564 507.044 594.605 507.239V507.269H594.776L594.764 506.206H594.753V506.177H589.586Z" fill="#183964"/>
<path fill-rule="evenodd" clip-rule="evenodd" d="M568.992 506.177H568.962V506.33L568.974 506.342C569.075 506.401 569.175 506.637 569.175 506.938V512.789H570.279C570.279 512.789 570.279 509.837 570.279 509.778C570.338 509.778 570.775 509.778 570.775 509.778C571.212 509.808 571.383 510.091 571.596 510.457L571.625 510.499L571.767 510.723C572.009 511.118 572.334 511.656 572.659 512.164C572.901 512.518 573.196 512.73 573.58 512.784C573.845 512.825 574.383 512.813 574.595 512.754L574.837 512.695L574.938 512.665L574.601 512.565C574.459 512.524 574.247 512.423 573.963 512.099C573.78 511.898 573.497 511.431 573.06 510.758L572.635 510.079L572.623 510.068C572.511 509.896 572.31 509.631 571.985 509.459C572.605 509.259 573.214 508.698 573.214 507.847C573.214 507.605 573.154 507.157 572.747 506.761C572.34 506.365 571.684 506.165 570.81 506.165H569.004L568.992 506.177ZM570.887 506.773C572.021 506.814 572.044 507.777 572.044 507.877C572.044 508.839 571.336 509.176 570.716 509.176C570.716 509.176 570.32 509.164 570.279 509.164C570.279 509.105 570.279 506.832 570.279 506.773C570.409 506.773 570.616 506.761 570.887 506.773Z" fill="#183964"/>
<path fill-rule="evenodd" clip-rule="evenodd" d="M580.299 506.177H580.269L580.281 506.348H580.293C580.393 506.389 580.476 506.631 580.476 506.826V512.778H582.371C583.617 512.778 584.662 512.394 585.371 511.662C585.967 511.054 586.292 510.221 586.292 509.371C586.292 508.863 586.12 508.084 585.624 507.446C584.975 506.596 583.942 506.159 582.542 506.159L580.293 506.171L580.299 506.177ZM581.615 506.814C581.674 506.814 582.212 506.814 582.212 506.814C582.365 506.814 582.761 506.826 583.044 506.873C584.91 507.157 585.111 508.727 585.111 509.377C585.111 509.914 585.01 510.693 584.544 511.284C584.089 511.862 583.387 512.158 582.424 512.158C582.2 512.158 581.917 512.158 581.604 512.146C581.615 512.105 581.615 506.873 581.615 506.814Z" fill="#183964"/>
<path fill-rule="evenodd" clip-rule="evenodd" d="M588.582 506.177H587.284V506.33L587.295 506.342C587.408 506.401 587.496 506.608 587.496 506.891V512.783H588.6V506.182L588.588 506.171L588.582 506.177Z" fill="#183964"/>
<path fill-rule="evenodd" clip-rule="evenodd" d="M578.87 506.177H575.15L575.162 506.33H575.174C575.274 506.389 575.386 506.613 575.386 506.926V512.778H579.088L579.36 511.603L579.206 511.544L579.165 511.614C578.852 512.093 578.545 512.152 577.471 512.152C577.087 512.164 576.709 512.122 576.479 512.11C576.479 512.069 576.479 509.465 576.479 509.412C576.538 509.412 578.356 509.412 578.356 509.412V508.816C578.356 508.816 576.532 508.816 576.479 508.816C576.479 508.757 576.479 506.808 576.479 506.767C576.538 506.767 578.008 506.779 578.008 506.779C578.344 506.779 578.728 507.104 578.758 507.304V507.334H578.911L578.87 506.177Z" fill="#183964"/>
<path fill-rule="evenodd" clip-rule="evenodd" d="M609.874 506.177H608.575L608.586 506.33H608.598C608.71 506.389 608.799 506.613 608.799 506.897V512.789H609.903V506.188L609.874 506.177Z" fill="#183964"/>
<path fill-rule="evenodd" clip-rule="evenodd" d="M625.307 506.177H621.605L621.617 506.348H621.629C621.729 506.407 621.842 506.619 621.842 506.926V512.778H625.544L625.809 511.603L625.638 511.544L625.597 511.614C625.284 512.093 624.977 512.152 623.914 512.152C623.53 512.164 623.152 512.122 622.922 512.11C622.922 512.069 622.922 509.465 622.922 509.412C622.981 509.412 624.8 509.412 624.8 509.412V508.816C624.8 508.816 622.975 508.816 622.922 508.816C622.922 508.757 622.922 506.808 622.922 506.767C622.981 506.767 624.451 506.779 624.451 506.779C624.876 506.779 625.189 507.092 625.189 507.304V507.334L625.361 507.322L625.331 506.165L625.302 506.177H625.307Z" fill="#183964"/>
<path fill-rule="evenodd" clip-rule="evenodd" d="M611.668 507.847C611.657 508.769 612.206 509.217 613.109 509.672L613.446 509.843C614.154 510.197 614.621 510.422 614.621 511.089C614.621 511.201 614.591 511.597 614.296 511.91C614.083 512.122 613.788 512.223 613.422 512.223C612.359 512.211 611.981 511.39 611.84 510.906L611.81 510.823L611.586 510.865L611.645 512.252L611.704 512.282C612.058 512.482 612.649 512.819 613.487 512.831C614.095 512.831 614.703 512.589 615.111 512.181C615.477 511.815 615.677 511.361 615.677 510.853C615.677 509.696 614.875 509.282 614.024 508.833L613.871 508.751C612.95 508.296 612.643 508.084 612.643 507.576C612.643 507.222 612.908 506.684 613.646 506.702C614.538 506.714 614.916 507.352 615.004 507.694L615.034 507.794L615.258 507.765L615.176 506.549L615.134 506.519C614.627 506.182 613.989 506.135 613.735 506.135C612.743 506.123 611.698 506.732 611.686 507.859L611.668 507.847Z" fill="#183964"/>
<path fill-rule="evenodd" clip-rule="evenodd" d="M597.138 507.847C597.126 508.769 597.675 509.217 598.579 509.672L598.915 509.843C599.624 510.197 600.09 510.422 600.09 511.089C600.09 511.201 600.061 511.597 599.765 511.91C599.553 512.122 599.258 512.223 598.891 512.223C597.829 512.211 597.451 511.39 597.309 510.906L597.28 510.823L597.055 510.865L597.114 512.252L597.173 512.282C597.528 512.482 598.118 512.819 598.956 512.831C599.565 512.831 600.173 512.589 600.58 512.181C600.946 511.815 601.147 511.361 601.147 510.853C601.147 509.696 600.344 509.282 599.494 508.834L599.34 508.751C598.419 508.296 598.112 508.084 598.112 507.576C598.112 507.222 598.378 506.684 599.116 506.702C600.007 506.714 600.385 507.352 600.474 507.694L600.503 507.794L600.728 507.765L600.657 506.56L600.616 506.531C600.108 506.194 599.47 506.147 599.216 506.147C598.224 506.118 597.167 506.726 597.15 507.859L597.138 507.847Z" fill="#183964"/>
<path fill-rule="evenodd" clip-rule="evenodd" d="M616.628 507.847C616.616 508.769 617.165 509.217 618.069 509.672L618.405 509.843C619.114 510.197 619.58 510.422 619.58 511.089C619.58 511.201 619.551 511.597 619.256 511.91C619.043 512.122 618.748 512.223 618.382 512.223C617.319 512.211 616.941 511.39 616.799 510.906L616.77 510.823L616.545 510.865L616.605 512.252L616.664 512.282C617.018 512.482 617.608 512.819 618.447 512.831C619.055 512.831 619.663 512.589 620.07 512.181C620.436 511.815 620.637 511.361 620.637 510.853C620.637 509.696 619.834 509.282 618.984 508.834L618.83 508.751C617.909 508.296 617.602 508.084 617.602 507.576C617.602 507.352 617.703 507.121 617.868 506.956C618.051 506.785 618.305 506.69 618.606 506.69C619.498 506.702 619.876 507.34 619.964 507.682L619.994 507.765L620.218 507.735L620.147 506.531L620.106 506.501C619.598 506.165 618.96 506.118 618.706 506.118C617.715 506.118 616.658 506.726 616.64 507.853L616.628 507.847Z" fill="#183964"/>
<path fill-rule="evenodd" clip-rule="evenodd" d="M607.116 506.182H606.242L606.254 506.336H606.266C606.307 506.365 606.449 506.466 606.449 506.873V510.617C606.449 511.337 606.177 512.217 604.908 512.217C603.704 512.217 603.45 511.496 603.45 510.422V506.165H602.062L602.074 506.306H602.086C602.168 506.348 602.328 506.531 602.328 506.885V510.404C602.328 512.595 603.768 512.837 604.861 512.837C605.398 512.837 607.122 512.683 607.122 510.617V506.147L607.11 506.177L607.116 506.182Z" fill="#183964"/>
<path fill-rule="evenodd" clip-rule="evenodd" d="M562.928 507.127C562.35 507.765 562.007 508.609 562.007 509.489C562.007 510.463 562.391 511.343 563.082 511.975C563.749 512.583 564.623 512.908 565.567 512.908C566.063 512.908 567.038 512.825 567.97 512.24L568.012 512.211L568.124 510.841L567.941 510.829L567.911 510.888C567.221 512.37 566.146 512.158 565.733 512.158C563.908 512.158 563.288 510.817 563.288 509.359C563.288 507.96 563.908 506.755 565.75 506.755C566.317 506.755 567.333 506.743 567.87 508.013L567.9 508.084L568.071 508.025L567.959 506.596L567.917 506.584C567.055 506.2 566.364 506.035 565.668 506.035C564.552 506.023 563.601 506.401 562.928 507.121V507.127Z" fill="#183964"/>
<path fill-rule="evenodd" clip-rule="evenodd" d="M638.71 510.646C637.482 510.445 636.154 510.333 635.174 510.504C635.115 510.516 635.073 510.475 635.073 510.422C635.073 510.085 635.073 508.981 634.808 507.611C634.808 507.582 634.796 507.57 634.766 507.552C631.554 505.303 628.661 503.809 627.474 503.242C627.392 503.201 627.303 503.313 627.374 503.384C630.84 506.566 632.05 511.981 632.21 512.701C632.221 512.742 632.269 512.772 632.31 512.772C636.195 512.022 640.098 512.955 641.19 513.25C641.273 513.279 641.332 513.167 641.273 513.108C640.47 512.246 639.62 511.437 638.758 510.676C638.758 510.664 638.746 510.646 638.716 510.646H638.71Z" fill="#183964"/>
<path fill-rule="evenodd" clip-rule="evenodd" d="M641.975 511.195C638.852 507.009 634.412 503.927 633.013 503.012C632.93 502.953 632.841 503.053 632.9 503.142C633.975 504.553 634.524 506.182 634.796 507.54C634.796 507.57 634.808 507.582 634.825 507.6C636.112 508.503 637.429 509.524 638.728 510.64C638.74 510.652 638.758 510.652 638.769 510.652C640.127 510.876 641.373 511.189 641.881 511.331C641.964 511.361 642.023 511.272 641.981 511.201L641.975 511.195Z" fill="#183964"/>
<path fill-rule="evenodd" clip-rule="evenodd" d="M589.586 506.177V507.334L589.74 507.322V507.31C589.769 507.139 590.076 506.814 590.46 506.814C590.46 506.814 591.564 506.814 591.606 506.814C591.606 506.873 591.606 512.795 591.606 512.795H592.739C592.739 512.795 592.739 506.873 592.739 506.832C592.798 506.832 593.914 506.832 593.914 506.832C594.31 506.832 594.564 507.044 594.605 507.239V507.269H594.776L594.764 506.206H594.753V506.177H589.586Z" fill="#183964"/>
<path fill-rule="evenodd" clip-rule="evenodd" d="M568.992 506.177H568.962V506.33L568.974 506.342C569.075 506.401 569.175 506.637 569.175 506.938V512.789H570.279C570.279 512.789 570.279 509.837 570.279 509.778C570.338 509.778 570.775 509.778 570.775 509.778C571.212 509.808 571.383 510.091 571.596 510.457L571.625 510.499L571.767 510.723C572.009 511.118 572.334 511.656 572.659 512.164C572.901 512.518 573.196 512.73 573.58 512.784C573.845 512.825 574.383 512.813 574.595 512.754L574.837 512.695L574.938 512.665L574.601 512.565C574.459 512.524 574.247 512.423 573.963 512.099C573.78 511.898 573.497 511.431 573.06 510.758L572.635 510.079L572.623 510.068C572.511 509.896 572.31 509.631 571.985 509.459C572.605 509.259 573.214 508.698 573.214 507.847C573.214 507.605 573.154 507.157 572.747 506.761C572.34 506.365 571.684 506.165 570.81 506.165H569.004L568.992 506.177ZM570.887 506.773C572.021 506.814 572.044 507.777 572.044 507.877C572.044 508.839 571.336 509.176 570.716 509.176C570.716 509.176 570.32 509.164 570.279 509.164C570.279 509.105 570.279 506.832 570.279 506.773C570.409 506.773 570.616 506.761 570.887 506.773Z" fill="#183964"/>
<path fill-rule="evenodd" clip-rule="evenodd" d="M580.299 506.177H580.269L580.281 506.348H580.293C580.393 506.389 580.476 506.631 580.476 506.826V512.778H582.371C583.617 512.778 584.662 512.394 585.371 511.662C585.967 511.054 586.292 510.221 586.292 509.371C586.292 508.863 586.12 508.084 585.624 507.446C584.975 506.596 583.942 506.159 582.542 506.159L580.293 506.171L580.299 506.177ZM581.615 506.814C581.674 506.814 582.212 506.814 582.212 506.814C582.365 506.814 582.761 506.826 583.044 506.873C584.91 507.157 585.111 508.727 585.111 509.377C585.111 509.914 585.01 510.693 584.544 511.284C584.089 511.862 583.387 512.158 582.424 512.158C582.2 512.158 581.917 512.158 581.604 512.146C581.615 512.105 581.615 506.873 581.615 506.814Z" fill="#183964"/>
<path fill-rule="evenodd" clip-rule="evenodd" d="M588.582 506.177H587.284V506.33L587.295 506.342C587.408 506.401 587.496 506.608 587.496 506.891V512.783H588.6V506.182L588.588 506.171L588.582 506.177Z" fill="#183964"/>
<path fill-rule="evenodd" clip-rule="evenodd" d="M578.87 506.177H575.15L575.162 506.33H575.174C575.274 506.389 575.386 506.613 575.386 506.926V512.778H579.088L579.36 511.603L579.206 511.544L579.165 511.614C578.852 512.093 578.545 512.152 577.471 512.152C577.087 512.164 576.709 512.122 576.479 512.11C576.479 512.069 576.479 509.465 576.479 509.412C576.538 509.412 578.356 509.412 578.356 509.412V508.816C578.356 508.816 576.532 508.816 576.479 508.816C576.479 508.757 576.479 506.808 576.479 506.767C576.538 506.767 578.008 506.779 578.008 506.779C578.344 506.779 578.728 507.104 578.758 507.304V507.334H578.911L578.87 506.177Z" fill="#183964"/>
<path fill-rule="evenodd" clip-rule="evenodd" d="M609.874 506.177H608.575L608.586 506.33H608.598C608.71 506.389 608.799 506.613 608.799 506.897V512.789H609.903V506.188L609.874 506.177Z" fill="#183964"/>
<path fill-rule="evenodd" clip-rule="evenodd" d="M625.307 506.177H621.605L621.617 506.348H621.629C621.729 506.407 621.842 506.619 621.842 506.926V512.778H625.544L625.809 511.603L625.638 511.544L625.597 511.614C625.284 512.093 624.977 512.152 623.914 512.152C623.53 512.164 623.152 512.122 622.922 512.11C622.922 512.069 622.922 509.465 622.922 509.412C622.981 509.412 624.8 509.412 624.8 509.412V508.816C624.8 508.816 622.975 508.816 622.922 508.816C622.922 508.757 622.922 506.808 622.922 506.767C622.981 506.767 624.451 506.779 624.451 506.779C624.876 506.779 625.189 507.092 625.189 507.304V507.334L625.361 507.322L625.331 506.165L625.302 506.177H625.307Z" fill="#183964"/>
<path fill-rule="evenodd" clip-rule="evenodd" d="M611.668 507.847C611.657 508.769 612.206 509.217 613.109 509.672L613.446 509.843C614.154 510.197 614.621 510.422 614.621 511.089C614.621 511.201 614.591 511.597 614.296 511.91C614.083 512.122 613.788 512.223 613.422 512.223C612.359 512.211 611.981 511.39 611.84 510.906L611.81 510.823L611.586 510.865L611.645 512.252L611.704 512.282C612.058 512.482 612.649 512.819 613.487 512.831C614.095 512.831 614.703 512.589 615.111 512.181C615.477 511.815 615.677 511.361 615.677 510.853C615.677 509.696 614.875 509.282 614.024 508.833L613.871 508.751C612.95 508.296 612.643 508.084 612.643 507.576C612.643 507.222 612.908 506.684 613.646 506.702C614.538 506.714 614.916 507.352 615.004 507.694L615.034 507.794L615.258 507.765L615.176 506.549L615.134 506.519C614.627 506.182 613.989 506.135 613.735 506.135C612.743 506.123 611.698 506.732 611.686 507.859L611.668 507.847Z" fill="#183964"/>
<path fill-rule="evenodd" clip-rule="evenodd" d="M597.138 507.847C597.126 508.769 597.675 509.217 598.579 509.672L598.915 509.843C599.624 510.197 600.09 510.422 600.09 511.089C600.09 511.201 600.061 511.597 599.765 511.91C599.553 512.122 599.258 512.223 598.891 512.223C597.829 512.211 597.451 511.39 597.309 510.906L597.28 510.823L597.055 510.865L597.114 512.252L597.173 512.282C597.528 512.482 598.118 512.819 598.956 512.831C599.565 512.831 600.173 512.589 600.58 512.181C600.946 511.815 601.147 511.361 601.147 510.853C601.147 509.696 600.344 509.282 599.494 508.834L599.34 508.751C598.419 508.296 598.112 508.084 598.112 507.576C598.112 507.222 598.378 506.684 599.116 506.702C600.007 506.714 600.385 507.352 600.474 507.694L600.503 507.794L600.728 507.765L600.657 506.56L600.616 506.531C600.108 506.194 599.47 506.147 599.216 506.147C598.224 506.118 597.167 506.726 597.15 507.859L597.138 507.847Z" fill="#183964"/>
<path fill-rule="evenodd" clip-rule="evenodd" d="M616.628 507.847C616.616 508.769 617.165 509.217 618.069 509.672L618.405 509.843C619.114 510.197 619.58 510.422 619.58 511.089C619.58 511.201 619.551 511.597 619.256 511.91C619.043 512.122 618.748 512.223 618.382 512.223C617.319 512.211 616.941 511.39 616.799 510.906L616.77 510.823L616.545 510.865L616.605 512.252L616.664 512.282C617.018 512.482 617.608 512.819 618.447 512.831C619.055 512.831 619.663 512.589 620.07 512.181C620.436 511.815 620.637 511.361 620.637 510.853C620.637 509.696 619.834 509.282 618.984 508.834L618.83 508.751C617.909 508.296 617.602 508.084 617.602 507.576C617.602 507.352 617.703 507.121 617.868 506.956C618.051 506.785 618.305 506.69 618.606 506.69C619.498 506.702 619.876 507.34 619.964 507.682L619.994 507.765L620.218 507.735L620.147 506.531L620.106 506.501C619.598 506.165 618.96 506.118 618.706 506.118C617.715 506.118 616.658 506.726 616.64 507.853L616.628 507.847Z" fill="#183964"/>
<path fill-rule="evenodd" clip-rule="evenodd" d="M607.116 506.182H606.242L606.254 506.336H606.266C606.307 506.365 606.449 506.466 606.449 506.873V510.617C606.449 511.337 606.177 512.217 604.908 512.217C603.704 512.217 603.45 511.496 603.45 510.422V506.165H602.062L602.074 506.306H602.086C602.168 506.348 602.328 506.531 602.328 506.885V510.404C602.328 512.595 603.768 512.837 604.861 512.837C605.398 512.837 607.122 512.683 607.122 510.617V506.147L607.11 506.177L607.116 506.182Z" fill="#183964"/>
<path fill-rule="evenodd" clip-rule="evenodd" d="M562.928 507.127C562.35 507.765 562.007 508.609 562.007 509.489C562.007 510.463 562.391 511.343 563.082 511.975C563.749 512.583 564.623 512.908 565.567 512.908C566.063 512.908 567.038 512.825 567.97 512.24L568.012 512.211L568.124 510.841L567.941 510.829L567.911 510.888C567.221 512.37 566.146 512.158 565.733 512.158C563.908 512.158 563.288 510.817 563.288 509.359C563.288 507.96 563.908 506.755 565.75 506.755C566.317 506.755 567.333 506.743 567.87 508.013L567.9 508.084L568.071 508.025L567.959 506.596L567.917 506.584C567.055 506.2 566.364 506.035 565.668 506.035C564.552 506.023 563.601 506.401 562.928 507.121V507.127Z" fill="#183964"/>
<path fill-rule="evenodd" clip-rule="evenodd" d="M638.71 510.646C637.482 510.445 636.154 510.333 635.174 510.504C635.115 510.516 635.073 510.475 635.073 510.422C635.073 510.085 635.073 508.981 634.808 507.611C634.808 507.582 634.796 507.57 634.766 507.552C631.554 505.303 628.661 503.809 627.474 503.242C627.392 503.201 627.303 503.313 627.374 503.384C630.84 506.566 632.05 511.981 632.21 512.701C632.221 512.742 632.269 512.772 632.31 512.772C636.195 512.022 640.098 512.955 641.19 513.25C641.273 513.279 641.332 513.167 641.273 513.108C640.47 512.246 639.62 511.437 638.758 510.676C638.758 510.664 638.746 510.646 638.716 510.646H638.71Z" fill="#183964"/>
<path fill-rule="evenodd" clip-rule="evenodd" d="M641.975 511.195C638.852 507.009 634.412 503.927 633.013 503.012C632.93 502.953 632.841 503.053 632.9 503.142C633.975 504.553 634.524 506.182 634.796 507.54C634.796 507.57 634.808 507.582 634.825 507.6C636.112 508.503 637.429 509.524 638.728 510.64C638.74 510.652 638.758 510.652 638.769 510.652C640.127 510.876 641.373 511.189 641.881 511.331C641.964 511.361 642.023 511.272 641.981 511.201L641.975 511.195Z" fill="#183964"/>
</g>
</svg>




