<svg xmlns="http://www.w3.org/2000/svg" xmlns:xlink="http://www.w3.org/1999/xlink" viewBox="408 189 108 108" width="100%" height="100%">
<defs>
<linearGradient id="paint0_linear_642_999" x1="282" y1="663.116" x2="362" y2="663.116" gradientUnits="userSpaceOnUse">
<stop stop-color="#FFCA06"/>
<stop offset="0.330844" stop-color="#FBAA18"/>
<stop offset="0.694742" stop-color="#FFC907"/>
<stop offset="1" stop-color="#FAA619"/>
</linearGradient>
<clipPath id="clip0_642_999">
<rect width="784" height="1774" rx="32" fill="white"/>
</clipPath>
<clipPath id="clip1_642_999">
<rect x="268" y="597" width="108" height="108" rx="8" fill="white"/>
</clipPath>
<clipPath id="clip2_642_999">
<rect x="548" y="393" width="108" height="108" rx="8" fill="white"/>
</clipPath>
<clipPath id="clip3_642_999">
<rect x="408" y="393" width="108" height="108" rx="8" fill="white"/>
</clipPath>
<clipPath id="clip4_642_999">
<rect x="128" y="597" width="108" height="108" rx="8" fill="white"/>
</clipPath>
<clipPath id="clip5_642_999">
<rect x="268" y="393" width="108" height="108" rx="8" fill="white"/>
</clipPath>
<clipPath id="clip6_642_999">
<rect x="128" y="393" width="108" height="108" rx="8" fill="white"/>
</clipPath>
<clipPath id="clip7_642_999">
<rect x="408" y="189" width="108" height="108" rx="8" fill="white"/>
</clipPath>
<clipPath id="clip8_642_999">
<rect width="49.2518" height="80" fill="white" transform="translate(437 203)"/>
</clipPath>
<clipPath id="clip9_642_999">
<rect x="548" y="189" width="108" height="108" rx="8" fill="white"/>
</clipPath>
<clipPath id="clip10_642_999">
<rect x="268" y="189" width="108" height="108" rx="8" fill="white"/>
</clipPath>
<clipPath id="clip11_642_999">
<rect x="128" y="189" width="108" height="108" rx="8" fill="white"/>
</clipPath>
</defs>
<g clip-path="url(#clip7_642_999)">
<rect x="408" y="189" width="108" height="108" rx="8" fill="white"/>
<g clip-path="url(#clip8_642_999)">
<path d="M451.531 259.072C451.242 259.072 450.958 259.092 450.677 259.124H452.385C452.105 259.092 451.82 259.072 451.531 259.072Z" fill="#00529C"/>
<path d="M448.027 271.359C449.374 271.359 450.373 271.708 451.023 272.405C451.633 273.091 451.942 273.901 451.942 274.837C451.942 275.803 451.592 276.627 450.894 277.313C450.196 277.998 449.047 278.341 447.448 278.341H446.85H442.023V271.359H448.027ZM448.799 261.159C449.159 261.297 449.46 261.475 449.695 261.7C450.304 262.284 450.609 262.982 450.609 263.794C450.609 264.531 450.481 265.14 450.228 265.622C449.974 266.105 449.72 266.473 449.467 266.726H442.023V260.843H446.65C447.517 260.843 448.232 260.95 448.799 261.159ZM453.533 268.185C453.711 268.007 453.921 267.777 454.164 267.496C454.406 267.216 454.635 266.885 454.852 266.502C455.068 266.12 455.253 265.693 455.407 265.221C455.559 264.75 455.636 264.246 455.636 263.711C455.636 262.666 455.458 261.691 455.101 260.786C454.743 259.881 454.195 259.091 453.457 258.415C452.717 257.74 451.793 257.211 450.684 256.828C449.575 256.446 448.281 256.254 446.803 256.254H446.763H442.513H441.406H437.052V261.129V278.003V283.021H447.759C449.314 283.021 450.671 282.811 451.831 282.39C452.991 281.969 453.953 281.39 454.718 280.65C455.483 279.911 456.05 279.051 456.42 278.069C456.789 277.088 456.974 276.037 456.974 274.914C456.974 273.411 456.63 272.072 455.942 270.9C455.253 269.727 454.451 268.822 453.533 268.185Z" fill="#00529C"/>
<path d="M469.296 260.843C469.615 260.843 469.915 260.863 470.201 260.9C471.105 261.036 471.843 261.359 472.412 261.871C473.186 262.57 473.573 263.426 473.573 264.441C473.573 264.95 473.49 265.445 473.326 265.927C473.16 266.409 472.9 266.835 472.545 267.202C472.189 267.57 471.732 267.869 471.174 268.097C470.615 268.326 469.942 268.44 469.156 268.44H463.79V260.843H469.296ZM475.127 271.492C475.93 270.945 476.599 270.307 477.135 269.58C477.67 268.854 478.065 268.051 478.32 267.171C478.574 266.292 478.702 265.393 478.702 264.476C478.702 263.278 478.505 262.175 478.11 261.168C477.714 260.161 477.121 259.294 476.332 258.568C475.541 257.841 474.554 257.274 473.368 256.866C472.183 256.459 470.812 256.254 469.258 256.254H469.118H458.819H458.722V283.021H463.79V273.079H466.615L473.604 283.021H479.544L472.317 272.735C473.387 272.455 474.324 272.041 475.127 271.492Z" fill="#00529C"/>
<path d="M481.333 256.254V256.262C481.282 256.26 481.232 256.254 481.18 256.254H481.137V256.257V266.067V273.098V283.021H486.304V256.254H481.333Z" fill="#00529C"/>
<path d="M446.093 203.035C444.339 203.239 443.122 203.622 441.853 204.375C439.13 205.983 437.383 208.702 437.071 211.816C437.019 212.339 437.007 216.838 437.019 228.108C437.045 242.307 437.051 243.724 437.153 244.19C437.53 246.028 438.193 247.426 439.321 248.785C440.896 250.687 443.23 251.925 445.755 252.199C446.641 252.295 476.68 252.288 477.573 252.193C479.294 252.008 481.016 251.325 482.431 250.259C483.069 249.774 484.076 248.708 484.548 248.019C485.568 246.526 486.104 244.949 486.232 243.105C486.308 242.02 486.308 213.239 486.232 212.154C486.059 209.665 485.116 207.553 483.394 205.836C482.03 204.464 480.499 203.635 478.484 203.175L477.847 203.035L462.065 203.022C453.387 203.016 446.201 203.022 446.093 203.035ZM452.469 208.734C454.471 209.289 456.136 210.935 456.658 212.869C456.862 213.635 456.843 214.713 456.62 215.473C456.403 216.2 456.078 216.864 455.632 217.476C455.198 218.083 455.581 217.674 450.206 223.418C447.7 226.098 445.647 228.325 445.647 228.37C445.647 228.478 449.938 232.62 453.139 235.6C455.096 237.426 455.836 238.415 456.301 239.851C456.544 240.591 456.588 241.848 456.397 242.646C456.129 243.762 455.574 244.713 454.688 245.569C454.102 246.136 453.534 246.519 453.107 246.647C452.922 246.698 451.895 246.711 449.409 246.698L445.965 246.679L445.481 246.507C444.116 246.022 443.179 245.052 442.701 243.648C442.592 243.309 442.586 242.678 442.567 227.885C442.548 210.635 442.516 211.95 443.013 210.916C443.389 210.131 444.084 209.448 444.913 209.034C445.857 208.568 445.997 208.555 449.185 208.574C451.832 208.587 451.985 208.593 452.469 208.734ZM466.943 208.868C468.193 209.295 469.481 210.444 470.1 211.682C471.324 214.113 470.514 216.762 467.626 219.748C466.197 221.229 459.674 228.293 459.674 228.364C459.674 228.402 463.628 232.524 468.454 237.528C476.068 245.409 477.215 246.621 477.094 246.66C477.018 246.679 473.313 246.698 468.863 246.704C462.416 246.711 460.784 246.692 460.809 246.628C461.842 244.248 462.097 243.201 462.085 241.318C462.065 238.096 460.682 235.135 457.946 232.48C457.564 232.11 456.384 230.993 455.319 229.997C454.255 229.002 453.394 228.166 453.406 228.14C453.419 228.115 454.752 226.679 456.371 224.943C459.56 221.522 459.764 221.293 460.42 220.291C462.097 217.732 462.716 214.777 462.155 212.027C461.995 211.229 461.613 210.144 461.205 209.333L460.734 208.549H462.429C463.981 208.545 465.574 208.412 466.943 208.868ZM477.445 208.644C478.905 208.951 480.129 210.144 480.595 211.707C480.71 212.071 480.716 212.78 480.729 225.3C480.742 232.563 480.742 239.353 480.735 240.38L480.716 242.25L474.021 235.32C470.342 231.51 467.326 228.351 467.326 228.306C467.326 228.261 468.314 227.17 469.526 225.881C472.395 222.831 472.707 222.486 473.275 221.733C475.073 219.359 476.029 216.966 476.189 214.42C476.297 212.754 475.857 210.731 475.048 209.155C474.907 208.874 474.78 208.625 474.767 208.593C474.722 208.504 476.992 208.549 477.445 208.644Z" fill="#00529C"/>
</g>
</g>
</svg>


