<svg xmlns="http://www.w3.org/2000/svg" xmlns:xlink="http://www.w3.org/1999/xlink" viewBox="268 658 108 108" width="100%" height="100%">
<defs>
<clipPath id="clip0_642_1000">
<rect width="784" height="1774" rx="32" fill="white"/>
</clipPath>
<clipPath id="clip1_642_1000">
<rect x="268" y="658" width="108" height="108" rx="8" fill="white"/>
</clipPath>
<clipPath id="clip2_642_1000">

</clipPath>
<clipPath id="clip3_642_1000">

</clipPath>
<clipPath id="clip4_642_1000">
<rect width="80" height="18.784" fill="white" transform="translate(422 703)"/>
</clipPath>
<clipPath id="clip5_642_1000">
<rect x="268" y="658" width="108" height="108" rx="8" fill="white"/>
</clipPath>
<clipPath id="clip6_642_1000">

</clipPath>
<clipPath id="clip7_642_1000">

</clipPath>
<clipPath id="clip8_642_1000">

</clipPath>
<clipPath id="clip9_642_1000">

</clipPath>
<clipPath id="clip10_642_1000">

</clipPath>
<clipPath id="clip11_642_1000">

</clipPath>
<clipPath id="clip12_642_1000">

</clipPath>
<clipPath id="clip13_642_1000">

</clipPath>
<clipPath id="clip14_642_1000">

</clipPath>
</defs>
<g clip-path="url(#clip5_642_1000)">

<path d="M346.669 709C346.359 709 346.104 709.104 345.899 709.312C345.695 709.52 345.595 709.755 345.595 710.02C345.595 710.357 345.745 710.732 346.044 711.148C345.547 711.48 345.207 711.76 345.031 711.978C344.856 712.196 344.772 712.464 344.772 712.785C344.772 713.066 344.845 713.31 344.986 713.524C345.126 713.738 345.302 713.908 345.526 714.027C345.75 714.145 345.989 714.209 346.235 714.209C346.736 714.209 347.216 713.956 347.666 713.455C348.045 713.956 348.485 714.209 348.984 714.209C349.214 714.209 349.418 714.14 349.593 714.011C349.768 713.883 349.882 713.711 349.936 713.501H349.753C349.623 713.731 349.438 713.851 349.197 713.851C349.021 713.851 348.858 713.797 348.702 713.691C348.546 713.586 348.329 713.337 348.055 712.945C348.17 712.792 348.298 712.555 348.436 712.229C348.599 711.834 348.761 711.564 348.915 711.422C349.07 711.279 349.249 711.181 349.456 711.125V710.942H347.811V711.125C348.214 711.171 348.413 711.334 348.413 711.627C348.413 711.75 348.368 711.92 348.283 712.138C348.199 712.356 348.086 712.566 347.941 712.77C347.536 712.196 347.109 711.603 346.653 710.988C347.388 710.618 347.75 710.238 347.75 709.845C347.75 709.593 347.645 709.384 347.423 709.228C347.2 709.073 346.945 709 346.669 709ZM353.66 709.023C353.213 709.023 352.801 709.125 352.426 709.335C352.052 709.545 351.76 709.869 351.551 710.302C351.342 710.736 351.238 711.197 351.238 711.688C351.238 712.436 351.463 713.039 351.916 713.493C352.37 713.948 352.961 714.171 353.676 714.171C354.352 714.171 354.908 713.924 355.343 713.432C355.459 713.584 355.535 713.759 355.58 713.958H355.747V712.214H355.58C355.55 712.502 355.452 712.804 355.29 713.113C355.129 713.422 354.912 713.638 354.635 713.768C354.357 713.897 354.086 713.958 353.82 713.958C353.324 713.958 352.905 713.761 352.571 713.364C352.238 712.966 352.076 712.396 352.076 711.65C352.076 710.863 352.228 710.253 352.533 709.83C352.839 709.406 353.248 709.198 353.767 709.198C354.19 709.198 354.572 709.331 354.909 709.594C355.247 709.857 355.47 710.32 355.58 710.988H355.747L355.701 709.107H355.534C355.511 709.329 355.451 709.547 355.343 709.754C355.195 709.569 354.966 709.403 354.666 709.251C354.365 709.099 354.03 709.023 353.66 709.023ZM324.414 709.038C323.967 709.038 323.555 709.14 323.181 709.35C322.806 709.56 322.514 709.884 322.305 710.317C322.095 710.751 321.992 711.212 321.992 711.704C321.992 712.451 322.217 713.054 322.67 713.509C323.123 713.963 323.706 714.186 324.422 714.186C325.098 714.186 325.655 713.947 326.09 713.455C326.206 713.608 326.29 713.782 326.334 713.981H326.501V712.229H326.334C326.304 712.518 326.206 712.819 326.044 713.128C325.883 713.437 325.667 713.654 325.389 713.783C325.111 713.912 324.839 713.981 324.574 713.981C324.078 713.981 323.659 713.776 323.325 713.379C322.992 712.981 322.83 712.412 322.83 711.666C322.83 710.878 322.982 710.276 323.287 709.853C323.593 709.43 324.003 709.213 324.521 709.213C324.945 709.213 325.326 709.346 325.663 709.609C326.001 709.873 326.224 710.335 326.334 711.003H326.501L326.455 709.129H326.288C326.265 709.351 326.197 709.562 326.09 709.769C325.942 709.584 325.72 709.418 325.42 709.266C325.12 709.115 324.784 709.038 324.414 709.038ZM288.184 709.053C287.904 709.053 287.512 709.064 287.011 709.084L286.387 709.107V709.274H286.478C286.732 709.274 286.897 709.299 286.973 709.343C287.05 709.387 287.096 709.464 287.118 709.579C287.14 709.694 287.156 709.952 287.156 710.348V712.785C287.156 713.201 287.14 713.471 287.118 713.585C287.096 713.699 287.048 713.782 286.966 713.836C286.883 713.89 286.73 713.912 286.516 713.912H286.387V714.08H288.679V713.912H288.512C288.288 713.912 288.136 713.888 288.055 713.829C287.974 713.77 287.921 713.676 287.903 713.554C287.884 713.433 287.88 713.178 287.88 712.785V711.734H288.428C288.999 711.734 289.397 711.682 289.624 711.574C289.851 711.466 290.02 711.31 290.142 711.102C290.263 710.894 290.324 710.65 290.324 710.378C290.324 710.065 290.236 709.807 290.058 709.602C289.88 709.396 289.651 709.256 289.372 709.175C289.094 709.094 288.7 709.053 288.184 709.053ZM283.47 709.107V709.274H283.584C283.837 709.274 283.997 709.299 284.072 709.343C284.146 709.387 284.201 709.464 284.224 709.579C284.247 709.694 284.254 709.952 284.254 710.348V712.039C284.254 712.593 284.24 712.994 284.201 713.234C284.162 713.475 284.041 713.682 283.851 713.859C283.661 714.036 283.428 714.126 283.15 714.126C283.014 714.126 282.9 714.101 282.807 714.057C282.715 714.013 282.67 713.952 282.67 713.874C282.67 713.845 282.681 713.803 282.708 713.745C282.738 713.679 282.754 713.615 282.754 713.554C282.754 713.452 282.72 713.366 282.647 713.295C282.575 713.224 282.481 713.189 282.373 713.189C282.267 713.189 282.179 713.232 282.107 713.311C282.034 713.39 282 713.485 282 713.6C282 713.791 282.102 713.956 282.305 714.095C282.508 714.234 282.79 714.301 283.165 714.301C283.5 714.301 283.796 714.246 284.049 714.133C284.301 714.02 284.507 713.862 284.658 713.653C284.809 713.444 284.899 713.226 284.932 713.006C284.965 712.786 284.978 712.467 284.978 712.046V710.348C284.978 709.935 284.991 709.674 285.016 709.563C285.04 709.453 285.093 709.375 285.168 709.335C285.244 709.294 285.404 709.274 285.648 709.274H285.77V709.107H283.47ZM290.995 709.107V709.274H291.132C291.385 709.274 291.544 709.299 291.619 709.343C291.694 709.387 291.748 709.464 291.772 709.579C291.795 709.694 291.802 709.952 291.802 710.348V712.511C291.802 712.922 291.793 713.204 291.764 713.356C291.735 713.508 291.647 713.641 291.513 713.745C291.378 713.849 291.209 713.9 290.995 713.912V714.08H292.784V713.912C292.554 713.898 292.378 713.838 292.251 713.73C292.124 713.621 292.047 713.493 292.023 713.349C291.998 713.204 291.985 712.933 291.985 712.534V709.624L293.965 714.08H294.14L296.097 709.624V712.793C296.097 713.209 296.09 713.471 296.067 713.585C296.044 713.699 295.989 713.782 295.907 713.836C295.824 713.89 295.677 713.912 295.465 713.912H295.29V714.08H297.682V713.912H297.461C297.235 713.912 297.083 713.887 297.004 713.829C296.924 713.77 296.871 713.683 296.851 713.562C296.832 713.441 296.821 713.177 296.821 712.785V710.348C296.821 709.934 296.833 709.674 296.859 709.563C296.884 709.453 296.935 709.375 297.011 709.335C297.087 709.295 297.254 709.274 297.499 709.274H297.682V709.107H296.143L294.338 713.227L292.51 709.107H290.995ZM346.684 709.19C346.871 709.19 347.019 709.254 347.133 709.381C347.247 709.508 347.308 709.669 347.308 709.876C347.308 710.222 347.049 710.545 346.539 710.843C346.226 710.413 346.075 710.072 346.075 709.822C346.075 709.642 346.13 709.495 346.242 709.373C346.354 709.251 346.499 709.19 346.684 709.19ZM288.26 709.228C288.714 709.228 289.041 709.325 289.243 709.518C289.445 709.71 289.548 710.012 289.548 710.424C289.548 710.694 289.49 710.926 289.372 711.11C289.255 711.293 289.107 711.409 288.931 711.468C288.754 711.525 288.524 711.559 288.238 711.559H287.88V709.244C287.968 709.234 288.094 709.228 288.26 709.228ZM337.506 710.173C337.215 710.173 336.981 710.258 336.791 710.439C336.601 710.621 336.501 710.852 336.501 711.125C336.501 711.304 336.551 711.47 336.638 711.627C336.726 711.786 336.841 711.918 336.996 712.016C337.152 712.115 337.39 712.227 337.697 712.359C338.041 712.505 338.276 712.642 338.405 712.77C338.535 712.899 338.596 713.058 338.596 713.25C338.596 713.439 338.522 713.614 338.375 713.768C338.227 713.921 338.019 713.996 337.75 713.996C337.152 713.996 336.775 713.594 336.615 712.793H336.471V714.027H336.615C336.646 713.866 336.69 713.742 336.752 713.653C337.033 713.975 337.383 714.133 337.804 714.133C338.169 714.133 338.461 714.033 338.679 713.829C338.898 713.623 339.007 713.356 339.007 713.029C339.007 712.822 338.96 712.639 338.87 712.48C338.779 712.323 338.662 712.204 338.512 712.115C338.362 712.026 338.118 711.904 337.788 711.757C337.444 711.602 337.212 711.461 337.08 711.338C336.945 711.217 336.874 711.071 336.874 710.896C336.874 710.751 336.927 710.615 337.034 710.493C337.141 710.371 337.308 710.31 337.537 710.31C337.778 710.31 337.994 710.396 338.177 710.561C338.36 710.727 338.486 710.95 338.557 711.239H338.679V710.241H338.557C338.547 710.362 338.499 710.473 338.413 710.576C338.262 710.411 338.114 710.301 337.971 710.249C337.827 710.196 337.669 710.173 337.506 710.173ZM300.027 710.18C299.438 710.18 298.952 710.356 298.558 710.714C298.163 711.071 297.963 711.547 297.963 712.138C297.963 712.743 298.161 713.226 298.55 713.592C298.939 713.959 299.436 714.148 300.043 714.148C300.666 714.148 301.168 713.959 301.551 713.592C301.933 713.226 302.122 712.753 302.122 712.161C302.122 711.549 301.919 711.067 301.52 710.714C301.121 710.36 300.622 710.18 300.027 710.18ZM308.87 710.18C308.274 710.18 307.808 710.385 307.461 710.797C307.114 711.209 306.935 711.69 306.935 712.237C306.935 712.79 307.121 713.248 307.484 713.608C307.846 713.968 308.3 714.148 308.847 714.148C309.119 714.148 309.411 714.085 309.73 713.966C309.965 713.878 310.157 713.836 310.302 713.836C310.337 713.836 310.379 713.836 310.423 713.844V713.44C310.423 713.11 310.433 712.901 310.454 712.816C310.474 712.73 310.518 712.662 310.583 712.625C310.648 712.588 310.774 712.572 310.957 712.572V712.442H309.304V712.572H309.395C309.547 712.572 309.651 712.586 309.708 712.61C309.764 712.633 309.802 712.679 309.829 712.747C309.857 712.816 309.875 712.953 309.875 713.158C309.875 713.333 309.842 713.478 309.784 713.592C309.726 713.707 309.623 713.802 309.464 713.882C309.304 713.962 309.125 714.004 308.931 714.004C308.551 714.004 308.227 713.868 307.971 713.585C307.714 713.303 307.59 712.816 307.59 712.138C307.59 711.458 307.727 710.988 307.994 710.721C308.261 710.455 308.571 710.317 308.931 710.317C309.278 710.317 309.571 710.432 309.814 710.66C310.058 710.889 310.209 711.198 310.264 711.589H310.393V710.31H310.264C310.246 710.464 310.205 710.61 310.142 710.744C309.806 710.369 309.382 710.18 308.87 710.18ZM358.748 710.18C358.158 710.18 357.672 710.356 357.278 710.714C356.884 711.071 356.684 711.547 356.684 712.138C356.684 712.743 356.874 713.226 357.263 713.592C357.651 713.959 358.149 714.148 358.756 714.148C359.379 714.148 359.881 713.959 360.264 713.592C360.646 713.226 360.842 712.753 360.842 712.161C360.842 711.549 360.639 711.067 360.241 710.714C359.842 710.36 359.343 710.18 358.748 710.18ZM333.965 710.188L332.853 712.838C332.773 713.029 332.72 713.138 332.708 713.166C332.59 713.466 332.494 713.659 332.411 713.752C332.328 713.846 332.201 713.909 332.03 713.935V714.065H333.181V713.935C333.057 713.935 332.954 713.903 332.876 713.844C332.798 713.785 332.762 713.7 332.762 713.585C332.762 713.477 332.836 713.251 332.982 712.899L333.081 712.656H334.529L334.826 713.364C334.912 713.569 334.955 713.688 334.955 713.73C334.955 713.81 334.921 713.87 334.856 713.897C334.791 713.924 334.667 713.935 334.483 713.935V714.065H335.983V713.935C335.849 713.922 335.753 713.888 335.686 713.836C335.619 713.785 335.566 713.713 335.526 713.623L335.351 713.227L334.079 710.188H333.965ZM304.049 710.203C303.835 710.203 303.545 710.21 303.181 710.226L302.64 710.249V710.378H302.701C302.898 710.378 303.03 710.398 303.089 710.432C303.148 710.466 303.186 710.526 303.203 710.615C303.221 710.703 303.226 710.897 303.226 711.201V713.082C303.226 713.402 303.22 713.604 303.203 713.691C303.187 713.779 303.145 713.841 303.081 713.882C303.019 713.923 302.903 713.943 302.739 713.943H302.617V714.072H304.452V713.943H304.27C304.096 713.943 303.973 713.919 303.912 713.874C303.85 713.829 303.811 713.761 303.797 713.669C303.783 713.577 303.782 713.381 303.782 713.082V712.244H303.934C304.037 712.244 304.107 712.263 304.155 712.298C304.204 712.332 304.293 712.421 304.422 712.579C304.551 712.737 304.675 712.903 304.795 713.075C305.169 713.612 305.452 713.944 305.633 714.072H306.653V713.943C306.43 713.935 306.239 713.873 306.075 713.752C305.911 713.632 305.685 713.378 305.397 712.991C305.043 712.513 304.779 712.237 304.62 712.161C304.974 712.117 305.245 712.01 305.427 711.833C305.61 711.656 305.701 711.436 305.701 711.186C305.701 710.971 305.629 710.792 305.488 710.637C305.347 710.482 305.167 710.37 304.94 710.302C304.712 710.235 304.413 710.203 304.049 710.203ZM313.165 710.203L312.046 712.846C311.965 713.036 311.921 713.146 311.909 713.174C311.791 713.473 311.687 713.675 311.604 713.768C311.521 713.861 311.401 713.916 311.231 713.943V714.072H312.381V713.943C312.256 713.943 312.154 713.918 312.076 713.859C311.998 713.8 311.962 713.707 311.962 713.592C311.962 713.485 312.036 713.259 312.183 712.907L312.282 712.663H313.729L314.018 713.372C314.105 713.577 314.155 713.703 314.155 713.745C314.155 713.826 314.121 713.877 314.056 713.905C313.992 713.932 313.867 713.943 313.683 713.943V714.072H315.184V713.943C315.05 713.929 314.953 713.903 314.887 713.851C314.82 713.8 314.766 713.728 314.727 713.638L314.551 713.234L313.28 710.203H313.165ZM327.392 710.241V710.371H327.468C327.664 710.371 327.784 710.391 327.842 710.424C327.899 710.458 327.938 710.518 327.956 710.607C327.974 710.695 327.986 710.889 327.986 711.193V713.067C327.986 713.387 327.974 713.596 327.956 713.684C327.938 713.771 327.897 713.833 327.834 713.874C327.771 713.916 327.656 713.935 327.491 713.935H327.392V714.065H329.129V713.935H329.03C328.856 713.935 328.734 713.912 328.672 713.867C328.61 713.821 328.572 713.754 328.557 713.661C328.542 713.568 328.535 713.369 328.535 713.067V712.145H330.53V713.067C330.53 713.387 330.524 713.588 330.507 713.676C330.49 713.764 330.447 713.833 330.385 713.874C330.323 713.916 330.211 713.935 330.05 713.935H329.921V714.065H331.65V713.935H331.566C331.395 713.935 331.278 713.912 331.216 713.867C331.154 713.822 331.115 713.754 331.101 713.661C331.087 713.568 331.078 713.368 331.078 713.067V711.193C331.078 710.876 331.089 710.676 331.109 710.592C331.129 710.507 331.165 710.447 331.223 710.416C331.282 710.385 331.409 710.371 331.596 710.371H331.65V710.241H329.921V710.371H330.02C330.212 710.371 330.336 710.391 330.393 710.424C330.45 710.458 330.49 710.518 330.507 710.607C330.524 710.695 330.53 710.889 330.53 711.193V711.955H328.535V711.193C328.535 710.876 328.545 710.676 328.565 710.592C328.585 710.507 328.628 710.447 328.687 710.416C328.746 710.385 328.864 710.371 329.053 710.371H329.129V710.241H327.392ZM339.73 710.241V710.371C339.916 710.371 340.038 710.387 340.096 710.424C340.154 710.46 340.194 710.523 340.21 710.615C340.227 710.706 340.233 710.902 340.233 711.193V713.067C340.233 713.387 340.225 713.59 340.21 713.669C340.195 713.746 340.159 713.808 340.104 713.859C340.048 713.91 339.934 713.935 339.746 713.935H339.662V714.065H342.815L342.899 712.876H342.769C342.702 713.163 342.604 713.386 342.487 713.547C342.37 713.708 342.251 713.812 342.122 713.859C341.992 713.906 341.828 713.928 341.627 713.928H341.345C341.09 713.928 340.931 713.885 340.873 713.806C340.815 713.726 340.789 713.459 340.789 713.006V712.1H341.2C341.363 712.1 341.482 712.116 341.551 712.138C341.619 712.159 341.668 712.203 341.703 712.275C341.738 712.348 341.756 712.489 341.756 712.701H341.886V711.399H341.756C341.756 711.586 341.742 711.715 341.718 711.78C341.695 711.845 341.647 711.892 341.573 711.924C341.5 711.956 341.37 711.97 341.185 711.97H340.789V710.371H341.315C341.58 710.371 341.766 710.387 341.886 710.416C342.005 710.446 342.111 710.511 342.198 710.622C342.284 710.734 342.359 710.927 342.419 711.193H342.548L342.457 710.241H339.73ZM315.679 710.249V710.378C315.885 710.378 316.015 710.396 316.075 710.424C316.134 710.452 316.177 710.515 316.204 710.615C316.232 710.714 316.25 710.907 316.25 711.201V713.234C316.25 713.466 316.237 713.606 316.219 713.669C316.201 713.73 316.147 713.79 316.052 713.844C315.957 713.898 315.822 713.929 315.641 713.943V714.072H317.057V713.943C316.855 713.943 316.709 713.917 316.608 713.859C316.507 713.801 316.439 713.738 316.417 713.669C316.396 713.599 316.387 713.454 316.387 713.234V710.576L319.106 714.164H319.22V710.995C319.22 710.832 319.233 710.721 319.258 710.653C319.283 710.584 319.342 710.519 319.433 710.47C319.526 710.421 319.654 710.392 319.814 710.378V710.249H318.436V710.378C318.586 710.378 318.71 710.4 318.816 710.439C318.924 710.479 318.995 710.532 319.03 710.599C319.064 710.667 319.083 710.788 319.083 710.957V713.242L316.821 710.249H315.679ZM300.035 710.317C300.501 710.317 300.856 710.48 301.101 710.797C301.346 711.114 301.467 711.566 301.467 712.161C301.467 712.772 301.342 713.23 301.094 713.539C300.845 713.848 300.509 714.004 300.081 714.004C299.592 714.004 299.228 713.848 298.984 713.539C298.74 713.23 298.618 712.776 298.618 712.161C298.618 711.555 298.74 711.092 298.984 710.782C299.228 710.473 299.576 710.317 300.035 710.317ZM358.756 710.317C359.221 710.317 359.577 710.48 359.822 710.797C360.067 711.114 360.187 711.566 360.187 712.161C360.187 712.772 360.063 713.23 359.814 713.539C359.565 713.848 359.229 714.004 358.801 714.004C358.313 714.004 357.941 713.848 357.697 713.539C357.453 713.23 357.331 712.776 357.331 712.161C357.331 711.555 357.453 711.092 357.697 710.782C357.941 710.473 358.297 710.317 358.756 710.317ZM304.018 710.34C304.463 710.34 304.754 710.422 304.887 710.584C305.019 710.746 305.085 710.962 305.085 711.231C305.085 711.386 305.063 711.514 305.024 711.62C304.984 711.725 304.931 711.814 304.864 711.879C304.796 711.944 304.707 711.99 304.597 712.023C304.488 712.057 304.357 712.077 304.209 712.084C304.06 712.092 303.921 712.096 303.782 712.1V710.348C303.871 710.34 303.95 710.34 304.018 710.34ZM333.805 710.896L334.475 712.511H333.142L333.805 710.896ZM313.005 710.904L313.676 712.526H312.335L313.005 710.904ZM346.158 711.308C346.547 711.816 347.014 712.476 347.552 713.295C347.249 713.648 346.919 713.829 346.562 713.829C346.241 713.829 345.948 713.69 345.694 713.41C345.44 713.13 345.313 712.826 345.313 712.511C345.313 712.307 345.386 712.098 345.534 711.879C345.681 711.66 345.89 711.471 346.158 711.308ZM361.581 713.341C361.466 713.341 361.366 713.381 361.284 713.463C361.202 713.545 361.162 713.645 361.162 713.76C361.162 713.872 361.203 713.972 361.284 714.057C361.365 714.142 361.464 714.179 361.581 714.179C361.696 714.179 361.795 714.139 361.878 714.057C361.962 713.975 362 713.877 362 713.76C362 713.645 361.96 713.545 361.878 713.463C361.796 713.381 361.699 713.341 361.581 713.341Z" fill="black"/>
</g>
</svg>




