<svg xmlns="http://www.w3.org/2000/svg" xmlns:xlink="http://www.w3.org/1999/xlink" viewBox="268 598 108 108" width="100%" height="100%">
<defs>
<linearGradient id="paint0_linear_642_999" x1="282" y1="663.116" x2="362" y2="663.116" gradientUnits="userSpaceOnUse">
<stop stop-color="#FFCA06"/>
<stop offset="0.330844" stop-color="#FBAA18"/>
<stop offset="0.694742" stop-color="#FFC907"/>
<stop offset="1" stop-color="#FAA619"/>
</linearGradient>
<clipPath id="clip0_642_999">
<rect width="784" height="1774" rx="32" fill="white"/>
</clipPath>
<clipPath id="clip1_642_999">
<rect x="268" y="598" width="108" height="108" rx="8" fill="white"/>
</clipPath>
<clipPath id="clip2_642_999">

</clipPath>
<clipPath id="clip3_642_999">

</clipPath>
<clipPath id="clip4_642_999">

</clipPath>
<clipPath id="clip5_642_999">

</clipPath>
<clipPath id="clip6_642_999">

</clipPath>
<clipPath id="clip7_642_999">

</clipPath>
<clipPath id="clip8_642_999">
<rect width="49.2518" height="80" fill="white" transform="translate(437 203)"/>
</clipPath>
<clipPath id="clip9_642_999">

</clipPath>
<clipPath id="clip10_642_999">

</clipPath>
<clipPath id="clip11_642_999">

</clipPath>
</defs>
<g clip-path="url(#clip0_642_999)">
<rect width="784" height="1774" rx="32" fill="#EFF1F3"/>
<path d="M205.363 119.672C202.771 119.672 200.483 119.208 198.499 118.28C196.515 117.352 194.963 116.024 193.843 114.296C192.723 112.568 192.163 110.488 192.163 108.056V106.712H198.403V108.056C198.403 110.072 199.027 111.592 200.275 112.616C201.523 113.608 203.219 114.104 205.363 114.104C207.539 114.104 209.155 113.672 210.211 112.808C211.299 111.944 211.843 110.84 211.843 109.496C211.843 108.568 211.571 107.816 211.027 107.24C210.515 106.664 209.747 106.2 208.723 105.848C207.731 105.464 206.515 105.112 205.075 104.792L203.971 104.552C201.667 104.04 199.683 103.4 198.019 102.632C196.387 101.832 195.123 100.792 194.227 99.512C193.363 98.232 192.931 96.568 192.931 94.52C192.931 92.472 193.411 90.728 194.371 89.288C195.363 87.816 196.739 86.696 198.499 85.928C200.291 85.128 202.387 84.728 204.787 84.728C207.187 84.728 209.315 85.144 211.171 85.976C213.059 86.776 214.531 87.992 215.587 89.624C216.675 91.224 217.219 93.24 217.219 95.672V97.112H210.979V95.672C210.979 94.392 210.723 93.368 210.211 92.6C209.731 91.8 209.027 91.224 208.099 90.872C207.171 90.488 206.067 90.296 204.787 90.296C202.867 90.296 201.443 90.664 200.515 91.4C199.619 92.104 199.171 93.08 199.171 94.328C199.171 95.16 199.379 95.864 199.795 96.44C200.243 97.016 200.899 97.496 201.763 97.88C202.627 98.264 203.731 98.6 205.075 98.888L206.179 99.128C208.579 99.64 210.659 100.296 212.419 101.096C214.211 101.896 215.603 102.952 216.595 104.264C217.587 105.576 218.083 107.256 218.083 109.304C218.083 111.352 217.555 113.16 216.499 114.728C215.475 116.264 214.003 117.48 212.083 118.376C210.195 119.24 207.955 119.672 205.363 119.672ZM230.121 119C228.553 119 227.273 118.52 226.281 117.56C225.321 116.568 224.841 115.256 224.841 113.624V100.184H218.889V95.192H224.841V87.8H230.889V95.192H237.417V100.184H230.889V112.568C230.889 113.528 231.337 114.008 232.233 114.008H236.841V119H230.121ZM248.283 119.672C246.587 119.672 245.067 119.384 243.723 118.808C242.379 118.2 241.307 117.336 240.507 116.216C239.739 115.064 239.355 113.672 239.355 112.04C239.355 110.408 239.739 109.048 240.507 107.96C241.307 106.84 242.395 106.008 243.771 105.464C245.179 104.888 246.779 104.6 248.571 104.6H255.099V103.256C255.099 102.136 254.747 101.224 254.043 100.52C253.339 99.784 252.219 99.416 250.683 99.416C249.179 99.416 248.059 99.768 247.323 100.472C246.587 101.144 246.107 102.024 245.883 103.112L240.315 101.24C240.699 100.024 241.307 98.92 242.139 97.928C243.003 96.904 244.139 96.088 245.547 95.48C246.987 94.84 248.731 94.52 250.779 94.52C253.915 94.52 256.395 95.304 258.219 96.872C260.043 98.44 260.955 100.712 260.955 103.688V112.568C260.955 113.528 261.403 114.008 262.299 114.008H264.219V119H260.187C259.003 119 258.027 118.712 257.259 118.136C256.491 117.56 256.107 116.792 256.107 115.832V115.784H255.195C255.067 116.168 254.779 116.68 254.331 117.32C253.883 117.928 253.179 118.472 252.219 118.952C251.259 119.432 249.947 119.672 248.283 119.672ZM249.339 114.776C251.035 114.776 252.411 114.312 253.467 113.384C254.555 112.424 255.099 111.16 255.099 109.592V109.112H249.003C247.883 109.112 247.003 109.352 246.363 109.832C245.723 110.312 245.403 110.984 245.403 111.848C245.403 112.712 245.739 113.416 246.411 113.96C247.083 114.504 248.059 114.776 249.339 114.776ZM274.027 119C272.459 119 271.179 118.52 270.187 117.56C269.227 116.568 268.747 115.256 268.747 113.624V100.184H262.795V95.192H268.747V87.8H274.795V95.192H281.323V100.184H274.795V112.568C274.795 113.528 275.243 114.008 276.139 114.008H280.747V119H274.027ZM294.802 119.672C292.434 119.672 290.338 119.176 288.514 118.184C286.722 117.16 285.314 115.736 284.29 113.912C283.298 112.056 282.802 109.88 282.802 107.384V106.808C282.802 104.312 283.298 102.152 284.29 100.328C285.282 98.472 286.674 97.048 288.466 96.056C290.258 95.032 292.338 94.52 294.706 94.52C297.042 94.52 299.074 95.048 300.802 96.104C302.53 97.128 303.874 98.568 304.834 100.424C305.794 102.248 306.274 104.376 306.274 106.808V108.872H288.946C289.01 110.504 289.618 111.832 290.77 112.856C291.922 113.88 293.33 114.392 294.994 114.392C296.69 114.392 297.938 114.024 298.738 113.288C299.538 112.552 300.146 111.736 300.562 110.84L305.506 113.432C305.058 114.264 304.402 115.176 303.538 116.168C302.706 117.128 301.586 117.96 300.178 118.664C298.77 119.336 296.978 119.672 294.802 119.672ZM288.994 104.36H300.13C300.002 102.984 299.442 101.88 298.45 101.048C297.49 100.216 296.226 99.8 294.658 99.8C293.026 99.8 291.73 100.216 290.77 101.048C289.81 101.88 289.218 102.984 288.994 104.36ZM309.561 109.496V104.024H323.769V109.496H309.561ZM341.24 119.672C337.016 119.672 333.656 118.52 331.16 116.216C328.664 113.88 327.416 110.552 327.416 106.232V98.168C327.416 93.848 328.664 90.536 331.16 88.232C333.656 85.896 337.016 84.728 341.24 84.728C345.464 84.728 348.824 85.896 351.32 88.232C353.816 90.536 355.064 93.848 355.064 98.168V106.232C355.064 110.552 353.816 113.88 351.32 116.216C348.824 118.52 345.464 119.672 341.24 119.672ZM341.24 114.008C343.608 114.008 345.448 113.32 346.76 111.944C348.072 110.568 348.728 108.728 348.728 106.424V97.976C348.728 95.672 348.072 93.832 346.76 92.456C345.448 91.08 343.608 90.392 341.24 90.392C338.904 90.392 337.064 91.08 335.72 92.456C334.408 93.832 333.752 95.672 333.752 97.976V106.424C333.752 108.728 334.408 110.568 335.72 111.944C337.064 113.32 338.904 114.008 341.24 114.008ZM360.733 119L357.373 95.192H363.373L365.485 114.92H366.349L369.421 95.192H379.117L382.189 114.92H383.053L385.165 95.192H391.165L387.805 119H377.773L374.701 99.272H373.837L370.765 119H360.733ZM394.454 119V95.192H400.406V98.312H401.27C401.654 97.48 402.374 96.696 403.43 95.96C404.486 95.192 406.086 94.808 408.23 94.808C410.086 94.808 411.702 95.24 413.078 96.104C414.486 96.936 415.574 98.104 416.342 99.608C417.11 101.08 417.494 102.808 417.494 104.792V119H411.446V105.272C411.446 103.48 410.998 102.136 410.102 101.24C409.238 100.344 407.99 99.896 406.358 99.896C404.502 99.896 403.062 100.52 402.038 101.768C401.014 102.984 400.502 104.696 400.502 106.904V119H394.454ZM432.88 119.672C430.512 119.672 428.416 119.176 426.592 118.184C424.8 117.16 423.392 115.736 422.368 113.912C421.376 112.056 420.88 109.88 420.88 107.384V106.808C420.88 104.312 421.376 102.152 422.368 100.328C423.36 98.472 424.752 97.048 426.544 96.056C428.336 95.032 430.416 94.52 432.784 94.52C435.12 94.52 437.152 95.048 438.88 96.104C440.608 97.128 441.952 98.568 442.912 100.424C443.872 102.248 444.352 104.376 444.352 106.808V108.872H427.024C427.088 110.504 427.696 111.832 428.848 112.856C430 113.88 431.408 114.392 433.072 114.392C434.768 114.392 436.016 114.024 436.816 113.288C437.616 112.552 438.224 111.736 438.64 110.84L443.584 113.432C443.136 114.264 442.48 115.176 441.616 116.168C440.784 117.128 439.664 117.96 438.256 118.664C436.848 119.336 435.056 119.672 432.88 119.672ZM427.072 104.36H438.208C438.08 102.984 437.52 101.88 436.528 101.048C435.568 100.216 434.304 99.8 432.736 99.8C431.104 99.8 429.808 100.216 428.848 101.048C427.888 101.88 427.296 102.984 427.072 104.36ZM457.335 119.672C455.447 119.672 453.671 119.208 452.007 118.28C450.375 117.32 449.063 115.928 448.071 114.104C447.079 112.28 446.583 110.072 446.583 107.48V106.712C446.583 104.12 447.079 101.912 448.071 100.088C449.063 98.264 450.375 96.888 452.007 95.96C453.639 95 455.415 94.52 457.335 94.52C458.775 94.52 459.975 94.696 460.935 95.048C461.927 95.368 462.727 95.784 463.335 96.296C463.943 96.808 464.407 97.352 464.727 97.928H465.591V85.4H471.639V119H465.687V116.12H464.823C464.279 117.016 463.431 117.832 462.279 118.568C461.159 119.304 459.511 119.672 457.335 119.672ZM459.159 114.392C461.015 114.392 462.567 113.8 463.815 112.616C465.063 111.4 465.687 109.64 465.687 107.336V106.856C465.687 104.552 465.063 102.808 463.815 101.624C462.599 100.408 461.047 99.8 459.159 99.8C457.303 99.8 455.751 100.408 454.503 101.624C453.255 102.808 452.631 104.552 452.631 106.856V107.336C452.631 109.64 453.255 111.4 454.503 112.616C455.751 113.8 457.303 114.392 459.159 114.392ZM485.38 119V113.432H489.796V90.968H485.38V85.4H502.66C504.708 85.4 506.484 85.752 507.988 86.456C509.524 87.128 510.708 88.104 511.54 89.384C512.404 90.632 512.836 92.136 512.836 93.896V94.376C512.836 95.912 512.548 97.176 511.972 98.168C511.396 99.128 510.708 99.88 509.908 100.424C509.14 100.936 508.404 101.304 507.7 101.528V102.392C508.404 102.584 509.172 102.952 510.004 103.496C510.836 104.008 511.54 104.76 512.116 105.752C512.724 106.744 513.028 108.04 513.028 109.64V110.12C513.028 111.976 512.596 113.576 511.732 114.92C510.868 116.232 509.668 117.24 508.132 117.944C506.628 118.648 504.868 119 502.852 119H485.38ZM496.132 113.24H502.084C503.46 113.24 504.564 112.904 505.396 112.232C506.26 111.56 506.692 110.6 506.692 109.352V108.872C506.692 107.624 506.276 106.664 505.444 105.992C504.612 105.32 503.492 104.984 502.084 104.984H496.132V113.24ZM496.132 99.224H501.988C503.3 99.224 504.372 98.888 505.204 98.216C506.068 97.544 506.5 96.616 506.5 95.432V94.952C506.5 93.736 506.084 92.808 505.252 92.168C504.42 91.496 503.332 91.16 501.988 91.16H496.132V99.224ZM523.799 119.672C522.103 119.672 520.583 119.384 519.239 118.808C517.895 118.2 516.823 117.336 516.023 116.216C515.255 115.064 514.871 113.672 514.871 112.04C514.871 110.408 515.255 109.048 516.023 107.96C516.823 106.84 517.911 106.008 519.287 105.464C520.695 104.888 522.295 104.6 524.087 104.6H530.615V103.256C530.615 102.136 530.263 101.224 529.559 100.52C528.855 99.784 527.735 99.416 526.199 99.416C524.695 99.416 523.575 99.768 522.839 100.472C522.103 101.144 521.623 102.024 521.399 103.112L515.831 101.24C516.215 100.024 516.823 98.92 517.655 97.928C518.519 96.904 519.655 96.088 521.063 95.48C522.503 94.84 524.247 94.52 526.295 94.52C529.431 94.52 531.911 95.304 533.735 96.872C535.559 98.44 536.471 100.712 536.471 103.688V112.568C536.471 113.528 536.919 114.008 537.815 114.008H539.735V119H535.703C534.519 119 533.543 118.712 532.775 118.136C532.007 117.56 531.623 116.792 531.623 115.832V115.784H530.711C530.583 116.168 530.295 116.68 529.847 117.32C529.399 117.928 528.695 118.472 527.735 118.952C526.775 119.432 525.463 119.672 523.799 119.672ZM524.855 114.776C526.551 114.776 527.927 114.312 528.983 113.384C530.071 112.424 530.615 111.16 530.615 109.592V109.112H524.519C523.399 109.112 522.519 109.352 521.879 109.832C521.239 110.312 520.919 110.984 520.919 111.848C520.919 112.712 521.255 113.416 521.927 113.96C522.599 114.504 523.575 114.776 524.855 114.776ZM542.157 119V95.192H548.109V98.312H548.973C549.357 97.48 550.077 96.696 551.133 95.96C552.189 95.192 553.789 94.808 555.933 94.808C557.789 94.808 559.405 95.24 560.781 96.104C562.189 96.936 563.277 98.104 564.045 99.608C564.813 101.08 565.197 102.808 565.197 104.792V119H559.149V105.272C559.149 103.48 558.701 102.136 557.805 101.24C556.941 100.344 555.693 99.896 554.061 99.896C552.205 99.896 550.765 100.52 549.741 101.768C548.717 102.984 548.205 104.696 548.205 106.904V119H542.157ZM569.735 119V85.4H575.783V103.976H576.647L584.519 95.192H592.391L581.399 106.712L592.775 119H584.999L576.647 109.544H575.783V119H569.735Z" fill="#333333"/>
<path d="M288.063 723.8H291.775L292.415 732.216V733.848H292.799V732.216L293.439 723.8H297.151V735H295.231V727.512L295.423 724.952H295.039L294.207 735H291.039L290.175 724.952H289.791L289.983 727.512V735H288.063V723.8ZM303.892 733.848C303.678 734.349 303.38 734.707 302.996 734.92C302.612 735.123 302.164 735.224 301.652 735.224C301.172 735.224 300.718 735.133 300.292 734.952C299.876 734.771 299.508 734.504 299.188 734.152C298.868 733.8 298.612 733.373 298.42 732.872C298.238 732.371 298.148 731.8 298.148 731.16V730.904C298.148 730.275 298.238 729.709 298.42 729.208C298.601 728.707 298.846 728.28 299.156 727.928C299.465 727.576 299.822 727.309 300.228 727.128C300.644 726.936 301.086 726.84 301.556 726.84C302.121 726.84 302.574 726.936 302.916 727.128C303.268 727.32 303.545 727.619 303.748 728.024H304.036V727.064H306.052V732.6C306.052 732.92 306.196 733.08 306.484 733.08H306.788V735H305.412C305.049 735 304.75 734.893 304.516 734.68C304.292 734.467 304.18 734.189 304.18 733.848H303.892ZM302.1 733.304C302.686 733.304 303.156 733.112 303.508 732.728C303.86 732.333 304.036 731.8 304.036 731.128V730.936C304.036 730.264 303.86 729.736 303.508 729.352C303.156 728.957 302.686 728.76 302.1 728.76C301.513 728.76 301.044 728.957 300.692 729.352C300.34 729.736 300.164 730.264 300.164 730.936V731.128C300.164 731.8 300.34 732.333 300.692 732.728C301.044 733.112 301.513 733.304 302.1 733.304ZM310.569 735H308.553V727.064H310.569V728.248H310.857C311.038 727.8 311.331 727.453 311.737 727.208C312.142 726.963 312.617 726.84 313.161 726.84C313.545 726.84 313.902 726.904 314.233 727.032C314.574 727.149 314.873 727.336 315.129 727.592C315.385 727.848 315.582 728.173 315.721 728.568C315.87 728.963 315.945 729.432 315.945 729.976V735H313.929V730.488C313.929 729.923 313.79 729.48 313.513 729.16C313.246 728.829 312.857 728.664 312.345 728.664C311.747 728.664 311.299 728.867 311.001 729.272C310.713 729.667 310.569 730.2 310.569 730.872V735ZM324.046 733.848H323.758C323.672 734.029 323.566 734.205 323.438 734.376C323.32 734.536 323.16 734.68 322.958 734.808C322.766 734.936 322.531 735.037 322.254 735.112C321.987 735.187 321.662 735.224 321.278 735.224C320.787 735.224 320.328 735.139 319.902 734.968C319.486 734.787 319.118 734.525 318.798 734.184C318.488 733.832 318.243 733.405 318.062 732.904C317.891 732.403 317.806 731.827 317.806 731.176V730.888C317.806 730.248 317.896 729.677 318.078 729.176C318.27 728.675 318.526 728.253 318.846 727.912C319.176 727.56 319.555 727.293 319.982 727.112C320.419 726.931 320.878 726.84 321.358 726.84C321.998 726.84 322.504 726.963 322.878 727.208C323.251 727.443 323.544 727.779 323.758 728.216H324.046V723.8H326.062V735H324.046V733.848ZM321.934 733.304C322.563 733.304 323.07 733.107 323.454 732.712C323.848 732.307 324.046 731.779 324.046 731.128V730.936C324.046 730.285 323.848 729.763 323.454 729.368C323.07 728.963 322.563 728.76 321.934 728.76C321.304 728.76 320.792 728.957 320.398 729.352C320.014 729.736 319.822 730.264 319.822 730.936V731.128C319.822 731.8 320.014 732.333 320.398 732.728C320.792 733.112 321.304 733.304 321.934 733.304ZM328.29 733.08H330.978V728.984H328.482V727.064H332.994V733.08H335.298V735H328.29V733.08ZM333.49 724.712C333.49 724.925 333.448 725.128 333.362 725.32C333.288 725.501 333.181 725.661 333.042 725.8C332.904 725.928 332.738 726.035 332.546 726.12C332.365 726.195 332.173 726.232 331.97 726.232C331.757 726.232 331.56 726.195 331.378 726.12C331.197 726.035 331.037 725.928 330.898 725.8C330.76 725.661 330.648 725.501 330.562 725.32C330.488 725.128 330.45 724.925 330.45 724.712C330.45 724.499 330.488 724.301 330.562 724.12C330.648 723.928 330.76 723.768 330.898 723.64C331.037 723.501 331.197 723.395 331.378 723.32C331.56 723.235 331.757 723.192 331.97 723.192C332.173 723.192 332.365 723.235 332.546 723.32C332.738 723.395 332.904 723.501 333.042 723.64C333.181 723.768 333.288 723.928 333.362 724.12C333.448 724.301 333.49 724.499 333.49 724.712ZM337.559 727.064H340.919V728.216H341.207C341.357 727.779 341.607 727.443 341.959 727.208C342.322 726.963 342.754 726.84 343.255 726.84C344.045 726.84 344.679 727.091 345.159 727.592C345.639 728.083 345.879 728.835 345.879 729.848V730.2L343.799 730.392V730.168C343.799 729.731 343.687 729.384 343.463 729.128C343.239 728.861 342.903 728.728 342.455 728.728C342.007 728.728 341.655 728.883 341.399 729.192C341.143 729.501 341.015 729.944 341.015 730.52V733.08H342.839V735H337.367V733.08H338.999V728.984H337.559V727.064ZM347.884 733.08H350.572V728.984H348.076V727.064H352.588V733.08H354.892V735H347.884V733.08ZM353.084 724.712C353.084 724.925 353.042 725.128 352.956 725.32C352.882 725.501 352.775 725.661 352.636 725.8C352.498 725.928 352.332 726.035 352.14 726.12C351.959 726.195 351.767 726.232 351.564 726.232C351.351 726.232 351.154 726.195 350.972 726.12C350.791 726.035 350.631 725.928 350.492 725.8C350.354 725.661 350.242 725.501 350.156 725.32C350.082 725.128 350.044 724.925 350.044 724.712C350.044 724.499 350.082 724.301 350.156 724.12C350.242 723.928 350.354 723.768 350.492 723.64C350.631 723.501 350.791 723.395 350.972 723.32C351.154 723.235 351.351 723.192 351.564 723.192C351.767 723.192 351.959 723.235 352.14 723.32C352.332 723.395 352.498 723.501 352.636 723.64C352.775 723.768 352.882 723.928 352.956 724.12C353.042 724.301 353.084 724.499 353.084 724.712Z" fill="black"/>
<path d="M548.853 528.984H549.909V521.816H548.853V519.8H553.765C554.299 519.8 554.768 519.875 555.173 520.024C555.589 520.173 555.936 520.376 556.213 520.632C556.501 520.888 556.715 521.197 556.853 521.56C557.003 521.912 557.077 522.296 557.077 522.712V522.904C557.077 523.544 556.896 524.056 556.533 524.44C556.181 524.824 555.733 525.091 555.189 525.24V525.528C555.733 525.677 556.181 525.949 556.533 526.344C556.896 526.728 557.077 527.24 557.077 527.88V528.072C557.077 528.488 557.003 528.877 556.853 529.24C556.715 529.592 556.501 529.901 556.213 530.168C555.936 530.424 555.589 530.627 555.173 530.776C554.768 530.925 554.299 531 553.765 531H548.853V528.984ZM552.021 528.984H553.557C554.005 528.984 554.368 528.888 554.645 528.696C554.923 528.504 555.061 528.184 555.061 527.736V527.64C555.061 527.192 554.923 526.872 554.645 526.68C554.368 526.488 554.005 526.392 553.557 526.392H552.021V528.984ZM552.021 524.376H553.557C554.005 524.376 554.368 524.285 554.645 524.104C554.923 523.912 555.061 523.592 555.061 523.144V523.048C555.061 522.6 554.923 522.285 554.645 522.104C554.368 521.912 554.005 521.816 553.557 521.816H552.021V524.376ZM558.778 519.8H566.842V521.816H563.866V531H561.754V521.816H558.778V519.8ZM574.127 529.944H574.415V519.8H576.527V531H572.399L571.087 520.856H570.799V531H568.687V519.8H572.815L574.127 529.944ZM594.121 523.224C594.121 522.776 593.945 522.387 593.593 522.056C593.251 521.725 592.766 521.56 592.137 521.56C591.603 521.56 591.182 521.672 590.873 521.896C590.563 522.109 590.409 522.403 590.409 522.776C590.409 522.968 590.446 523.144 590.521 523.304C590.595 523.453 590.723 523.592 590.905 523.72C591.097 523.837 591.342 523.944 591.641 524.04C591.95 524.136 592.339 524.227 592.809 524.312C593.982 524.525 594.878 524.883 595.497 525.384C596.115 525.885 596.425 526.627 596.425 527.608V527.8C596.425 528.323 596.329 528.797 596.137 529.224C595.955 529.64 595.689 529.997 595.337 530.296C594.985 530.595 594.558 530.824 594.057 530.984C593.555 531.144 592.99 531.224 592.361 531.224C591.625 531.224 590.974 531.123 590.409 530.92C589.854 530.707 589.39 530.419 589.017 530.056C588.643 529.683 588.361 529.251 588.169 528.76C587.977 528.259 587.881 527.715 587.881 527.128V526.648H589.993V527.032C589.993 527.704 590.185 528.243 590.569 528.648C590.963 529.043 591.571 529.24 592.393 529.24C593.033 529.24 593.507 529.101 593.817 528.824C594.126 528.547 594.281 528.216 594.281 527.832C594.281 527.651 594.249 527.48 594.185 527.32C594.121 527.149 594.009 527 593.849 526.872C593.689 526.733 593.47 526.611 593.193 526.504C592.915 526.397 592.563 526.307 592.137 526.232C591.571 526.136 591.054 526.013 590.585 525.864C590.115 525.704 589.705 525.496 589.353 525.24C589.011 524.984 588.745 524.664 588.553 524.28C588.361 523.896 588.265 523.427 588.265 522.872V522.776C588.265 522.317 588.355 521.896 588.537 521.512C588.729 521.117 588.99 520.776 589.321 520.488C589.662 520.2 590.067 519.976 590.537 519.816C591.017 519.656 591.55 519.576 592.137 519.576C592.798 519.576 593.385 519.672 593.897 519.864C594.409 520.045 594.835 520.296 595.177 520.616C595.529 520.936 595.79 521.304 595.961 521.72C596.142 522.136 596.233 522.573 596.233 523.032V523.608H594.121V523.224ZM603.726 523.064H605.742V532.952C605.742 533.315 605.624 533.613 605.39 533.848C605.166 534.083 604.872 534.2 604.51 534.2H599.79V532.28H603.294C603.582 532.28 603.726 532.12 603.726 531.8V529.848H603.438C603.086 530.765 602.328 531.224 601.166 531.224C600.771 531.224 600.403 531.16 600.062 531.032C599.72 530.904 599.422 530.707 599.166 530.44C598.91 530.173 598.707 529.843 598.558 529.448C598.419 529.043 598.35 528.568 598.35 528.024V523.064H600.366V527.608C600.366 528.173 600.499 528.616 600.766 528.936C601.032 529.245 601.432 529.4 601.966 529.4C602.574 529.4 603.016 529.208 603.294 528.824C603.582 528.429 603.726 527.896 603.726 527.224V523.064ZM613.282 529.848C613.069 530.349 612.77 530.707 612.386 530.92C612.002 531.123 611.554 531.224 611.042 531.224C610.562 531.224 610.109 531.133 609.682 530.952C609.266 530.771 608.898 530.504 608.578 530.152C608.258 529.8 608.002 529.373 607.81 528.872C607.629 528.371 607.538 527.8 607.538 527.16V526.904C607.538 526.275 607.629 525.709 607.81 525.208C607.992 524.707 608.237 524.28 608.546 523.928C608.856 523.576 609.213 523.309 609.618 523.128C610.034 522.936 610.477 522.84 610.946 522.84C611.512 522.84 611.965 522.936 612.306 523.128C612.658 523.32 612.936 523.619 613.138 524.024H613.426V523.064H615.442V528.6C615.442 528.92 615.586 529.08 615.874 529.08H616.178V531H614.802C614.44 531 614.141 530.893 613.906 530.68C613.682 530.467 613.57 530.189 613.57 529.848H613.282ZM611.49 529.304C612.077 529.304 612.546 529.112 612.898 528.728C613.25 528.333 613.426 527.8 613.426 527.128V526.936C613.426 526.264 613.25 525.736 612.898 525.352C612.546 524.957 612.077 524.76 611.49 524.76C610.904 524.76 610.434 524.957 610.082 525.352C609.73 525.736 609.554 526.264 609.554 526.936V527.128C609.554 527.8 609.73 528.333 610.082 528.728C610.434 529.112 610.904 529.304 611.49 529.304ZM617.559 523.064H620.919V524.216H621.207C621.357 523.779 621.607 523.443 621.959 523.208C622.322 522.963 622.754 522.84 623.255 522.84C624.045 522.84 624.679 523.091 625.159 523.592C625.639 524.083 625.879 524.835 625.879 525.848V526.2L623.799 526.392V526.168C623.799 525.731 623.687 525.384 623.463 525.128C623.239 524.861 622.903 524.728 622.455 524.728C622.007 524.728 621.655 524.883 621.399 525.192C621.143 525.501 621.015 525.944 621.015 526.52V529.08H622.839V531H617.367V529.08H618.999V524.984H617.559V523.064ZM627.884 529.08H630.572V524.984H628.076V523.064H632.588V529.08H634.892V531H627.884V529.08ZM633.084 520.712C633.084 520.925 633.042 521.128 632.956 521.32C632.882 521.501 632.775 521.661 632.636 521.8C632.498 521.928 632.332 522.035 632.14 522.12C631.959 522.195 631.767 522.232 631.564 522.232C631.351 522.232 631.154 522.195 630.972 522.12C630.791 522.035 630.631 521.928 630.492 521.8C630.354 521.661 630.242 521.501 630.156 521.32C630.082 521.128 630.044 520.925 630.044 520.712C630.044 520.499 630.082 520.301 630.156 520.12C630.242 519.928 630.354 519.768 630.492 519.64C630.631 519.501 630.791 519.395 630.972 519.32C631.154 519.235 631.351 519.192 631.564 519.192C631.767 519.192 631.959 519.235 632.14 519.32C632.332 519.395 632.498 519.501 632.636 519.64C632.775 519.768 632.882 519.928 632.956 520.12C633.042 520.301 633.084 520.499 633.084 520.712ZM642.673 529.848C642.46 530.349 642.161 530.707 641.777 530.92C641.393 531.123 640.945 531.224 640.433 531.224C639.953 531.224 639.5 531.133 639.073 530.952C638.657 530.771 638.289 530.504 637.969 530.152C637.649 529.8 637.393 529.373 637.201 528.872C637.02 528.371 636.929 527.8 636.929 527.16V526.904C636.929 526.275 637.02 525.709 637.201 525.208C637.382 524.707 637.628 524.28 637.937 523.928C638.246 523.576 638.604 523.309 639.009 523.128C639.425 522.936 639.868 522.84 640.337 522.84C640.902 522.84 641.356 522.936 641.697 523.128C642.049 523.32 642.326 523.619 642.529 524.024H642.817V523.064H644.833V528.6C644.833 528.92 644.977 529.08 645.265 529.08H645.569V531H644.193C643.83 531 643.532 530.893 643.297 530.68C643.073 530.467 642.961 530.189 642.961 529.848H642.673ZM640.881 529.304C641.468 529.304 641.937 529.112 642.289 528.728C642.641 528.333 642.817 527.8 642.817 527.128V526.936C642.817 526.264 642.641 525.736 642.289 525.352C641.937 524.957 641.468 524.76 640.881 524.76C640.294 524.76 639.825 524.957 639.473 525.352C639.121 525.736 638.945 526.264 638.945 526.936V527.128C638.945 527.8 639.121 528.333 639.473 528.728C639.825 529.112 640.294 529.304 640.881 529.304ZM649.382 531H647.366V519.8H649.382V524.344H649.67C649.873 523.864 650.171 523.496 650.566 523.24C650.961 522.973 651.446 522.84 652.022 522.84C652.417 522.84 652.779 522.904 653.11 523.032C653.441 523.16 653.729 523.352 653.974 523.608C654.219 523.864 654.411 524.195 654.55 524.6C654.689 524.995 654.758 525.464 654.758 526.008V531H652.742V526.488C652.742 525.923 652.603 525.48 652.326 525.16C652.059 524.829 651.67 524.664 651.158 524.664C650.561 524.664 650.113 524.867 649.814 525.272C649.526 525.667 649.382 526.2 649.382 526.872V531ZM586.628 555.48V557.496H585.956C585.166 557.496 584.414 557.379 583.7 557.144C582.996 556.92 582.377 556.563 581.844 556.072C581.31 555.592 580.884 554.973 580.564 554.216C580.254 553.459 580.1 552.557 580.1 551.512V547.288C580.1 546.243 580.254 545.341 580.564 544.584C580.884 543.827 581.31 543.208 581.844 542.728C582.377 542.237 582.996 541.88 583.7 541.656C584.414 541.421 585.166 541.304 585.956 541.304H586.628V543.32H586.052C585.497 543.32 584.985 543.395 584.516 543.544C584.046 543.693 583.636 543.933 583.284 544.264C582.942 544.595 582.67 545.021 582.468 545.544C582.276 546.056 582.18 546.68 582.18 547.416V551.384C582.18 552.12 582.276 552.749 582.468 553.272C582.67 553.784 582.942 554.205 583.284 554.536C583.636 554.867 584.046 555.107 584.516 555.256C584.985 555.405 585.497 555.48 586.052 555.48H586.628ZM588.073 548.152C588.073 546.701 588.435 545.576 589.161 544.776C589.897 543.976 590.91 543.576 592.201 543.576C593.491 543.576 594.499 543.976 595.225 544.776C595.961 545.576 596.329 546.701 596.329 548.152V550.648C596.329 552.141 595.961 553.277 595.225 554.056C594.499 554.835 593.491 555.224 592.201 555.224C590.91 555.224 589.897 554.835 589.161 554.056C588.435 553.277 588.073 552.141 588.073 550.648V548.152ZM592.201 553.304C592.585 553.304 592.905 553.245 593.161 553.128C593.417 553 593.625 552.824 593.785 552.6C593.945 552.376 594.057 552.109 594.121 551.8C594.185 551.491 594.217 551.149 594.217 550.776V548.024C594.217 547.672 594.179 547.341 594.105 547.032C594.03 546.723 593.913 546.456 593.753 546.232C593.593 546.008 593.385 545.832 593.129 545.704C592.873 545.565 592.563 545.496 592.201 545.496C591.838 545.496 591.529 545.565 591.273 545.704C591.017 545.832 590.809 546.008 590.649 546.232C590.489 546.456 590.371 546.723 590.297 547.032C590.222 547.341 590.185 547.672 590.185 548.024V550.776C590.185 551.149 590.217 551.491 590.281 551.8C590.345 552.109 590.457 552.376 590.617 552.6C590.777 552.824 590.985 553 591.241 553.128C591.497 553.245 591.817 553.304 592.201 553.304ZM598.302 553.08H601.086V545.72H598.398V543.8H603.102V553.08H605.694V555H598.302V553.08ZM613.842 553.848H613.554C613.469 554.029 613.362 554.205 613.234 554.376C613.117 554.536 612.957 554.68 612.754 554.808C612.562 554.936 612.328 555.037 612.05 555.112C611.784 555.187 611.458 555.224 611.074 555.224C610.584 555.224 610.125 555.139 609.698 554.968C609.282 554.787 608.914 554.525 608.594 554.184C608.285 553.832 608.04 553.405 607.858 552.904C607.688 552.403 607.602 551.827 607.602 551.176V550.888C607.602 550.248 607.693 549.677 607.874 549.176C608.066 548.675 608.322 548.253 608.642 547.912C608.973 547.56 609.352 547.293 609.778 547.112C610.216 546.931 610.674 546.84 611.154 546.84C611.794 546.84 612.301 546.963 612.674 547.208C613.048 547.443 613.341 547.779 613.554 548.216H613.842V543.8H615.858V555H613.842V553.848ZM611.73 553.304C612.36 553.304 612.866 553.107 613.25 552.712C613.645 552.307 613.842 551.779 613.842 551.128V550.936C613.842 550.285 613.645 549.763 613.25 549.368C612.866 548.963 612.36 548.76 611.73 548.76C611.101 548.76 610.589 548.957 610.194 549.352C609.81 549.736 609.618 550.264 609.618 550.936V551.128C609.618 551.8 609.81 552.333 610.194 552.728C610.589 553.112 611.101 553.304 611.73 553.304ZM617.943 555.48C618.498 555.48 619.01 555.405 619.479 555.256C619.949 555.107 620.354 554.867 620.695 554.536C621.047 554.205 621.319 553.784 621.511 553.272C621.714 552.749 621.815 552.12 621.815 551.384V547.416C621.815 546.68 621.714 546.056 621.511 545.544C621.319 545.021 621.047 544.595 620.695 544.264C620.354 543.933 619.949 543.693 619.479 543.544C619.01 543.395 618.498 543.32 617.943 543.32H617.367V541.304H618.039C618.829 541.304 619.575 541.421 620.279 541.656C620.994 541.88 621.618 542.237 622.151 542.728C622.685 543.208 623.106 543.827 623.415 544.584C623.735 545.341 623.895 546.243 623.895 547.288V551.512C623.895 552.557 623.735 553.459 623.415 554.216C623.106 554.973 622.685 555.592 622.151 556.072C621.618 556.563 620.994 556.92 620.279 557.144C619.575 557.379 618.829 557.496 618.039 557.496H617.367V555.48H617.943Z" fill="black"/>
<path d="M418.65 528.984H419.706V521.816H418.65V519.8H423.562C424.095 519.8 424.565 519.875 424.97 520.024C425.386 520.173 425.733 520.376 426.01 520.632C426.298 520.888 426.511 521.197 426.65 521.56C426.799 521.912 426.874 522.296 426.874 522.712V522.904C426.874 523.544 426.693 524.056 426.33 524.44C425.978 524.824 425.53 525.091 424.986 525.24V525.528C425.53 525.677 425.978 525.949 426.33 526.344C426.693 526.728 426.874 527.24 426.874 527.88V528.072C426.874 528.488 426.799 528.877 426.65 529.24C426.511 529.592 426.298 529.901 426.01 530.168C425.733 530.424 425.386 530.627 424.97 530.776C424.565 530.925 424.095 531 423.562 531H418.65V528.984ZM421.818 528.984H423.354C423.802 528.984 424.165 528.888 424.442 528.696C424.719 528.504 424.858 528.184 424.858 527.736V527.64C424.858 527.192 424.719 526.872 424.442 526.68C424.165 526.488 423.802 526.392 423.354 526.392H421.818V528.984ZM421.818 524.376H423.354C423.802 524.376 424.165 524.285 424.442 524.104C424.719 523.912 424.858 523.592 424.858 523.144V523.048C424.858 522.6 424.719 522.285 424.442 522.104C424.165 521.912 423.802 521.816 423.354 521.816H421.818V524.376ZM428.575 519.8H436.639V521.816H433.663V531H431.551V521.816H428.575V519.8ZM443.924 529.944H444.212V519.8H446.324V531H442.196L440.884 520.856H440.596V531H438.484V519.8H442.612L443.924 529.944ZM466.222 531.48V533.496H465.55C464.76 533.496 464.008 533.379 463.294 533.144C462.59 532.92 461.971 532.563 461.438 532.072C460.904 531.592 460.478 530.973 460.158 530.216C459.848 529.459 459.694 528.557 459.694 527.512V523.288C459.694 522.243 459.848 521.341 460.158 520.584C460.478 519.827 460.904 519.208 461.438 518.728C461.971 518.237 462.59 517.88 463.294 517.656C464.008 517.421 464.76 517.304 465.55 517.304H466.222V519.32H465.646C465.091 519.32 464.579 519.395 464.11 519.544C463.64 519.693 463.23 519.933 462.878 520.264C462.536 520.595 462.264 521.021 462.062 521.544C461.87 522.056 461.774 522.68 461.774 523.416V527.384C461.774 528.12 461.87 528.749 462.062 529.272C462.264 529.784 462.536 530.205 462.878 530.536C463.23 530.867 463.64 531.107 464.11 531.256C464.579 531.405 465.091 531.48 465.646 531.48H466.222ZM473.314 529.944H473.602V519.8H475.714V531H471.586L470.274 520.856H469.986V531H467.874V519.8H472.002L473.314 529.944ZM479.719 527.688C479.73 527.923 479.783 528.141 479.879 528.344C479.986 528.536 480.125 528.707 480.295 528.856C480.477 528.995 480.679 529.107 480.903 529.192C481.138 529.267 481.383 529.304 481.639 529.304C482.141 529.304 482.525 529.219 482.791 529.048C483.058 528.867 483.25 528.653 483.367 528.408L485.095 529.368C484.999 529.571 484.866 529.784 484.695 530.008C484.525 530.221 484.301 530.419 484.023 530.6C483.757 530.781 483.426 530.931 483.031 531.048C482.647 531.165 482.194 531.224 481.671 531.224C481.074 531.224 480.53 531.128 480.039 530.936C479.549 530.744 479.122 530.467 478.759 530.104C478.407 529.741 478.13 529.299 477.927 528.776C477.735 528.253 477.639 527.661 477.639 527V526.904C477.639 526.296 477.741 525.741 477.943 525.24C478.157 524.739 478.445 524.312 478.807 523.96C479.17 523.608 479.591 523.336 480.071 523.144C480.562 522.941 481.085 522.84 481.639 522.84C482.322 522.84 482.909 522.963 483.399 523.208C483.89 523.443 484.295 523.747 484.615 524.12C484.935 524.483 485.17 524.888 485.319 525.336C485.469 525.773 485.543 526.2 485.543 526.616V527.688H479.719ZM481.623 524.664C481.111 524.664 480.695 524.797 480.375 525.064C480.055 525.32 479.847 525.619 479.751 525.96H483.495C483.431 525.587 483.229 525.277 482.887 525.032C482.557 524.787 482.135 524.664 481.623 524.664ZM495.516 531H492.028L491.58 524.984V524.024H491.196V524.984L490.748 531H487.26L486.732 523.064H488.588L488.94 529.08V530.04H489.324V529.08L489.724 523.064H493.052L493.452 529.08V530.04H493.836V529.08L494.188 523.064H496.044L495.516 531ZM497.537 531.48C498.092 531.48 498.604 531.405 499.073 531.256C499.542 531.107 499.948 530.867 500.289 530.536C500.641 530.205 500.913 529.784 501.105 529.272C501.308 528.749 501.409 528.12 501.409 527.384V523.416C501.409 522.68 501.308 522.056 501.105 521.544C500.913 521.021 500.641 520.595 500.289 520.264C499.948 519.933 499.542 519.693 499.073 519.544C498.604 519.395 498.092 519.32 497.537 519.32H496.961V517.304H497.633C498.422 517.304 499.169 517.421 499.873 517.656C500.588 517.88 501.212 518.237 501.745 518.728C502.278 519.208 502.7 519.827 503.009 520.584C503.329 521.341 503.489 522.243 503.489 523.288V527.512C503.489 528.557 503.329 529.459 503.009 530.216C502.7 530.973 502.278 531.592 501.745 532.072C501.212 532.563 500.588 532.92 499.873 533.144C499.169 533.379 498.422 533.496 497.633 533.496H496.961V531.48H497.537Z" fill="black"/>
<path d="M128.853 732.984H129.909V725.816H128.853V723.8H133.765C134.299 723.8 134.768 723.875 135.173 724.024C135.589 724.173 135.936 724.376 136.213 724.632C136.501 724.888 136.715 725.197 136.853 725.56C137.003 725.912 137.077 726.296 137.077 726.712V726.904C137.077 727.544 136.896 728.056 136.533 728.44C136.181 728.824 135.733 729.091 135.189 729.24V729.528C135.733 729.677 136.181 729.949 136.533 730.344C136.896 730.728 137.077 731.24 137.077 731.88V732.072C137.077 732.488 137.003 732.877 136.853 733.24C136.715 733.592 136.501 733.901 136.213 734.168C135.936 734.424 135.589 734.627 135.173 734.776C134.768 734.925 134.299 735 133.765 735H128.853V732.984ZM132.021 732.984H133.557C134.005 732.984 134.368 732.888 134.645 732.696C134.923 732.504 135.061 732.184 135.061 731.736V731.64C135.061 731.192 134.923 730.872 134.645 730.68C134.368 730.488 134.005 730.392 133.557 730.392H132.021V732.984ZM132.021 728.376H133.557C134.005 728.376 134.368 728.285 134.645 728.104C134.923 727.912 135.061 727.592 135.061 727.144V727.048C135.061 726.6 134.923 726.285 134.645 726.104C134.368 725.912 134.005 725.816 133.557 725.816H132.021V728.376ZM138.778 723.8H146.842V725.816H143.866V735H141.754V725.816H138.778V723.8ZM154.127 733.944H154.415V723.8H156.527V735H152.399L151.087 724.856H150.799V735H148.687V723.8H152.815L154.127 733.944ZM174.121 727.224C174.121 726.776 173.945 726.387 173.593 726.056C173.251 725.725 172.766 725.56 172.137 725.56C171.603 725.56 171.182 725.672 170.873 725.896C170.563 726.109 170.409 726.403 170.409 726.776C170.409 726.968 170.446 727.144 170.521 727.304C170.595 727.453 170.723 727.592 170.905 727.72C171.097 727.837 171.342 727.944 171.641 728.04C171.95 728.136 172.339 728.227 172.809 728.312C173.982 728.525 174.878 728.883 175.497 729.384C176.115 729.885 176.425 730.627 176.425 731.608V731.8C176.425 732.323 176.329 732.797 176.137 733.224C175.955 733.64 175.689 733.997 175.337 734.296C174.985 734.595 174.558 734.824 174.057 734.984C173.555 735.144 172.99 735.224 172.361 735.224C171.625 735.224 170.974 735.123 170.409 734.92C169.854 734.707 169.39 734.419 169.017 734.056C168.643 733.683 168.361 733.251 168.169 732.76C167.977 732.259 167.881 731.715 167.881 731.128V730.648H169.993V731.032C169.993 731.704 170.185 732.243 170.569 732.648C170.963 733.043 171.571 733.24 172.393 733.24C173.033 733.24 173.507 733.101 173.817 732.824C174.126 732.547 174.281 732.216 174.281 731.832C174.281 731.651 174.249 731.48 174.185 731.32C174.121 731.149 174.009 731 173.849 730.872C173.689 730.733 173.47 730.611 173.193 730.504C172.915 730.397 172.563 730.307 172.137 730.232C171.571 730.136 171.054 730.013 170.585 729.864C170.115 729.704 169.705 729.496 169.353 729.24C169.011 728.984 168.745 728.664 168.553 728.28C168.361 727.896 168.265 727.427 168.265 726.872V726.776C168.265 726.317 168.355 725.896 168.537 725.512C168.729 725.117 168.99 724.776 169.321 724.488C169.662 724.2 170.067 723.976 170.537 723.816C171.017 723.656 171.55 723.576 172.137 723.576C172.798 723.576 173.385 723.672 173.897 723.864C174.409 724.045 174.835 724.296 175.177 724.616C175.529 724.936 175.79 725.304 175.961 725.72C176.142 726.136 176.233 726.573 176.233 727.032V727.608H174.121V727.224ZM183.726 727.064H185.742V736.952C185.742 737.315 185.624 737.613 185.39 737.848C185.166 738.083 184.872 738.2 184.51 738.2H179.79V736.28H183.294C183.582 736.28 183.726 736.12 183.726 735.8V733.848H183.438C183.086 734.765 182.328 735.224 181.166 735.224C180.771 735.224 180.403 735.16 180.062 735.032C179.72 734.904 179.422 734.707 179.166 734.44C178.91 734.173 178.707 733.843 178.558 733.448C178.419 733.043 178.35 732.568 178.35 732.024V727.064H180.366V731.608C180.366 732.173 180.499 732.616 180.766 732.936C181.032 733.245 181.432 733.4 181.966 733.4C182.574 733.4 183.016 733.208 183.294 732.824C183.582 732.429 183.726 731.896 183.726 731.224V727.064ZM193.282 733.848C193.069 734.349 192.77 734.707 192.386 734.92C192.002 735.123 191.554 735.224 191.042 735.224C190.562 735.224 190.109 735.133 189.682 734.952C189.266 734.771 188.898 734.504 188.578 734.152C188.258 733.8 188.002 733.373 187.81 732.872C187.629 732.371 187.538 731.8 187.538 731.16V730.904C187.538 730.275 187.629 729.709 187.81 729.208C187.992 728.707 188.237 728.28 188.546 727.928C188.856 727.576 189.213 727.309 189.618 727.128C190.034 726.936 190.477 726.84 190.946 726.84C191.512 726.84 191.965 726.936 192.306 727.128C192.658 727.32 192.936 727.619 193.138 728.024H193.426V727.064H195.442V732.6C195.442 732.92 195.586 733.08 195.874 733.08H196.178V735H194.802C194.44 735 194.141 734.893 193.906 734.68C193.682 734.467 193.57 734.189 193.57 733.848H193.282ZM191.49 733.304C192.077 733.304 192.546 733.112 192.898 732.728C193.25 732.333 193.426 731.8 193.426 731.128V730.936C193.426 730.264 193.25 729.736 192.898 729.352C192.546 728.957 192.077 728.76 191.49 728.76C190.904 728.76 190.434 728.957 190.082 729.352C189.73 729.736 189.554 730.264 189.554 730.936V731.128C189.554 731.8 189.73 732.333 190.082 732.728C190.434 733.112 190.904 733.304 191.49 733.304ZM197.559 727.064H200.919V728.216H201.207C201.357 727.779 201.607 727.443 201.959 727.208C202.322 726.963 202.754 726.84 203.255 726.84C204.045 726.84 204.679 727.091 205.159 727.592C205.639 728.083 205.879 728.835 205.879 729.848V730.2L203.799 730.392V730.168C203.799 729.731 203.687 729.384 203.463 729.128C203.239 728.861 202.903 728.728 202.455 728.728C202.007 728.728 201.655 728.883 201.399 729.192C201.143 729.501 201.015 729.944 201.015 730.52V733.08H202.839V735H197.367V733.08H198.999V728.984H197.559V727.064ZM207.884 733.08H210.572V728.984H208.076V727.064H212.588V733.08H214.892V735H207.884V733.08ZM213.084 724.712C213.084 724.925 213.042 725.128 212.956 725.32C212.882 725.501 212.775 725.661 212.636 725.8C212.498 725.928 212.332 726.035 212.14 726.12C211.959 726.195 211.767 726.232 211.564 726.232C211.351 726.232 211.154 726.195 210.972 726.12C210.791 726.035 210.631 725.928 210.492 725.8C210.354 725.661 210.242 725.501 210.156 725.32C210.082 725.128 210.044 724.925 210.044 724.712C210.044 724.499 210.082 724.301 210.156 724.12C210.242 723.928 210.354 723.768 210.492 723.64C210.631 723.501 210.791 723.395 210.972 723.32C211.154 723.235 211.351 723.192 211.564 723.192C211.767 723.192 211.959 723.235 212.14 723.32C212.332 723.395 212.498 723.501 212.636 723.64C212.775 723.768 212.882 723.928 212.956 724.12C213.042 724.301 213.084 724.499 213.084 724.712ZM222.673 733.848C222.46 734.349 222.161 734.707 221.777 734.92C221.393 735.123 220.945 735.224 220.433 735.224C219.953 735.224 219.5 735.133 219.073 734.952C218.657 734.771 218.289 734.504 217.969 734.152C217.649 733.8 217.393 733.373 217.201 732.872C217.02 732.371 216.929 731.8 216.929 731.16V730.904C216.929 730.275 217.02 729.709 217.201 729.208C217.382 728.707 217.628 728.28 217.937 727.928C218.246 727.576 218.604 727.309 219.009 727.128C219.425 726.936 219.868 726.84 220.337 726.84C220.902 726.84 221.356 726.936 221.697 727.128C222.049 727.32 222.326 727.619 222.529 728.024H222.817V727.064H224.833V732.6C224.833 732.92 224.977 733.08 225.265 733.08H225.569V735H224.193C223.83 735 223.532 734.893 223.297 734.68C223.073 734.467 222.961 734.189 222.961 733.848H222.673ZM220.881 733.304C221.468 733.304 221.937 733.112 222.289 732.728C222.641 732.333 222.817 731.8 222.817 731.128V730.936C222.817 730.264 222.641 729.736 222.289 729.352C221.937 728.957 221.468 728.76 220.881 728.76C220.294 728.76 219.825 728.957 219.473 729.352C219.121 729.736 218.945 730.264 218.945 730.936V731.128C218.945 731.8 219.121 732.333 219.473 732.728C219.825 733.112 220.294 733.304 220.881 733.304ZM229.382 735H227.366V723.8H229.382V728.344H229.67C229.873 727.864 230.171 727.496 230.566 727.24C230.961 726.973 231.446 726.84 232.022 726.84C232.417 726.84 232.779 726.904 233.11 727.032C233.441 727.16 233.729 727.352 233.974 727.608C234.219 727.864 234.411 728.195 234.55 728.6C234.689 728.995 234.758 729.464 234.758 730.008V735H232.742V730.488C232.742 729.923 232.603 729.48 232.326 729.16C232.059 728.829 231.67 728.664 231.158 728.664C230.561 728.664 230.113 728.867 229.814 729.272C229.526 729.667 229.382 730.2 229.382 730.872V735ZM166.628 759.48V761.496H165.956C165.166 761.496 164.414 761.379 163.7 761.144C162.996 760.92 162.377 760.563 161.844 760.072C161.31 759.592 160.884 758.973 160.564 758.216C160.254 757.459 160.1 756.557 160.1 755.512V751.288C160.1 750.243 160.254 749.341 160.564 748.584C160.884 747.827 161.31 747.208 161.844 746.728C162.377 746.237 162.996 745.88 163.7 745.656C164.414 745.421 165.166 745.304 165.956 745.304H166.628V747.32H166.052C165.497 747.32 164.985 747.395 164.516 747.544C164.046 747.693 163.636 747.933 163.284 748.264C162.942 748.595 162.67 749.021 162.468 749.544C162.276 750.056 162.18 750.68 162.18 751.416V755.384C162.18 756.12 162.276 756.749 162.468 757.272C162.67 757.784 162.942 758.205 163.284 758.536C163.636 758.867 164.046 759.107 164.516 759.256C164.985 759.405 165.497 759.48 166.052 759.48H166.628ZM173.721 757.944H174.009V747.8H176.121V759H171.993L170.681 748.856H170.393V759H168.281V747.8H172.409L173.721 757.944ZM180.126 755.688C180.136 755.923 180.19 756.141 180.286 756.344C180.392 756.536 180.531 756.707 180.702 756.856C180.883 756.995 181.086 757.107 181.31 757.192C181.544 757.267 181.79 757.304 182.046 757.304C182.547 757.304 182.931 757.219 183.198 757.048C183.464 756.867 183.656 756.653 183.774 756.408L185.502 757.368C185.406 757.571 185.272 757.784 185.102 758.008C184.931 758.221 184.707 758.419 184.43 758.6C184.163 758.781 183.832 758.931 183.438 759.048C183.054 759.165 182.6 759.224 182.078 759.224C181.48 759.224 180.936 759.128 180.446 758.936C179.955 758.744 179.528 758.467 179.166 758.104C178.814 757.741 178.536 757.299 178.334 756.776C178.142 756.253 178.046 755.661 178.046 755V754.904C178.046 754.296 178.147 753.741 178.35 753.24C178.563 752.739 178.851 752.312 179.214 751.96C179.576 751.608 179.998 751.336 180.478 751.144C180.968 750.941 181.491 750.84 182.046 750.84C182.728 750.84 183.315 750.963 183.806 751.208C184.296 751.443 184.702 751.747 185.022 752.12C185.342 752.483 185.576 752.888 185.726 753.336C185.875 753.773 185.95 754.2 185.95 754.616V755.688H180.126ZM182.03 752.664C181.518 752.664 181.102 752.797 180.782 753.064C180.462 753.32 180.254 753.619 180.158 753.96H183.902C183.838 753.587 183.635 753.277 183.294 753.032C182.963 752.787 182.542 752.664 182.03 752.664ZM195.922 759H192.434L191.986 752.984V752.024H191.602V752.984L191.154 759H187.666L187.138 751.064H188.994L189.346 757.08V758.04H189.73V757.08L190.13 751.064H193.458L193.858 757.08V758.04H194.242V757.08L194.594 751.064H196.45L195.922 759ZM197.943 759.48C198.498 759.48 199.01 759.405 199.479 759.256C199.949 759.107 200.354 758.867 200.695 758.536C201.047 758.205 201.319 757.784 201.511 757.272C201.714 756.749 201.815 756.12 201.815 755.384V751.416C201.815 750.68 201.714 750.056 201.511 749.544C201.319 749.021 201.047 748.595 200.695 748.264C200.354 747.933 199.949 747.693 199.479 747.544C199.01 747.395 198.498 747.32 197.943 747.32H197.367V745.304H198.039C198.829 745.304 199.575 745.421 200.279 745.656C200.994 745.88 201.618 746.237 202.151 746.728C202.685 747.208 203.106 747.827 203.415 748.584C203.735 749.341 203.895 750.243 203.895 751.288V755.512C203.895 756.557 203.735 757.459 203.415 758.216C203.106 758.973 202.685 759.592 202.151 760.072C201.618 760.563 200.994 760.92 200.279 761.144C199.575 761.379 198.829 761.496 198.039 761.496H197.367V759.48H197.943Z" fill="black"/>
<path d="M278.65 528.984H279.706V521.816H278.65V519.8H283.562C284.095 519.8 284.565 519.875 284.97 520.024C285.386 520.173 285.733 520.376 286.01 520.632C286.298 520.888 286.511 521.197 286.65 521.56C286.799 521.912 286.874 522.296 286.874 522.712V522.904C286.874 523.544 286.693 524.056 286.33 524.44C285.978 524.824 285.53 525.091 284.986 525.24V525.528C285.53 525.677 285.978 525.949 286.33 526.344C286.693 526.728 286.874 527.24 286.874 527.88V528.072C286.874 528.488 286.799 528.877 286.65 529.24C286.511 529.592 286.298 529.901 286.01 530.168C285.733 530.424 285.386 530.627 284.97 530.776C284.565 530.925 284.095 531 283.562 531H278.65V528.984ZM281.818 528.984H283.354C283.802 528.984 284.165 528.888 284.442 528.696C284.719 528.504 284.858 528.184 284.858 527.736V527.64C284.858 527.192 284.719 526.872 284.442 526.68C284.165 526.488 283.802 526.392 283.354 526.392H281.818V528.984ZM281.818 524.376H283.354C283.802 524.376 284.165 524.285 284.442 524.104C284.719 523.912 284.858 523.592 284.858 523.144V523.048C284.858 522.6 284.719 522.285 284.442 522.104C284.165 521.912 283.802 521.816 283.354 521.816H281.818V524.376ZM288.575 519.8H296.639V521.816H293.663V531H291.551V521.816H288.575V519.8ZM303.924 529.944H304.212V519.8H306.324V531H302.196L300.884 520.856H300.596V531H298.484V519.8H302.612L303.924 529.944ZM326.222 531.48V533.496H325.55C324.76 533.496 324.008 533.379 323.294 533.144C322.59 532.92 321.971 532.563 321.438 532.072C320.904 531.592 320.478 530.973 320.158 530.216C319.848 529.459 319.694 528.557 319.694 527.512V523.288C319.694 522.243 319.848 521.341 320.158 520.584C320.478 519.827 320.904 519.208 321.438 518.728C321.971 518.237 322.59 517.88 323.294 517.656C324.008 517.421 324.76 517.304 325.55 517.304H326.222V519.32H325.646C325.091 519.32 324.579 519.395 324.11 519.544C323.64 519.693 323.23 519.933 322.878 520.264C322.536 520.595 322.264 521.021 322.062 521.544C321.87 522.056 321.774 522.68 321.774 523.416V527.384C321.774 528.12 321.87 528.749 322.062 529.272C322.264 529.784 322.536 530.205 322.878 530.536C323.23 530.867 323.64 531.107 324.11 531.256C324.579 531.405 325.091 531.48 325.646 531.48H326.222ZM333.698 528.6H329.89L329.346 531H327.138L329.81 519.8H333.778L336.45 531H334.242L333.698 528.6ZM330.338 526.584H333.234L331.938 520.856H331.65L330.338 526.584ZM337.895 529.08H340.679V521.72H337.991V519.8H342.695V529.08H345.287V531H337.895V529.08ZM347.516 523.064H349.868V519.8H351.884V523.064H354.748V524.984H351.884V528.6C351.884 528.92 352.028 529.08 352.316 529.08H354.46V531H351.1C350.738 531 350.439 530.883 350.204 530.648C349.98 530.413 349.868 530.115 349.868 529.752V524.984H347.516V523.064ZM357.537 531.48C358.092 531.48 358.604 531.405 359.073 531.256C359.542 531.107 359.948 530.867 360.289 530.536C360.641 530.205 360.913 529.784 361.105 529.272C361.308 528.749 361.409 528.12 361.409 527.384V523.416C361.409 522.68 361.308 522.056 361.105 521.544C360.913 521.021 360.641 520.595 360.289 520.264C359.948 519.933 359.542 519.693 359.073 519.544C358.604 519.395 358.092 519.32 357.537 519.32H356.961V517.304H357.633C358.422 517.304 359.169 517.421 359.873 517.656C360.588 517.88 361.212 518.237 361.745 518.728C362.278 519.208 362.7 519.827 363.009 520.584C363.329 521.341 363.489 522.243 363.489 523.288V527.512C363.489 528.557 363.329 529.459 363.009 530.216C362.7 530.973 362.278 531.592 361.745 532.072C361.212 532.563 360.588 532.92 359.873 533.144C359.169 533.379 358.422 533.496 357.633 533.496H356.961V531.48H357.537Z" fill="black"/>
<path d="M168.041 528.984H169.097V521.816H168.041V519.8H172.953C173.486 519.8 173.955 519.875 174.361 520.024C174.777 520.173 175.123 520.376 175.401 520.632C175.689 520.888 175.902 521.197 176.041 521.56C176.19 521.912 176.265 522.296 176.265 522.712V522.904C176.265 523.544 176.083 524.056 175.721 524.44C175.369 524.824 174.921 525.091 174.377 525.24V525.528C174.921 525.677 175.369 525.949 175.721 526.344C176.083 526.728 176.265 527.24 176.265 527.88V528.072C176.265 528.488 176.19 528.877 176.041 529.24C175.902 529.592 175.689 529.901 175.401 530.168C175.123 530.424 174.777 530.627 174.361 530.776C173.955 530.925 173.486 531 172.953 531H168.041V528.984ZM171.209 528.984H172.745C173.193 528.984 173.555 528.888 173.833 528.696C174.11 528.504 174.249 528.184 174.249 527.736V527.64C174.249 527.192 174.11 526.872 173.833 526.68C173.555 526.488 173.193 526.392 172.745 526.392H171.209V528.984ZM171.209 524.376H172.745C173.193 524.376 173.555 524.285 173.833 524.104C174.11 523.912 174.249 523.592 174.249 523.144V523.048C174.249 522.6 174.11 522.285 173.833 522.104C173.555 521.912 173.193 521.816 172.745 521.816H171.209V524.376ZM177.966 519.8H186.03V521.816H183.054V531H180.942V521.816H177.966V519.8ZM193.314 529.944H193.602V519.8H195.714V531H191.586L190.274 520.856H189.986V531H187.874V519.8H192.002L193.314 529.944Z" fill="black"/>
<path d="M448.041 324.984H449.097V317.816H448.041V315.8H452.953C453.486 315.8 453.955 315.875 454.361 316.024C454.777 316.173 455.123 316.376 455.401 316.632C455.689 316.888 455.902 317.197 456.041 317.56C456.19 317.912 456.265 318.296 456.265 318.712V318.904C456.265 319.544 456.083 320.056 455.721 320.44C455.369 320.824 454.921 321.091 454.377 321.24V321.528C454.921 321.677 455.369 321.949 455.721 322.344C456.083 322.728 456.265 323.24 456.265 323.88V324.072C456.265 324.488 456.19 324.877 456.041 325.24C455.902 325.592 455.689 325.901 455.401 326.168C455.123 326.424 454.777 326.627 454.361 326.776C453.955 326.925 453.486 327 452.953 327H448.041V324.984ZM451.209 324.984H452.745C453.193 324.984 453.555 324.888 453.833 324.696C454.11 324.504 454.249 324.184 454.249 323.736V323.64C454.249 323.192 454.11 322.872 453.833 322.68C453.555 322.488 453.193 322.392 452.745 322.392H451.209V324.984ZM451.209 320.376H452.745C453.193 320.376 453.555 320.285 453.833 320.104C454.11 319.912 454.249 319.592 454.249 319.144V319.048C454.249 318.6 454.11 318.285 453.833 318.104C453.555 317.912 453.193 317.816 452.745 317.816H451.209V320.376ZM465.79 327H463.678V323.64C463.678 323.384 463.608 323.176 463.47 323.016C463.342 322.856 463.123 322.776 462.814 322.776H460.382V327H458.27V315.8H462.558C463.134 315.8 463.64 315.88 464.078 316.04C464.515 316.2 464.878 316.424 465.166 316.712C465.464 316.989 465.688 317.315 465.838 317.688C465.998 318.061 466.078 318.461 466.078 318.888V319.272C466.078 319.731 465.955 320.163 465.71 320.568C465.464 320.963 465.086 321.267 464.574 321.48V321.768C464.947 321.811 465.24 321.955 465.454 322.2C465.678 322.445 465.79 322.755 465.79 323.128V327ZM460.382 320.76H462.398C462.91 320.76 463.299 320.643 463.566 320.408C463.832 320.163 463.966 319.821 463.966 319.384V319.192C463.966 318.819 463.832 318.499 463.566 318.232C463.299 317.955 462.91 317.816 462.398 317.816H460.382V320.76ZM468.05 315.8H475.538V317.816H472.85V324.984H475.538V327H468.05V324.984H470.738V317.816H468.05V315.8ZM422.136 351.48V353.496H421.464C420.674 353.496 419.922 353.379 419.208 353.144C418.504 352.92 417.885 352.563 417.352 352.072C416.818 351.592 416.392 350.973 416.072 350.216C415.762 349.459 415.608 348.557 415.608 347.512V343.288C415.608 342.243 415.762 341.341 416.072 340.584C416.392 339.827 416.818 339.208 417.352 338.728C417.885 338.237 418.504 337.88 419.208 337.656C419.922 337.421 420.674 337.304 421.464 337.304H422.136V339.32H421.56C421.005 339.32 420.493 339.395 420.024 339.544C419.554 339.693 419.144 339.933 418.792 340.264C418.45 340.595 418.178 341.021 417.976 341.544C417.784 342.056 417.688 342.68 417.688 343.416V347.384C417.688 348.12 417.784 348.749 417.976 349.272C418.178 349.784 418.45 350.205 418.792 350.536C419.144 350.867 419.554 351.107 420.024 351.256C420.493 351.405 421.005 351.48 421.56 351.48H422.136ZM423.197 339.8H425.373L427.565 349.944H427.853L430.045 339.8H432.22L429.693 351H425.725L423.197 339.8ZM435.633 347.688C435.644 347.923 435.697 348.141 435.793 348.344C435.9 348.536 436.039 348.707 436.209 348.856C436.391 348.995 436.593 349.107 436.817 349.192C437.052 349.267 437.297 349.304 437.553 349.304C438.055 349.304 438.439 349.219 438.705 349.048C438.972 348.867 439.164 348.653 439.281 348.408L441.009 349.368C440.913 349.571 440.78 349.784 440.609 350.008C440.439 350.221 440.215 350.419 439.937 350.6C439.671 350.781 439.34 350.931 438.945 351.048C438.561 351.165 438.108 351.224 437.585 351.224C436.988 351.224 436.444 351.128 435.953 350.936C435.463 350.744 435.036 350.467 434.673 350.104C434.321 349.741 434.044 349.299 433.841 348.776C433.649 348.253 433.553 347.661 433.553 347V346.904C433.553 346.296 433.655 345.741 433.857 345.24C434.071 344.739 434.359 344.312 434.721 343.96C435.084 343.608 435.505 343.336 435.985 343.144C436.476 342.941 436.999 342.84 437.553 342.84C438.236 342.84 438.823 342.963 439.313 343.208C439.804 343.443 440.209 343.747 440.529 344.12C440.849 344.483 441.084 344.888 441.233 345.336C441.383 345.773 441.457 346.2 441.457 346.616V347.688H435.633ZM437.537 344.664C437.025 344.664 436.609 344.797 436.289 345.064C435.969 345.32 435.761 345.619 435.665 345.96H439.409C439.345 345.587 439.143 345.277 438.801 345.032C438.471 344.787 438.049 344.664 437.537 344.664ZM443.27 343.064H446.63V344.216H446.918C447.068 343.779 447.318 343.443 447.67 343.208C448.033 342.963 448.465 342.84 448.966 342.84C449.756 342.84 450.39 343.091 450.87 343.592C451.35 344.083 451.59 344.835 451.59 345.848V346.2L449.51 346.392V346.168C449.51 345.731 449.398 345.384 449.174 345.128C448.95 344.861 448.614 344.728 448.166 344.728C447.718 344.728 447.366 344.883 447.11 345.192C446.854 345.501 446.726 345.944 446.726 346.52V349.08H448.55V351H443.078V349.08H444.71V344.984H443.27V343.064ZM453.227 343.064H455.579V339.8H457.595V343.064H460.459V344.984H457.595V348.6C457.595 348.92 457.739 349.08 458.027 349.08H460.171V351H456.811C456.448 351 456.15 350.883 455.915 350.648C455.691 350.413 455.579 350.115 455.579 349.752V344.984H453.227V343.064ZM463.392 349.08H466.08V344.984H463.584V343.064H468.096V349.08H470.4V351H463.392V349.08ZM468.592 340.712C468.592 340.925 468.549 341.128 468.464 341.32C468.389 341.501 468.283 341.661 468.144 341.8C468.005 341.928 467.84 342.035 467.648 342.12C467.467 342.195 467.275 342.232 467.072 342.232C466.859 342.232 466.661 342.195 466.48 342.12C466.299 342.035 466.139 341.928 466 341.8C465.861 341.661 465.749 341.501 465.664 341.32C465.589 341.128 465.552 340.925 465.552 340.712C465.552 340.499 465.589 340.301 465.664 340.12C465.749 339.928 465.861 339.768 466 339.64C466.139 339.501 466.299 339.395 466.48 339.32C466.661 339.235 466.859 339.192 467.072 339.192C467.275 339.192 467.467 339.235 467.648 339.32C467.84 339.395 468.005 339.501 468.144 339.64C468.283 339.768 468.389 339.928 468.464 340.12C468.549 340.301 468.592 340.499 468.592 340.712ZM480.789 348.088C480.608 349.027 480.176 349.784 479.493 350.36C478.821 350.936 477.92 351.224 476.789 351.224C476.202 351.224 475.653 351.133 475.141 350.952C474.64 350.771 474.202 350.509 473.829 350.168C473.456 349.827 473.162 349.405 472.949 348.904C472.736 348.403 472.629 347.832 472.629 347.192V347C472.629 346.36 472.736 345.784 472.949 345.272C473.162 344.76 473.456 344.323 473.829 343.96C474.213 343.597 474.656 343.32 475.157 343.128C475.669 342.936 476.213 342.84 476.789 342.84C477.898 342.84 478.794 343.128 479.477 343.704C480.17 344.28 480.608 345.037 480.789 345.976L478.805 346.488C478.741 346.019 478.538 345.613 478.197 345.272C477.856 344.931 477.376 344.76 476.757 344.76C476.469 344.76 476.197 344.813 475.941 344.92C475.685 345.027 475.461 345.181 475.269 345.384C475.077 345.576 474.922 345.816 474.805 346.104C474.698 346.381 474.645 346.696 474.645 347.048V347.144C474.645 347.496 474.698 347.811 474.805 348.088C474.922 348.355 475.077 348.579 475.269 348.76C475.461 348.941 475.685 349.08 475.941 349.176C476.197 349.261 476.469 349.304 476.757 349.304C477.376 349.304 477.845 349.149 478.165 348.84C478.496 348.531 478.709 348.115 478.805 347.592L480.789 348.088ZM487.978 349.848C487.764 350.349 487.466 350.707 487.082 350.92C486.698 351.123 486.25 351.224 485.738 351.224C485.258 351.224 484.804 351.133 484.378 350.952C483.962 350.771 483.594 350.504 483.274 350.152C482.954 349.8 482.698 349.373 482.506 348.872C482.324 348.371 482.234 347.8 482.234 347.16V346.904C482.234 346.275 482.324 345.709 482.506 345.208C482.687 344.707 482.932 344.28 483.242 343.928C483.551 343.576 483.908 343.309 484.314 343.128C484.73 342.936 485.172 342.84 485.642 342.84C486.207 342.84 486.66 342.936 487.002 343.128C487.354 343.32 487.631 343.619 487.834 344.024H488.122V343.064H490.138V348.6C490.138 348.92 490.282 349.08 490.57 349.08H490.874V351H489.498C489.135 351 488.836 350.893 488.602 350.68C488.378 350.467 488.266 350.189 488.266 349.848H487.978ZM486.186 349.304C486.772 349.304 487.242 349.112 487.594 348.728C487.946 348.333 488.122 347.8 488.122 347.128V346.936C488.122 346.264 487.946 345.736 487.594 345.352C487.242 344.957 486.772 344.76 486.186 344.76C485.599 344.76 485.13 344.957 484.778 345.352C484.426 345.736 484.25 346.264 484.25 346.936V347.128C484.25 347.8 484.426 348.333 484.778 348.728C485.13 349.112 485.599 349.304 486.186 349.304ZM492.591 349.08H495.375V341.72H492.687V339.8H497.391V349.08H499.983V351H492.591V349.08ZM502.436 351.48C502.99 351.48 503.502 351.405 503.972 351.256C504.441 351.107 504.846 350.867 505.188 350.536C505.54 350.205 505.812 349.784 506.004 349.272C506.206 348.749 506.308 348.12 506.308 347.384V343.416C506.308 342.68 506.206 342.056 506.004 341.544C505.812 341.021 505.54 340.595 505.188 340.264C504.846 339.933 504.441 339.693 503.972 339.544C503.502 339.395 502.99 339.32 502.436 339.32H501.86V337.304H502.532C503.321 337.304 504.068 337.421 504.772 337.656C505.486 337.88 506.11 338.237 506.644 338.728C507.177 339.208 507.598 339.827 507.908 340.584C508.228 341.341 508.388 342.243 508.388 343.288V347.512C508.388 348.557 508.228 349.459 507.908 350.216C507.598 350.973 507.177 351.592 506.644 352.072C506.11 352.563 505.486 352.92 504.772 353.144C504.068 353.379 503.321 353.496 502.532 353.496H501.86V351.48H502.436Z" fill="black"/>
<path d="M558.65 324.984H559.706V317.816H558.65V315.8H563.562C564.095 315.8 564.565 315.875 564.97 316.024C565.386 316.173 565.733 316.376 566.01 316.632C566.298 316.888 566.511 317.197 566.65 317.56C566.799 317.912 566.874 318.296 566.874 318.712V318.904C566.874 319.544 566.693 320.056 566.33 320.44C565.978 320.824 565.53 321.091 564.986 321.24V321.528C565.53 321.677 565.978 321.949 566.33 322.344C566.693 322.728 566.874 323.24 566.874 323.88V324.072C566.874 324.488 566.799 324.877 566.65 325.24C566.511 325.592 566.298 325.901 566.01 326.168C565.733 326.424 565.386 326.627 564.97 326.776C564.565 326.925 564.095 327 563.562 327H558.65V324.984ZM561.818 324.984H563.354C563.802 324.984 564.165 324.888 564.442 324.696C564.719 324.504 564.858 324.184 564.858 323.736V323.64C564.858 323.192 564.719 322.872 564.442 322.68C564.165 322.488 563.802 322.392 563.354 322.392H561.818V324.984ZM561.818 320.376H563.354C563.802 320.376 564.165 320.285 564.442 320.104C564.719 319.912 564.858 319.592 564.858 319.144V319.048C564.858 318.6 564.719 318.285 564.442 318.104C564.165 317.912 563.802 317.816 563.354 317.816H561.818V320.376ZM576.399 327H574.287V323.64C574.287 323.384 574.218 323.176 574.079 323.016C573.951 322.856 573.732 322.776 573.423 322.776H570.991V327H568.879V315.8H573.167C573.743 315.8 574.25 315.88 574.687 316.04C575.124 316.2 575.487 316.424 575.775 316.712C576.074 316.989 576.298 317.315 576.447 317.688C576.607 318.061 576.687 318.461 576.687 318.888V319.272C576.687 319.731 576.564 320.163 576.319 320.568C576.074 320.963 575.695 321.267 575.183 321.48V321.768C575.556 321.811 575.85 321.955 576.063 322.2C576.287 322.445 576.399 322.755 576.399 323.128V327ZM570.991 320.76H573.007C573.519 320.76 573.908 320.643 574.175 320.408C574.442 320.163 574.575 319.821 574.575 319.384V319.192C574.575 318.819 574.442 318.499 574.175 318.232C573.908 317.955 573.519 317.816 573.007 317.816H570.991V320.76ZM578.66 315.8H586.148V317.816H583.46V324.984H586.148V327H578.66V324.984H581.348V317.816H578.66V315.8ZM606.222 327.48V329.496H605.55C604.76 329.496 604.008 329.379 603.294 329.144C602.59 328.92 601.971 328.563 601.438 328.072C600.904 327.592 600.478 326.973 600.158 326.216C599.848 325.459 599.694 324.557 599.694 323.512V319.288C599.694 318.243 599.848 317.341 600.158 316.584C600.478 315.827 600.904 315.208 601.438 314.728C601.971 314.237 602.59 313.88 603.294 313.656C604.008 313.421 604.76 313.304 605.55 313.304H606.222V315.32H605.646C605.091 315.32 604.579 315.395 604.11 315.544C603.64 315.693 603.23 315.933 602.878 316.264C602.536 316.595 602.264 317.021 602.062 317.544C601.87 318.056 601.774 318.68 601.774 319.416V323.384C601.774 324.12 601.87 324.749 602.062 325.272C602.264 325.784 602.536 326.205 602.878 326.536C603.23 326.867 603.64 327.107 604.11 327.256C604.579 327.405 605.091 327.48 605.646 327.48H606.222ZM613.698 324.6H609.89L609.346 327H607.138L609.81 315.8H613.778L616.45 327H614.242L613.698 324.6ZM610.338 322.584H613.234L611.938 316.856H611.65L610.338 322.584ZM617.895 325.08H620.679V317.72H617.991V315.8H622.695V325.08H625.287V327H617.895V325.08ZM627.516 319.064H629.868V315.8H631.884V319.064H634.748V320.984H631.884V324.6C631.884 324.92 632.028 325.08 632.316 325.08H634.46V327H631.1C630.738 327 630.439 326.883 630.204 326.648C629.98 326.413 629.868 326.115 629.868 325.752V320.984H627.516V319.064ZM637.537 327.48C638.092 327.48 638.604 327.405 639.073 327.256C639.542 327.107 639.948 326.867 640.289 326.536C640.641 326.205 640.913 325.784 641.105 325.272C641.308 324.749 641.409 324.12 641.409 323.384V319.416C641.409 318.68 641.308 318.056 641.105 317.544C640.913 317.021 640.641 316.595 640.289 316.264C639.948 315.933 639.542 315.693 639.073 315.544C638.604 315.395 638.092 315.32 637.537 315.32H636.961V313.304H637.633C638.422 313.304 639.169 313.421 639.873 313.656C640.588 313.88 641.212 314.237 641.745 314.728C642.278 315.208 642.7 315.827 643.009 316.584C643.329 317.341 643.489 318.243 643.489 319.288V323.512C643.489 324.557 643.329 325.459 643.009 326.216C642.7 326.973 642.278 327.592 641.745 328.072C641.212 328.563 640.588 328.92 639.873 329.144C639.169 329.379 638.422 329.496 637.633 329.496H636.961V327.48H637.537Z" fill="black"/>
<path d="M308.041 324.984H309.097V317.816H308.041V315.8H312.953C313.486 315.8 313.955 315.875 314.361 316.024C314.777 316.173 315.123 316.376 315.401 316.632C315.689 316.888 315.902 317.197 316.041 317.56C316.19 317.912 316.265 318.296 316.265 318.712V318.904C316.265 319.544 316.083 320.056 315.721 320.44C315.369 320.824 314.921 321.091 314.377 321.24V321.528C314.921 321.677 315.369 321.949 315.721 322.344C316.083 322.728 316.265 323.24 316.265 323.88V324.072C316.265 324.488 316.19 324.877 316.041 325.24C315.902 325.592 315.689 325.901 315.401 326.168C315.123 326.424 314.777 326.627 314.361 326.776C313.955 326.925 313.486 327 312.953 327H308.041V324.984ZM311.209 324.984H312.745C313.193 324.984 313.555 324.888 313.833 324.696C314.11 324.504 314.249 324.184 314.249 323.736V323.64C314.249 323.192 314.11 322.872 313.833 322.68C313.555 322.488 313.193 322.392 312.745 322.392H311.209V324.984ZM311.209 320.376H312.745C313.193 320.376 313.555 320.285 313.833 320.104C314.11 319.912 314.249 319.592 314.249 319.144V319.048C314.249 318.6 314.11 318.285 313.833 318.104C313.555 317.912 313.193 317.816 312.745 317.816H311.209V320.376ZM325.79 327H323.678V323.64C323.678 323.384 323.608 323.176 323.47 323.016C323.342 322.856 323.123 322.776 322.814 322.776H320.382V327H318.27V315.8H322.558C323.134 315.8 323.64 315.88 324.078 316.04C324.515 316.2 324.878 316.424 325.166 316.712C325.464 316.989 325.688 317.315 325.838 317.688C325.998 318.061 326.078 318.461 326.078 318.888V319.272C326.078 319.731 325.955 320.163 325.71 320.568C325.464 320.963 325.086 321.267 324.574 321.48V321.768C324.947 321.811 325.24 321.955 325.454 322.2C325.678 322.445 325.79 322.755 325.79 323.128V327ZM320.382 320.76H322.398C322.91 320.76 323.299 320.643 323.566 320.408C323.832 320.163 323.966 319.821 323.966 319.384V319.192C323.966 318.819 323.832 318.499 323.566 318.232C323.299 317.955 322.91 317.816 322.398 317.816H320.382V320.76ZM328.05 315.8H335.538V317.816H332.85V324.984H335.538V327H328.05V324.984H330.738V317.816H328.05V315.8Z" fill="black"/>
<path d="M168.041 324.984H169.097V317.816H168.041V315.8H172.953C173.486 315.8 173.955 315.875 174.361 316.024C174.777 316.173 175.123 316.376 175.401 316.632C175.689 316.888 175.902 317.197 176.041 317.56C176.19 317.912 176.265 318.296 176.265 318.712V318.904C176.265 319.544 176.083 320.056 175.721 320.44C175.369 320.824 174.921 321.091 174.377 321.24V321.528C174.921 321.677 175.369 321.949 175.721 322.344C176.083 322.728 176.265 323.24 176.265 323.88V324.072C176.265 324.488 176.19 324.877 176.041 325.24C175.902 325.592 175.689 325.901 175.401 326.168C175.123 326.424 174.777 326.627 174.361 326.776C173.955 326.925 173.486 327 172.953 327H168.041V324.984ZM171.209 324.984H172.745C173.193 324.984 173.555 324.888 173.833 324.696C174.11 324.504 174.249 324.184 174.249 323.736V323.64C174.249 323.192 174.11 322.872 173.833 322.68C173.555 322.488 173.193 322.392 172.745 322.392H171.209V324.984ZM171.209 320.376H172.745C173.193 320.376 173.555 320.285 173.833 320.104C174.11 319.912 174.249 319.592 174.249 319.144V319.048C174.249 318.6 174.11 318.285 173.833 318.104C173.555 317.912 173.193 317.816 172.745 317.816H171.209V320.376ZM183.518 325.944H183.806V315.8H185.918V327H181.79L180.478 316.856H180.19V327H178.078V315.8H182.206L183.518 325.944ZM188.05 315.8H195.538V317.816H192.85V324.984H195.538V327H188.05V324.984H190.738V317.816H188.05V315.8Z" fill="black"/>
<g clip-path="url(#clip1_642_999)">

<path fill-rule="evenodd" clip-rule="evenodd" d="M340.899 639.896C339.359 640.817 335.727 642.969 334.371 643.771C333.544 644.206 331.63 644.395 330.548 642.888C330.528 642.86 329.108 641.027 329.05 640.958C329.009 640.909 328.091 639.502 326.044 639.458C325.742 639.451 324.239 639.443 322.772 640.304C320.823 641.454 316.289 644.131 316.289 644.131C316.289 644.131 316.288 644.134 316.285 644.134C314.422 645.235 312.97 646.093 312.97 646.093L314.685 648.269C315.488 649.299 317.298 650.095 318.867 649.164C318.867 649.164 324.667 645.695 324.688 645.685C327.196 644.265 329.131 644.265 330.416 644.793C331.569 645.296 332.572 646.55 332.572 646.55C332.572 646.55 333.883 648.228 334.114 648.522C334.86 649.47 336.095 649.098 336.095 649.098C336.095 649.098 336.552 649.044 337.242 648.621C337.242 648.621 342.859 645.257 342.863 645.256C344.646 644.175 346.282 643.973 347.118 644.052C349.737 644.298 350.551 646.188 351.686 647.506C352.355 648.282 352.958 648.722 353.881 648.7C354.487 648.687 355.172 648.307 355.273 648.238L362 644.228C362 644.228 361.31 643.155 359.896 641.484C358.631 639.993 357.288 640.668 356.216 641.216C355.766 641.446 354.135 642.566 352.519 643.348C351.368 643.905 349.715 643.738 348.808 642.581C348.754 642.51 347.288 640.677 347.134 640.451C346.542 639.686 345.387 639 343.908 639C343.008 639 341.987 639.253 340.899 639.896Z" fill="url(#paint0_linear_642_999)"/>
<path fill-rule="evenodd" clip-rule="evenodd" d="M282.084 655.573C282.084 654.376 282.063 653.371 282 652.475H284.194L284.297 654.015H284.359C284.856 653.201 285.765 652.239 287.462 652.239C288.786 652.239 289.82 653.01 290.254 654.164H290.297C290.649 653.587 291.061 653.16 291.537 652.86C292.096 652.454 292.737 652.239 293.565 652.239C295.24 652.239 296.935 653.414 296.935 656.748V662.88H294.453V657.133C294.453 655.403 293.875 654.376 292.655 654.376C291.785 654.376 291.143 655.018 290.876 655.766C290.813 656.022 290.751 656.343 290.751 656.64V662.88H288.268V656.855C288.268 655.403 287.71 654.376 286.531 654.376C285.579 654.376 284.939 655.146 284.711 655.871C284.607 656.129 284.565 656.428 284.565 656.726V662.88H282.084V655.573Z" fill="#003A70"/>
<path fill-rule="evenodd" clip-rule="evenodd" d="M306.605 660.381C306.605 661.321 306.647 662.238 306.75 662.881H304.453L304.288 661.727H304.225C303.605 662.54 302.55 663.116 301.247 663.116C299.22 663.116 298.082 661.6 298.082 660.018C298.082 657.389 300.336 656.065 304.06 656.087V655.915C304.06 655.231 303.791 654.099 302.012 654.099C301.019 654.099 299.984 654.42 299.302 654.868L298.805 653.16C299.551 652.689 300.855 652.24 302.447 652.24C305.675 652.24 306.605 654.356 306.605 656.62V660.381ZM304.122 657.796C302.323 657.753 300.606 658.159 300.606 659.74C300.606 660.765 301.247 661.236 302.054 661.236C303.067 661.236 303.813 660.552 304.039 659.804C304.101 659.612 304.122 659.397 304.122 659.227V657.796Z" fill="#003A70"/>
<path fill-rule="evenodd" clip-rule="evenodd" d="M308.364 655.573C308.364 654.376 308.341 653.371 308.281 652.475H310.513L310.638 654.035H310.699C311.134 653.224 312.23 652.239 313.906 652.239C315.664 652.239 317.485 653.414 317.485 656.706V662.88H314.941V657.005C314.941 655.509 314.403 654.376 313.017 654.376C312.003 654.376 311.3 655.124 311.03 655.915C310.949 656.151 310.928 656.472 310.928 656.769V662.88H308.364V655.573Z" fill="#003A70"/>
<path fill-rule="evenodd" clip-rule="evenodd" d="M328.516 648.295V659.952C328.516 661.02 328.556 662.176 328.598 662.881H326.322L326.22 661.236H326.178C325.578 662.39 324.356 663.116 322.889 663.116C320.49 663.116 318.586 661.001 318.586 657.796C318.565 654.313 320.675 652.24 323.095 652.24C324.481 652.24 325.475 652.839 325.929 653.609H325.971V648.295H328.516ZM325.971 656.811C325.971 656.6 325.95 656.342 325.91 656.129C325.682 655.104 324.875 654.27 323.716 654.27C322.082 654.27 321.172 655.766 321.172 657.711C321.172 659.612 322.082 661.001 323.695 661.001C324.729 661.001 325.64 660.275 325.888 659.143C325.95 658.907 325.971 658.65 325.971 658.372V656.811Z" fill="#003A70"/>
<path fill-rule="evenodd" clip-rule="evenodd" d="M330.313 662.88H332.881V652.476H330.313V662.88Z" fill="#003A70"/>
<path fill-rule="evenodd" clip-rule="evenodd" d="M334.679 655.829C334.679 654.42 334.657 653.414 334.596 652.475H336.809L336.89 654.462H336.976C337.472 652.987 338.651 652.475 339.726 652.475C339.974 652.475 340.119 652.431 340.326 652.475V654.783C340.119 654.741 339.892 654.698 339.581 654.698C338.361 654.698 337.533 655.509 337.306 656.684C337.265 656.919 337.224 657.198 337.224 657.498V662.88H334.679V655.829Z" fill="#003A70"/>
<path fill-rule="evenodd" clip-rule="evenodd" d="M341.505 662.88H344.069V652.476H341.505V662.88Z" fill="#003A70"/>
</g>

</g>
</svg>



