<?xml version="1.0" encoding="utf-8"?>
<!-- Generator: Adobe Illustrator 19.0.0, SVG Export Plug-In . SVG Version: 6.00 Build 0)  -->
<svg version="1.1" id="layer" xmlns="http://www.w3.org/2000/svg" xmlns:xlink="http://www.w3.org/1999/xlink" x="0px" y="0px"
	 viewBox="-153 -46 652 652" style="enable-background:new -153 -46 652 652;" xml:space="preserve">
<style type="text/css">
	.st0{fill:#FFC600;}
</style>
<path class="st0" d="M-85.1,113.4h516.9c22.5,0,41.6,18.2,41.6,41.6v250.2c0,22.5-18.2,41.6-41.6,41.6H-85.1
	c-22.5,0-41.6-18.2-41.6-41.6V154.9C-125.8,131.6-107.6,113.4-85.1,113.4z"/>
<path d="M190.2,347.1c-2.6,0-4.3,0.9-6.9,0.9v32c1.7,0.9,4.3,0.9,6.1,0.9c8.7,0,14.7-6.1,14.7-17.3S198.9,347.1,190.2,347.1
	 M187.6,395.6c-9.5,0-18.2-1.7-26.8-4.3v-84.8h21.6V335c3.5-0.9,7.8-1.7,11.3-1.7c19,0,31.2,10.4,31.2,28.6
	C225.7,385.2,212.7,395.6,187.6,395.6"/>
<path d="M269.9,366.2c-12.1,0.9-20.8,1.7-20.8,8.7c0,5.2,5.2,7.8,13,7.8c2.6,0,5.2,0,7.8-0.9V366.2z M263,394.8
	c-22.5,0-33.8-6.9-33.8-19.9c0-15.6,19.9-19.9,41.6-20.8v-2.6c0-5.2-4.3-6.9-11.3-6.9s-13.9,1.7-20.8,3.5l-5.2-12.1
	c9.5-3.5,19-5.2,28.6-5.2c19.9,0,29.4,6.9,29.4,22.5v36.4C282,393.9,272.5,395.6,263,394.8"/>
<path d="M339.2,393.9v-39c0-5.2-2.6-8.7-10.4-8.7c-2.6,0-5.2,0.9-7.8,1.7v45.9h-21.6v-57.1c9.5-3.5,19.9-5.2,30.3-5.2
	c22.5,0,32.9,7.8,32.9,20.8v41.6L339.2,393.9z"/>
<polygon points="414.5,393.9 392,364.5 392,364.5 392,393.9 370.3,393.9 370.3,306.5 392,306.5 392,360.1 392,360.1 411.9,334.2 
	437,334.2 414.5,361.9 438.7,393.9 "/>
<polygon points="119.2,418.1 96.7,418.1 107.1,393.9 80.3,334.2 104.5,334.2 118.4,376.6 133.1,334.2 157.3,334.2 "/>
<polygon points="5,313.4 -21,313.4 -37.5,363.6 -54.8,313.4 -80.8,313.4 -92,393.9 -71.2,393.9 -64.3,338.5 -44.4,393.9 
	-30.5,393.9 -11.5,338.5 -4.6,393.9 16.2,393.9 "/>
<path d="M60.4,366.2c-12.1,0.9-20.8,1.7-20.8,8.7c0,5.2,5.2,7.8,13,7.8c2.6,0,5.2,0,7.8-0.9V366.2z M53.4,394.8
	c-22.5,0-33.8-6.9-33.8-19.9c0-15.6,19.9-19.9,41.6-20.8v-2.6c0-5.2-4.3-6.9-11.3-6.9s-13.9,1.7-20.8,3.5L24,335.9
	c9.5-2.6,19-4.3,28.6-5.2c19.9,0,29.4,6.9,29.4,22.5v36.4C72.5,393.9,63,395.6,53.4,394.8"/>
<path class="st0" d="M241.3,206.9c0,37.2-30.3,67.5-67.5,67.5s-67.5-30.3-67.5-67.5s30.3-67.5,67.5-67.5S241.3,169.7,241.3,206.9
	L241.3,206.9"/>
<path d="M173.8,274.4c-37.2,0-67.5-30.3-67.5-67.5s30.3-67.5,67.5-67.5s67.5,30.3,67.5,67.5C241.3,244.1,211,273.6,173.8,274.4
	L173.8,274.4 M173.8,133.3c-40.7,0-73.6,32.9-73.6,73.6s32.9,73.6,73.6,73.6s73.6-32.9,73.6-73.6S214.5,133.3,173.8,133.3
	L173.8,133.3"/>
<path d="M144.3,203.4c-5.2-0.9-9.5,5.2-12.1,9.5C133.1,206,140.9,195.6,144.3,203.4"/>
<path d="M133.1,203.4c1.7-6.1,6.1-8.7,7.8-6.9C137.4,198.2,134.8,200,133.1,203.4"/>
<path d="M146.1,213c2.6-2.6,2.6-5.2-1.7-6.9c-4.3-1.7-9.5,5.2-10.4,11.3C136.6,213.8,144.3,207.8,146.1,213"/>
<path d="M188.5,229.4c0.9-7.8-6.9-12.1-8.7-19.9c-1.7-7.8,12.1-20.8,3.5-34.6c16.5,13,3.5,20.8,11.3,31.2c-2.6-0.9-5.2-2.6-6.9-5.2
	C183.3,206.9,198.9,214.7,188.5,229.4"/>
<path d="M162.5,165.3c1.7,0,5.2,1.7,4.3,2.6c-4.3,4.3-10.4,2.6-15.6,6.9C153,169.7,161.7,168.8,162.5,165.3"/>
<path d="M157.3,182.6c-0.9,0-0.9-0.9-0.9-1.7c0.9,1.7,2.6,0.9,1.7-1.7h3.5C159.1,180,158.2,182.6,157.3,182.6 M177.2,170.5
	c1.7-1.7,0-5.2-7.8-6.1c7.8,3.5-5.2,4.3-5.2,11.3c-4.3,1.7-7.8-0.9-9.5,0.9s-4.3,0.9-3.5-1.7c-1.7,0.9-1.7,2.6-0.9,4.3
	c0,0.9,0.9,0.9,1.7,1.7l0.9,0.9c-2.6,2.6-3.5,4.3-0.9,6.9c0.9-1.7,2.6-3.5,4.3-5.2c1.7,0.9,4.3,0,7.8-3.5l0,0
	c-2.6,10.4-10.4,11.3-13,11.3c1.7,1.7,11.3,3.5,12.1-0.9c2.6-9.5,12.1-13.9,4.3-13.9C167.7,174.9,175.5,172.3,177.2,170.5"/>
<path d="M180.7,166.2c3.5,1.7,6.1,4.3,7.8,6.9c0.9-5.2-1.7-10.4-5.2-13.9C182.4,158.4,179.8,163.6,180.7,166.2"/>
<path d="M120.1,198.2c3.5-8.7,10.4-15.6,18.2-19.9c2.6-6.1,1.7-9.5,25.1-19c0.9-3.5,0.9-7.8,1.7-7.8c2.6,0.9,5.2,2.6,6.9,5.2h2.6
	c0.9-3.5,1.7-6.9,3.5-10.4c1.7-2.6,5.2-2.6,9.5,0.9c5.2,3.5,9.5,7.8,13.9,13c7.8,2.6,14.7,7.8,19.9,13.9c-2.6-1.7-6.1-2.6-9.5-3.5
	c6.9,6.1,9.5,16.5,6.9,25.1c-1.7-8.7-6.9-15.6-13.9-19c2.6,9.5-8.7,6.1-13-0.9c0.9,0.9,1.7,0.9,3.5,0c0-9.5-3.5-18.2-10.4-25.1
	c-3.5-3.5-6.1,4.3-6.9,10.4c0,1.7-2.6,3.5-4.3,3.5c0.9-0.9,0.9-1.7,0.9-3.5c-6.1,0.9-11.3,2.6-16.5,6.1c-10.4,4.3-13,6.9-15.6,14.7
	C133.1,185.2,126.2,191.3,120.1,198.2"/>
<path d="M172.1,196.5c5.2,7.8,5.2,17.3,0,25.1c1.7-9.5-4.3-28.6-10.4-19c3.5,0.9,6.1,5.2,5.2,9.5c-1.7-4.3-6.9-6.1-11.3-5.2
	c-2.6,0.9-6.1,0-7.8-2.6c-2.6-4.3,1.7-9.5-6.9-9.5c10.4-5.2,7.8,5.2,12.1,6.1s6.9-2.6,8.7-4.3c1.7-2.6,5.2-3.5,7.8-1.7
	c1.7-4.3-0.9-12.1,3.5-15.6c2.6-1.7,6.9-0.9,9.5,0.9C179,180,174.6,184.4,172.1,196.5"/>
<path d="M148.7,238.1c-0.9-0.9-1.7-2.6-1.7-4.3c0.9,0.9,2.6,1.7,4.3,1.7C150.4,237.2,149.5,238.1,148.7,238.1 M159.1,226.8
	c0.9,0,1.7,0.9,2.6,0s0-3.5-0.9-4.3c0.9,0,4.3,0,4.3,1.7c0,3.5-2.6,4.3-7.8,6.9C158.2,230.3,158.2,228.5,159.1,226.8 M138.3,223.3
	c0.9-0.9,1.7-1.7,3.5-2.6c0,2.6,0,4.3,0.9,6.9C141.7,228.5,138.3,225.9,138.3,223.3 M124.4,210.4c-1.7-1.7-3.5-3.5-5.2-5.2
	c0.9-0.9,2.6-2.6,4.3-2.6c1.7,0,2.6,0.9,1.7,0.9c-0.9,0-1.7,0-1.7,1.7c0,1.7,0.9,2.6,1.7,3.5C126.2,208.6,125.3,210.4,124.4,210.4
	 M224.9,177.5c5.2,15.6,4.3,32-1.7,46.8c0.9-6.9-5.2-16.5-2.6-27.7c-11.3,10.4,6.1,37.2-19,54.5c3.5-8.7,5.2-17.3,4.3-26.8
	c1.7,0.9,2.6,1.7,3.5,3.5c2.6-8.7,1.7-18.2-1.7-26.8c1.7,0,4.3,1.7,5.2,2.6c0.9-15.6-10.4-16.5-13-20.8c0,4.3,5.2,7.8,6.1,13.9
	c-2.6-1.7-6.1-1.7-8.7-1.7c6.1,6.9,8.7,15.6,6.9,24.2c-2.6-1.7-5.2-3.5-7.8-3.5c4.3,7.8,4.3,16.5,0.9,24.2c0-2.6-0.9-5.2-1.7-6.9
	c-1.7,6.1-6.1,10.4-12.1,11.3c4.3-3.5,4.3-10.4,0.9-13.9c-0.9-0.9-2.6-1.7-3.5-2.6c-6.9-2.6-14.7,1.7-18.2,17.3
	c-4.3,1.7-19-1.7-10.4-10.4c5.2,1.7,18.2-6.9,17.3-13c-1.7-6.9-7.8-12.1-15.6-11.3c-7.8,0-13,6.9-19,10.4c-5.2-0.9-6.9-1.7-9.5-8.7
	c0-4.3,4.3-6.9,4.3-11.3c-3.5,0.9-4.3-5.2-12.1,0.9c-0.9-0.9,0-3.5,0-3.5c-1.7,1.7-2.6,3.5-3.5,6.1c1.7,2.6,3.5,5.2,6.9,6.9
	c4.3,11.3,8.7,13,13,13c1.7,2.6,5.2,5.2,8.7,6.1c-0.9-3.5-0.9-6.1,0-9.5c9.5-9.5,16.5-3.5,17.3-0.9c-7.8,1.7-2.6,19-15.6,11.3
	c0,2.6,0,6.1,1.7,8.7c1.7,12.1,16.5,8.7,20.8,11.3c-0.9-11.3,6.1-19.9,11.3-19c5.2,0.9,6.9,9.5-2.6,18.2c6.1,0.9,12.1-0.9,17.3-4.3
	c-0.9,6.9-3.5,13-7.8,18.2c32-6.9,51.9-38.1,45-70.1C230.1,187.8,228.3,181.8,224.9,177.5"/>
</svg>
