<svg xmlns="http://www.w3.org/2000/svg" xmlns:xlink="http://www.w3.org/1999/xlink" viewBox="408 658 108 108" width="100%" height="100%">
<defs>
<clipPath id="clip0_642_1000">
<rect width="784" height="1774" rx="32" fill="white"/>
</clipPath>
<clipPath id="clip1_642_1000">
<rect x="408" y="658" width="108" height="108" rx="8" fill="white"/>
</clipPath>
<clipPath id="clip2_642_1000">

</clipPath>
<clipPath id="clip3_642_1000">
<rect x="408" y="658" width="108" height="108" rx="8" fill="white"/>
</clipPath>
<clipPath id="clip4_642_1000">
<rect width="80" height="18.784" fill="white" transform="translate(422 703)"/>
</clipPath>
<clipPath id="clip5_642_1000">

</clipPath>
<clipPath id="clip6_642_1000">

</clipPath>
<clipPath id="clip7_642_1000">

</clipPath>
<clipPath id="clip8_642_1000">

</clipPath>
<clipPath id="clip9_642_1000">

</clipPath>
<clipPath id="clip10_642_1000">

</clipPath>
<clipPath id="clip11_642_1000">

</clipPath>
<clipPath id="clip12_642_1000">

</clipPath>
<clipPath id="clip13_642_1000">

</clipPath>
<clipPath id="clip14_642_1000">

</clipPath>
</defs>
<g clip-path="url(#clip3_642_1000)">

<g clip-path="url(#clip4_642_1000)">
<path d="M462.68 718.632V710.515L459.208 715.817H459.114L455.595 710.609V718.726H452.968V706.152H455.877L459.161 711.407L462.399 706.152H465.214V718.679H462.68V718.632H462.68ZM472.674 718.773C469.343 718.773 467.373 716.896 467.373 713.283V706.152H470V713.237C470 715.254 471.079 716.286 472.722 716.286C474.364 716.286 475.443 715.301 475.443 713.33V706.151H478.024V713.19C478.024 716.943 476.006 718.773 472.674 718.773ZM482.716 708.732V711.36H488.205V713.987H482.716V718.679H480.088V706.152H489.754V708.779H482.715L482.716 708.732ZM496.745 718.82C492.897 718.82 490.27 716.099 490.27 712.439V712.392C490.27 708.873 492.991 705.964 496.745 705.964C498.997 705.964 500.311 706.574 501.578 707.653L499.842 709.718C498.903 708.92 498.106 708.451 496.651 708.451C494.68 708.451 493.132 710.234 493.132 712.298V712.392C493.132 714.691 494.633 716.333 496.839 716.333C497.824 716.333 498.575 716.099 499.373 715.583V713.94H496.51V711.313H502V716.803C500.733 717.929 499.044 718.82 496.745 718.82Z" fill="#5A5A5A"/>
<path d="M439.032 703.008C437.672 703.008 436.358 703.289 435.185 703.805C434.059 703.289 432.745 703.008 431.384 703.008C426.223 703.008 422 707.184 422 712.392C422 717.553 426.223 721.776 431.384 721.776C432.745 721.776 434.059 721.495 435.232 720.978C436.405 721.494 437.671 721.776 439.079 721.776C444.24 721.776 448.463 717.553 448.463 712.392C448.416 707.184 444.24 703.008 439.032 703.008ZM435.232 720.885C430.54 720.885 426.739 717.084 426.739 712.392C426.739 707.7 430.54 703.899 435.232 703.899C439.924 703.899 443.724 707.7 443.724 712.392C443.724 717.084 439.877 720.885 435.232 720.885ZM439.126 712.392C439.127 712.904 439.028 713.411 438.832 713.884C438.637 714.357 438.35 714.787 437.988 715.148C437.626 715.51 437.197 715.797 436.724 715.992C436.251 716.188 435.744 716.288 435.232 716.286C433.073 716.286 431.337 714.55 431.337 712.392C431.337 710.233 433.073 708.498 435.232 708.498C435.744 708.496 436.251 708.596 436.724 708.791C437.197 708.987 437.626 709.273 437.988 709.635C438.35 709.997 438.637 710.427 438.832 710.9C439.028 711.373 439.127 711.88 439.126 712.392Z" fill="#E60000"/>
</g>

</g>
</svg>




