<svg xmlns="http://www.w3.org/2000/svg" xmlns:xlink="http://www.w3.org/1999/xlink" viewBox="268 250 108 108" width="100%" height="100%">
<defs>
<clipPath id="clip0_642_1000">
<rect width="784" height="1774" rx="32" fill="white"/>
</clipPath>
<clipPath id="clip1_642_1000">
<rect x="268" y="250" width="108" height="108" rx="8" fill="white"/>
</clipPath>
<clipPath id="clip2_642_1000">

</clipPath>
<clipPath id="clip3_642_1000">

</clipPath>
<clipPath id="clip4_642_1000">
<rect width="80" height="18.784" fill="white" transform="translate(422 703)"/>
</clipPath>
<clipPath id="clip5_642_1000">

</clipPath>
<clipPath id="clip6_642_1000">

</clipPath>
<clipPath id="clip7_642_1000">

</clipPath>
<clipPath id="clip8_642_1000">

</clipPath>
<clipPath id="clip9_642_1000">

</clipPath>
<clipPath id="clip10_642_1000">

</clipPath>
<clipPath id="clip11_642_1000">

</clipPath>
<clipPath id="clip12_642_1000">

</clipPath>
<clipPath id="clip13_642_1000">
<rect x="268" y="250" width="108" height="108" rx="8" fill="white"/>
</clipPath>
<clipPath id="clip14_642_1000">

</clipPath>
</defs>
<g clip-path="url(#clip13_642_1000)">

<path fill-rule="evenodd" clip-rule="evenodd" d="M312.93 293.957C315.308 294.878 317.676 295.869 319.984 296.988C312.593 299.96 305.411 303.517 298.614 307.609C296.306 306.42 293.928 305.231 291.56 304.181C298.416 300.228 305.539 296.8 312.93 293.957Z" fill="#0067B1"/>
<path fill-rule="evenodd" clip-rule="evenodd" d="M304.093 290.856C296.445 293.293 289.054 296.463 282 300.287C284.239 301.149 286.488 302.001 288.658 302.923C295.454 298.9 302.637 295.542 310.087 292.897C308.105 292.173 306.134 291.45 304.083 290.856H304.093Z" fill="#0067B1"/>
<path fill-rule="evenodd" clip-rule="evenodd" d="M328.95 293.63C322.887 290.727 316.615 288.29 310.225 286.308C307.917 286.972 305.678 287.695 303.498 288.419C310.097 290.4 316.556 292.907 322.758 295.869C324.799 295.076 326.85 294.353 328.96 293.63H328.95Z" fill="#EE2A24"/>
<path fill-rule="evenodd" clip-rule="evenodd" d="M338.778 290.727C332.645 288.022 326.245 285.783 319.716 284C317.606 284.396 315.565 284.862 313.515 285.387C319.974 287.299 326.305 289.677 332.378 292.58C334.488 291.916 336.667 291.262 338.778 290.737V290.727Z" fill="#EE2A24"/>
<path fill-rule="evenodd" clip-rule="evenodd" d="M354.609 295.998C339.115 301.209 324.601 308.659 311.484 317.962C314.783 320.003 317.943 322.113 321.044 324.421C333.438 314.593 347.228 306.42 362 300.218C359.563 298.702 357.116 297.315 354.609 295.998Z" fill="#EE2A24"/>
<path fill-rule="evenodd" clip-rule="evenodd" d="M343.919 290.985C327.83 295.205 312.732 302.061 299.08 311.165C302.111 312.681 305.143 314.266 308.115 315.98C321.5 306.747 336.341 299.495 352.162 294.749C349.458 293.432 346.753 292.114 343.919 290.994V290.985Z" fill="#EE2A24"/>
</g>
</svg>




