<svg xmlns="http://www.w3.org/2000/svg" xmlns:xlink="http://www.w3.org/1999/xlink" viewBox="128 454 108 108" width="100%" height="100%">
<defs>
<clipPath id="clip0_642_1000">
<rect width="784" height="1774" rx="32" fill="white"/>
</clipPath>
<clipPath id="clip1_642_1000">
<rect x="128" y="454" width="108" height="108" rx="8" fill="white"/>
</clipPath>
<clipPath id="clip2_642_1000">

</clipPath>
<clipPath id="clip3_642_1000">

</clipPath>
<clipPath id="clip4_642_1000">
<rect width="80" height="18.784" fill="white" transform="translate(422 703)"/>
</clipPath>
<clipPath id="clip5_642_1000">

</clipPath>
<clipPath id="clip6_642_1000">

</clipPath>
<clipPath id="clip7_642_1000">

</clipPath>
<clipPath id="clip8_642_1000">

</clipPath>
<clipPath id="clip9_642_1000">

</clipPath>
<clipPath id="clip10_642_1000">
<rect x="128" y="454" width="108" height="108" rx="8" fill="white"/>
</clipPath>
<clipPath id="clip11_642_1000">

</clipPath>
<clipPath id="clip12_642_1000">

</clipPath>
<clipPath id="clip13_642_1000">

</clipPath>
<clipPath id="clip14_642_1000">

</clipPath>
</defs>
<g clip-path="url(#clip10_642_1000)">

<path fill-rule="evenodd" clip-rule="evenodd" d="M142 508.402H187.838L204.646 511.089L221.719 508.402V528.786H142V508.402Z" fill="#007CC5"/>
<path fill-rule="evenodd" clip-rule="evenodd" d="M156.25 513.522C156.195 513.522 154.514 513.522 154.514 513.522V517.609H155.949V514.7C156.024 514.669 156.156 514.646 156.269 514.646C156.534 514.646 156.69 514.798 156.69 515.055V517.609H158.129V514.887C158.129 514.006 157.58 513.526 156.254 513.526L156.25 513.522ZM161.136 513.616L160.259 515.281H160.243V512.169H158.824V517.609H160.243V515.64H160.259L161.265 517.609H162.848L161.702 515.461L162.747 513.616H161.136ZM148.973 514.727V514.708C149.402 514.571 149.737 514.209 149.737 513.682C149.737 512.801 149.109 512.15 147.592 512.15H145.822V517.598H147.592C149.109 517.598 149.835 517.005 149.835 516.003C149.835 515.344 149.378 514.887 148.977 514.724L148.973 514.727ZM147.218 513.284C147.308 513.257 147.448 513.249 147.581 513.249C148.158 513.249 148.329 513.479 148.329 513.846C148.329 514.041 148.271 514.189 148.181 514.275C148.115 514.341 147.943 514.408 147.744 514.408H147.218V513.284ZM147.581 516.502C147.448 516.502 147.3 516.478 147.218 516.463V515.324H147.744C147.974 515.324 148.115 515.383 148.212 515.472C148.31 515.562 148.368 515.722 148.368 515.897C148.368 516.334 148.146 516.498 147.581 516.498V516.502ZM182.39 513.538C182.285 513.507 182.109 513.479 181.969 513.479C180.717 513.479 180.081 514.271 180.081 515.507C180.081 516.868 180.807 517.598 182.148 517.609H183.829V512.169H182.39V513.542V513.538ZM182.39 516.463C182.339 516.486 182.242 516.494 182.148 516.494C181.739 516.494 181.52 516.174 181.52 515.496C181.52 514.918 181.735 514.536 182.133 514.536C182.234 514.536 182.347 514.56 182.39 514.583V516.463ZM177.699 513.518H175.959V517.605H177.398V514.696C177.468 514.665 177.605 514.642 177.714 514.642C177.979 514.642 178.135 514.794 178.135 515.051V517.605H179.57V514.883C179.57 514.002 179.021 513.518 177.699 513.518ZM184.523 517.605H185.958V513.515H184.523V517.605ZM184.523 512.996H185.958V512.146H184.523V512.996ZM166.647 513.518C165.426 513.518 164.716 514.408 164.716 515.609C164.716 516.81 165.426 517.703 166.647 517.703C167.867 517.703 168.577 516.806 168.577 515.609C168.577 514.412 167.867 513.518 166.647 513.518ZM166.647 516.556C166.331 516.556 166.151 516.26 166.151 515.593C166.151 514.926 166.331 514.63 166.647 514.63C166.962 514.63 167.142 514.926 167.142 515.593C167.142 516.26 166.962 516.556 166.647 516.556ZM169.349 513.986H168.924V515.051H169.349V517.605H170.757V515.051H171.408V513.986H170.757V513.639C170.757 513.351 170.979 513.245 171.276 513.245C171.342 513.245 171.408 513.253 171.482 513.261V512.165C171.358 512.142 171.151 512.126 170.995 512.126C170.016 512.126 169.349 512.586 169.349 513.635V513.986ZM173.931 517.605H175.413V512.181H173.931V517.605ZM151.929 513.518H150.685V514.532H152.077C152.299 514.544 152.432 514.669 152.455 514.876V514.883C151.258 514.957 150.221 515.223 150.221 516.252C150.221 517.134 150.864 517.605 152.178 517.605H153.801V514.883C153.801 514.002 153.255 513.518 151.929 513.518ZM152.455 516.591C152.397 516.615 152.26 516.623 152.136 516.623C151.796 516.623 151.551 516.486 151.551 516.213C151.551 515.862 151.874 515.784 152.455 515.761V516.591ZM186.949 513.518V514.532H188.345C188.563 514.544 188.7 514.669 188.723 514.876V514.883C187.522 514.957 186.489 515.223 186.489 516.252C186.489 517.134 187.132 517.605 188.45 517.605H190.073V514.883C190.073 514.002 189.527 513.518 188.201 513.518H186.949ZM188.719 516.591C188.657 516.615 188.524 516.623 188.4 516.623C188.056 516.623 187.815 516.486 187.815 516.213C187.815 515.862 188.142 515.784 188.719 515.761V516.591ZM154.452 523.33C153.758 523.428 153.621 523.011 153.633 522.383C153.645 521.817 153.836 521.431 154.44 521.529L154.464 521.809V522.445L154.452 523.33ZM154.468 520.483C153.606 520.402 153.025 520.55 152.619 521.049C152.26 521.494 152.104 522.359 152.284 523.112C152.662 524.687 154.198 524.516 155.852 524.477L155.875 519.158H154.475L154.468 520.487V520.483ZM161.039 524.45L162.447 524.489L162.454 522.32C162.454 522.18 162.415 521.696 162.54 521.607C162.77 521.533 162.961 521.54 163.121 521.747C163.324 522.231 163.063 523.841 163.215 524.492L164.576 524.5C164.646 524.032 164.595 523.143 164.595 522.636C164.595 522.036 164.673 521.419 164.354 521.006C163.78 520.265 161.394 520.409 161.043 520.507V524.45H161.039ZM147.982 524.473H149.367L149.374 521.93C149.386 521.505 149.507 521.544 149.952 521.638C150.166 521.724 150.112 522.004 150.135 522.266L150.143 524.481H151.484C151.547 523.946 151.508 523.198 151.508 522.644C151.508 520.589 151.359 520.441 148.006 520.503L147.986 524.477L147.982 524.473ZM158.348 521.611C159.069 521.334 159.132 523.182 158.625 523.385C157.817 523.712 157.79 521.821 158.348 521.611ZM158.063 520.507C160.859 520.023 161.078 524.13 158.902 524.539C156.105 525.07 155.782 520.901 158.063 520.507ZM177.176 522.718V523.44C176.045 523.767 176.053 522.453 177.176 522.718ZM175.452 521.451C176.4 521.47 177.02 521.295 177.156 521.751C176.743 521.973 176.057 521.841 175.499 522.207C175.078 522.484 174.828 523.05 175.09 523.67C175.292 524.149 175.788 524.372 176.4 524.45C176.794 524.5 178.135 524.52 178.502 524.45C178.744 520.409 178.479 520.421 175.464 520.464L175.452 521.447V521.451ZM166.588 522.262C166.588 522.012 166.518 521.638 166.728 521.497C167.329 521.088 168.206 522.277 166.588 522.262ZM168.78 524.446L168.788 523.502C167.867 523.463 166.904 523.631 166.643 523.213C166.818 523.1 167.146 523.12 167.446 523.053C168.249 522.878 169.033 522.449 168.737 521.392C168.472 520.448 166.787 520.222 165.874 520.71C165.367 520.983 165.282 521.373 165.282 522.071C165.282 522.656 165.184 523.412 165.453 523.857C165.683 524.235 166.175 524.426 166.791 524.461C167.157 524.485 168.491 524.516 168.784 524.45L168.78 524.446ZM170.874 523.358C170.944 523.046 170.71 523.022 170.351 522.89C168.924 522.371 168.577 520.043 172.309 520.487L172.297 521.478C171.845 521.529 170.917 521.341 170.773 521.622C170.659 521.938 170.971 521.907 171.322 522.043C172.013 522.312 172.578 522.866 172.231 523.709C171.849 524.641 170.581 524.512 169.384 524.465L169.404 523.42C169.879 523.397 170.464 523.475 170.874 523.358ZM145.822 524.469H147.265L147.272 519.177L145.83 519.154L145.822 524.469ZM172.902 524.461L174.31 524.473V520.468L172.933 520.456L172.902 524.461ZM172.902 519.938L174.298 519.945L174.31 519.134L172.917 519.115L172.902 519.938Z" fill="white"/>
<path fill-rule="evenodd" clip-rule="evenodd" d="M204.646 519.072L193.672 528.774L199.814 515.507L187.3 508.277L201.6 509.814L204.65 487L207.696 509.81L222 508.273L209.482 515.503L215.624 528.77L204.65 519.068L204.646 519.072Z" fill="#191917"/>
<path fill-rule="evenodd" clip-rule="evenodd" d="M204.646 518.791L194.284 527.955L200.083 515.422L188.259 508.593L201.78 510.04L204.646 488.583L207.512 510.04L221.037 508.589L209.213 515.422L215.012 527.955L204.646 518.791Z" fill="#E3300C"/>
<path fill-rule="evenodd" clip-rule="evenodd" d="M207.516 510.04H201.784L200.095 515.429L204.65 518.795L209.217 515.425L207.52 510.044L207.516 510.04Z" fill="#0073BD"/>
<path d="M204.646 517.644C206.688 517.644 208.343 515.989 208.343 513.947C208.343 511.906 206.688 510.25 204.646 510.25C202.604 510.25 200.949 511.906 200.949 513.947C200.949 515.989 202.604 517.644 204.646 517.644Z" fill="#191917"/>
<path fill-rule="evenodd" clip-rule="evenodd" d="M204.646 517.43C202.723 517.43 201.16 515.866 201.16 513.944C201.16 512.021 202.723 510.457 204.646 510.457C206.569 510.457 208.132 512.025 208.132 513.944C208.132 515.862 206.569 517.43 204.646 517.43Z" fill="white"/>
<path fill-rule="evenodd" clip-rule="evenodd" d="M204.517 511.549C204.517 511.549 204.51 511.557 204.51 511.565C204.51 511.576 204.513 511.584 204.525 511.588C204.49 511.588 204.474 511.569 204.474 511.569C204.474 511.569 204.486 511.553 204.521 511.549H204.517ZM204.552 511.549C204.552 511.549 204.572 511.553 204.584 511.561C204.584 511.561 204.572 511.58 204.545 511.584C204.549 511.58 204.56 511.572 204.56 511.561C204.56 511.557 204.556 511.549 204.552 511.545V511.549ZM204.474 511.596C204.474 511.596 204.51 511.608 204.533 511.608C204.599 511.608 204.619 511.561 204.626 511.557C204.626 511.51 204.595 511.467 204.552 511.463C204.533 511.459 204.506 511.467 204.494 511.475C204.474 511.483 204.463 511.502 204.455 511.518C204.478 511.514 204.502 511.483 204.556 511.494C204.584 511.498 204.615 511.537 204.595 511.541C204.58 511.53 204.576 511.526 204.564 511.522C204.517 511.502 204.474 511.537 204.451 511.557C204.447 511.557 204.439 511.553 204.435 511.553C204.443 511.572 204.451 511.58 204.471 511.596H204.474ZM204.759 511.549C204.759 511.549 204.755 511.557 204.755 511.565C204.755 511.576 204.759 511.584 204.771 511.588C204.74 511.584 204.72 511.569 204.72 511.569C204.72 511.569 204.736 511.553 204.763 511.549H204.759ZM204.798 511.549H204.802C204.802 511.549 204.821 511.553 204.821 511.557C204.825 511.561 204.825 511.561 204.829 511.561C204.829 511.561 204.818 511.58 204.79 511.588C204.794 511.584 204.802 511.576 204.802 511.565C204.802 511.561 204.802 511.553 204.798 511.549ZM204.623 511.732C204.611 511.693 204.654 511.717 204.669 511.713C204.681 511.713 204.693 511.697 204.693 511.682C204.693 511.662 204.677 511.654 204.677 511.639C204.677 511.604 204.677 511.518 204.693 511.498C204.716 511.471 204.794 511.448 204.829 511.479C204.837 511.487 204.845 511.498 204.853 511.514C204.821 511.475 204.704 511.483 204.716 511.545C204.716 511.545 204.743 511.526 204.775 511.526C204.81 511.522 204.829 511.526 204.857 511.549C204.864 511.557 204.868 511.545 204.876 511.545C204.876 511.545 204.876 511.557 204.872 511.561L204.868 511.565C204.86 511.572 204.849 511.572 204.845 511.58C204.798 511.627 204.724 511.588 204.724 511.584C204.716 511.6 204.712 511.611 204.712 511.631C204.712 511.666 204.759 511.721 204.716 511.74C204.693 511.752 204.669 511.736 204.642 511.736C204.634 511.736 204.626 511.74 204.623 511.736V511.732ZM206.249 516.186C206.206 516.166 206.202 516.127 206.175 516.104C206.171 516.104 206.155 516.088 206.147 516.085C206.14 516.081 206.128 516.073 206.12 516.069C206.085 516.053 206.046 516.046 206.011 516.038C205.995 516.034 205.984 516.034 205.972 516.034C205.956 516.03 205.941 516.018 205.925 516.01C205.871 515.999 205.808 516.007 205.754 515.999C205.664 515.995 205.586 515.979 205.504 515.971C205.465 515.968 205.422 515.96 205.387 515.948C205.375 515.944 205.364 515.936 205.352 515.932C205.317 515.925 205.293 515.929 205.27 515.936C205.258 515.94 205.247 515.952 205.239 515.952C205.223 515.952 205.211 515.925 205.188 515.932C205.176 515.944 205.169 515.964 205.176 515.975C205.18 515.979 205.204 516.003 205.208 516.003C205.235 516.014 205.25 515.999 205.27 515.995C205.336 515.975 205.41 516.01 205.469 516.018C205.621 516.042 205.82 516.034 205.952 516.077C205.98 516.081 206.003 516.088 206.027 516.096C206.089 516.12 206.132 516.159 206.183 516.186C206.214 516.225 206.241 516.252 206.296 516.264C206.323 516.272 206.362 516.272 206.362 516.237C206.362 516.194 206.288 516.202 206.253 516.186H206.249ZM207.177 515.999C207.177 515.999 207.208 516.034 207.208 516.053C207.208 516.057 207.196 516.069 207.189 516.069C207.161 516.069 207.165 516.007 207.126 516.01C207.122 516.01 207.115 516.01 207.111 516.022C207.099 516.057 207.173 516.069 207.154 516.124C207.146 516.147 207.118 516.151 207.087 516.151C207.087 516.139 207.099 516.135 207.099 516.124C207.099 516.088 207.048 516.053 207.021 516.085C207.021 516.112 207.056 516.127 207.044 516.159C207.029 516.178 206.986 516.178 206.97 516.159C206.974 516.159 206.99 516.163 206.998 516.159C207.005 516.159 207.009 516.151 207.009 516.143C207.013 516.127 206.998 516.124 206.982 516.116C206.97 516.104 206.959 516.096 206.951 516.088C206.955 516.026 206.9 516.014 206.838 516.01C206.736 516.003 206.619 515.991 206.526 515.983C206.53 515.936 206.487 515.929 206.448 515.921C206.393 515.909 206.342 515.905 206.288 515.893C206.264 515.89 206.225 515.878 206.225 515.858C206.225 515.835 206.257 515.823 206.272 515.812C206.327 515.773 206.377 515.734 206.424 515.695C206.533 515.714 206.604 515.757 206.689 515.808C206.713 515.819 206.736 515.827 206.756 515.839C206.779 515.854 206.803 515.862 206.826 515.87C206.935 515.901 207.091 515.87 207.169 515.925C207.196 515.944 207.224 515.968 207.224 516.007C207.204 516.007 207.204 515.96 207.181 515.956C207.169 515.956 207.157 515.968 207.157 515.975C207.157 515.987 207.173 515.995 207.185 516.003L207.177 515.999ZM206.888 516.108C206.888 516.108 206.904 516.116 206.908 516.116C206.908 516.108 206.908 516.092 206.904 516.088C206.877 516.046 206.756 516.042 206.686 516.046C206.647 516.046 206.604 516.042 206.576 516.057C206.611 516.065 206.654 516.069 206.693 516.077C206.736 516.081 206.775 516.092 206.814 516.096C206.842 516.096 206.865 516.096 206.888 516.108ZM206.545 516.116C206.557 516.151 206.588 516.159 206.58 516.209C206.569 516.225 206.557 516.241 206.541 516.252C206.545 516.233 206.541 516.209 206.526 516.198C206.518 516.198 206.522 516.213 206.514 516.213C206.498 516.209 206.502 516.19 206.479 516.19C206.475 516.213 206.494 516.221 206.498 516.241C206.502 516.291 206.467 516.315 206.424 516.311C206.428 516.287 206.459 516.295 206.467 516.28C206.471 516.256 206.448 516.241 206.436 516.229C206.424 516.229 206.436 516.241 206.42 516.244C206.405 516.241 206.393 516.209 206.37 516.221C206.381 516.237 206.397 516.26 206.381 516.28C206.362 516.291 206.339 516.295 206.311 516.295C206.272 516.295 206.233 516.283 206.214 516.26C206.202 516.244 206.194 516.225 206.183 516.213C206.167 516.198 206.144 516.198 206.128 516.182C206.116 516.178 206.112 516.163 206.105 516.155C206.089 516.143 206.066 516.135 206.042 516.124C205.988 516.096 205.902 516.077 205.835 516.069C205.715 516.057 205.582 516.061 205.465 516.038C205.422 516.03 205.379 516.018 205.34 516.014C205.297 516.01 205.254 516.026 205.215 516.018C205.18 516.014 205.161 515.987 205.149 515.956C205.137 515.87 205.122 515.784 205.083 515.722C205.071 515.695 205.067 515.659 205.075 515.609C205.075 515.581 205.091 515.546 205.094 515.511C205.098 515.476 205.098 515.437 205.106 515.402C205.114 515.34 205.137 515.285 205.165 515.254C205.18 515.258 205.192 515.281 205.204 515.293C205.235 515.312 205.27 515.32 205.297 515.347C205.309 515.355 205.321 515.371 205.328 515.383C205.364 515.445 205.352 515.539 205.379 515.613C205.383 515.624 205.395 515.632 205.391 515.644C205.352 515.648 205.301 515.648 205.278 515.675C205.297 515.706 205.34 515.679 205.379 515.679C205.418 515.679 205.461 515.691 205.488 515.71C205.508 515.726 205.527 515.757 205.555 515.765C205.594 515.78 205.656 515.784 205.707 515.788C205.765 515.792 205.824 515.8 205.871 515.808C205.949 515.823 206.019 515.854 206.089 515.882C206.101 515.886 206.112 515.893 206.124 515.897C206.136 515.901 206.144 515.913 206.151 515.917C206.175 515.932 206.206 515.932 206.237 515.936C206.268 515.94 206.292 515.952 206.319 515.96C206.342 515.971 206.374 515.979 206.401 515.995C206.413 515.999 206.42 516.01 206.432 516.014C206.452 516.018 206.471 516.014 206.487 516.018C206.502 516.022 206.526 516.034 206.541 516.046C206.576 516.065 206.604 516.092 206.604 516.139C206.588 516.127 206.584 516.088 206.553 516.108L206.545 516.116ZM205.325 516.241C205.286 516.217 205.247 516.186 205.2 516.174C205.184 516.17 205.169 516.166 205.153 516.17C205.149 516.19 205.176 516.186 205.196 516.19C205.235 516.194 205.262 516.213 205.289 516.229C205.301 516.241 205.325 516.252 205.317 516.268C205.301 516.295 205.25 516.248 205.25 516.237C205.235 516.233 205.231 516.217 205.215 516.213C205.204 516.209 205.188 516.213 205.176 516.209C205.161 516.209 205.149 516.202 205.137 516.198C205.133 516.241 205.2 516.221 205.219 516.241C205.223 516.244 205.215 516.252 205.215 516.26C205.223 516.268 205.231 516.272 205.235 516.276C205.235 516.276 205.231 516.268 205.235 516.26C205.282 516.248 205.286 516.303 205.247 516.315C205.208 516.326 205.18 516.295 205.153 516.287C205.106 516.28 205.067 516.291 205.032 516.283C204.997 516.276 204.985 516.252 204.962 516.233C204.935 516.205 204.903 516.205 204.868 516.194C204.888 516.159 204.896 516.12 204.927 516.092C204.942 516.077 205.016 516.042 205.052 516.065C205.071 516.073 205.102 516.081 205.118 516.088C205.13 516.092 205.141 516.104 205.149 516.112C205.161 516.124 205.169 516.139 205.18 516.143C205.208 516.151 205.25 516.159 205.282 516.17C205.289 516.17 205.305 516.174 205.305 516.186C205.305 516.19 205.305 516.202 205.293 516.202C205.286 516.202 205.282 516.19 205.274 516.186C205.25 516.17 205.204 516.17 205.176 516.159C205.18 516.163 205.192 516.166 205.196 516.17C205.243 516.182 205.282 516.202 205.317 516.221C205.328 516.225 205.348 516.241 205.332 516.248L205.325 516.241ZM204.81 515.909C204.814 515.695 204.821 515.472 204.829 515.254C204.829 515.254 204.829 515.254 204.833 515.25V515.254C204.841 515.262 204.841 515.277 204.841 515.289C204.853 515.375 204.864 515.472 204.876 515.562C204.892 515.663 204.919 515.761 204.923 515.866C204.899 515.878 204.872 515.886 204.849 515.893C204.833 515.897 204.825 515.913 204.806 515.913L204.81 515.909ZM205.009 515.8C204.997 515.718 204.966 515.64 204.954 515.55C204.938 515.468 204.927 515.375 204.919 515.277C204.911 515.145 204.899 514.993 204.896 514.848C204.896 514.809 204.903 514.724 204.876 514.712C204.857 514.708 204.845 514.712 204.833 514.716C204.825 514.899 204.841 515.098 204.86 515.285C204.88 515.468 204.915 515.652 204.95 515.812C204.97 515.812 204.989 515.812 205.005 515.8H205.009ZM204.958 515.223C204.974 515.336 204.977 515.449 205.009 515.542C205.016 515.457 205.024 515.375 205.032 515.297C205.063 514.996 205.11 514.766 205.098 514.439C205.098 514.458 205.079 514.486 205.075 514.509C205.063 514.525 205.052 514.532 205.036 514.548C205.02 514.56 205.005 514.568 204.993 514.579C204.97 514.607 204.966 514.642 204.962 514.681C204.962 514.7 204.962 514.724 204.958 514.743C204.95 514.899 204.946 515.074 204.962 515.227L204.958 515.223ZM204.728 514.669C204.704 514.696 204.677 514.727 204.654 514.755C204.642 514.77 204.63 514.786 204.615 514.798C204.697 514.568 204.798 514.349 204.868 514.107C204.903 513.986 204.938 513.866 204.97 513.737C205.005 513.604 205.02 513.468 205.024 513.312C205.024 513.312 205.024 513.308 205.028 513.308C205.055 513.323 205.063 513.351 205.067 513.378C205.098 513.46 205.114 513.554 205.133 513.647C205.145 513.71 205.153 513.776 205.157 513.842C205.157 513.873 205.165 513.908 205.165 513.944C205.165 513.979 205.169 514.022 205.165 514.049C205.161 514.088 205.13 514.127 205.11 514.162C205.091 514.201 205.067 514.232 205.048 514.263C205.009 514.33 204.958 514.392 204.911 514.451C204.849 514.525 204.79 514.603 204.728 514.673V514.669ZM204.779 514.879C204.782 515.059 204.767 515.23 204.763 515.406C204.759 515.613 204.74 515.815 204.732 516.007C204.693 516.003 204.654 515.983 204.611 515.975C204.564 515.968 204.517 515.968 204.474 515.964C204.541 515.737 204.623 515.507 204.669 515.258C204.701 515.11 204.732 514.961 204.763 514.809C204.763 514.809 204.763 514.805 204.767 514.805C204.779 514.802 204.775 514.86 204.775 514.876L204.779 514.879ZM204.455 516.124C204.471 516.085 204.486 516.053 204.502 516.01H204.506C204.494 516.049 204.478 516.092 204.463 516.127C204.459 516.127 204.459 516.124 204.451 516.127L204.455 516.124ZM204.65 516.225C204.634 516.264 204.638 516.303 204.599 516.326C204.591 516.33 204.58 516.326 204.576 516.33C204.541 516.354 204.545 516.443 204.482 516.404C204.467 516.369 204.51 516.361 204.525 516.381C204.525 516.361 204.502 516.358 204.482 516.358C204.486 516.319 204.513 516.303 204.537 516.283C204.537 516.272 204.537 516.268 204.537 516.264C204.517 516.248 204.502 516.268 204.506 516.291C204.502 516.303 204.478 516.319 204.467 516.334C204.455 516.354 204.455 516.377 204.432 516.354C204.428 516.299 204.474 516.299 204.482 516.26C204.482 516.256 204.478 516.256 204.478 516.248C204.443 516.244 204.455 516.291 204.428 516.295C204.416 516.319 204.412 516.346 204.396 516.365C204.393 516.369 204.385 516.365 204.377 516.361C204.381 516.358 204.373 516.35 204.377 516.346C204.377 516.342 204.385 516.342 204.389 516.334C204.369 516.299 204.4 516.264 204.42 516.248C204.4 516.213 204.373 516.28 204.365 516.295C204.361 516.311 204.365 516.326 204.354 516.326C204.338 516.326 204.354 516.272 204.357 516.26C204.365 516.241 204.381 516.237 204.385 516.221C204.373 516.221 204.357 516.233 204.35 516.244C204.346 516.248 204.342 516.264 204.334 516.264C204.315 516.264 204.334 516.237 204.334 516.233C204.35 516.213 204.357 516.205 204.385 516.202C204.396 516.194 204.4 516.178 204.412 516.17C204.435 516.155 204.502 516.163 204.533 516.166C204.556 516.166 204.58 516.17 204.599 516.178C204.623 516.178 204.646 516.178 204.658 516.194C204.658 516.209 204.646 516.213 204.642 516.221L204.65 516.225ZM204.416 516.385C204.4 516.42 204.463 516.416 204.451 516.381C204.447 516.373 204.424 516.373 204.428 516.389C204.424 516.389 204.42 516.385 204.416 516.385ZM204.237 516.225C204.272 516.225 204.311 516.229 204.33 516.221C204.342 516.205 204.357 516.202 204.373 516.186C204.357 516.174 204.342 516.166 204.33 516.155C204.322 516.151 204.315 516.143 204.307 516.139C204.291 516.124 204.283 516.112 204.272 516.1C204.252 516.085 204.229 516.073 204.213 516.057C204.205 516.042 204.201 516.03 204.19 516.018C204.112 516.01 204.022 515.991 203.936 515.995C203.956 516.077 203.975 516.151 203.995 516.229C204.069 516.221 204.147 516.217 204.229 516.217L204.237 516.225ZM204.022 516.319C204.022 516.319 204.018 516.307 204.018 516.303C204.026 516.299 204.038 516.295 204.045 516.291C204.116 516.276 204.205 516.268 204.287 516.264C204.291 516.264 204.311 516.26 204.311 516.268C204.221 516.291 204.116 516.299 204.022 516.315V516.319ZM203.901 516.354C203.854 516.369 203.788 516.381 203.73 516.385C203.698 516.385 203.675 516.385 203.644 516.385C203.597 516.381 203.562 516.377 203.531 516.361C203.511 516.35 203.499 516.342 203.484 516.33C203.464 516.311 203.449 516.287 203.457 516.244L203.46 516.241C203.46 516.233 203.46 516.225 203.46 516.221C203.464 516.213 203.476 516.202 203.476 516.19C203.472 516.174 203.464 516.159 203.453 516.147C203.425 516.147 203.41 516.155 203.394 516.174C203.39 516.178 203.39 516.178 203.39 516.186C203.39 516.186 203.375 516.202 203.371 516.202C203.367 516.205 203.347 516.209 203.34 516.209C203.32 516.209 203.297 516.205 203.285 516.198C203.242 516.178 203.219 516.143 203.195 516.108C203.191 516.081 203.18 516.065 203.184 516.034C203.184 516.014 203.187 515.987 203.199 515.971C203.203 515.96 203.23 515.932 203.219 515.905C203.215 515.893 203.199 515.893 203.191 515.886C203.184 515.878 203.187 515.866 203.176 515.858C203.16 515.854 203.148 515.858 203.141 515.87C203.125 515.893 203.117 515.94 203.109 515.96C203.109 516.003 203.109 516.053 203.117 516.092C203.121 516.12 203.141 516.131 203.145 516.159C203.164 516.182 203.184 516.209 203.207 516.229C203.207 516.229 203.211 516.229 203.211 516.233C203.226 516.256 203.277 516.276 203.289 516.299C203.312 516.311 203.332 516.319 203.355 516.33C203.375 516.358 203.421 516.354 203.445 516.377C203.468 516.381 203.496 516.397 203.515 516.408C203.605 516.439 203.679 516.482 203.761 516.51C203.796 516.529 203.827 516.549 203.858 516.564C203.874 516.584 203.893 516.599 203.905 516.615C203.886 516.611 203.874 516.584 203.85 516.595C203.854 516.615 203.87 516.63 203.886 516.638C203.886 516.642 203.886 516.642 203.886 516.65C203.893 516.646 203.897 516.662 203.905 516.666C203.889 516.669 203.878 516.642 203.862 516.638C203.858 516.627 203.847 516.615 203.835 516.615C203.831 516.623 203.843 516.627 203.839 516.638C203.835 516.634 203.827 516.627 203.823 516.619C203.808 516.634 203.835 516.646 203.839 516.658C203.827 516.654 203.819 516.638 203.804 516.63C203.796 516.634 203.804 516.646 203.804 516.654C203.796 516.654 203.796 516.638 203.788 516.642C203.78 516.654 203.788 516.666 203.792 516.677C203.796 516.689 203.804 516.701 203.808 516.712C203.815 516.759 203.792 516.818 203.815 516.861C203.784 516.829 203.804 516.763 203.8 516.724C203.796 516.701 203.78 516.666 203.769 516.646C203.702 516.552 203.585 516.494 203.46 516.459C203.433 516.443 203.39 516.436 203.355 516.424C203.277 516.4 203.199 516.365 203.121 516.334C203.082 516.307 203.055 516.276 203.024 516.244C203.008 516.225 202.985 516.198 202.973 516.17C202.961 516.151 202.953 516.127 202.946 516.1C202.942 516.077 202.938 516.057 202.938 516.034C202.934 516.007 202.93 515.979 202.934 515.948C202.938 515.886 202.969 515.812 202.996 515.765C203.024 515.722 203.055 515.687 203.082 515.652C203.117 515.617 203.152 515.581 203.184 515.539C203.219 515.484 203.242 515.433 203.289 515.394C203.312 515.375 203.34 515.363 203.371 515.344C203.453 515.301 203.554 515.266 203.659 515.254C203.714 515.449 203.761 515.648 203.811 515.843C203.819 515.87 203.827 515.901 203.827 515.929C203.796 515.917 203.71 515.893 203.679 515.909C203.644 515.929 203.683 515.971 203.718 515.971C203.714 515.975 203.702 515.975 203.698 515.975C203.687 515.983 203.671 515.995 203.652 515.999C203.648 516.003 203.64 516.003 203.632 516.003C203.613 516.01 203.601 516.026 203.593 516.046C203.581 516.069 203.601 516.096 203.632 516.081C203.652 516.069 203.675 516.042 203.691 516.034C203.737 516.014 203.796 515.999 203.85 516.007C203.874 516.085 203.893 516.17 203.913 516.256C203.866 516.264 203.8 516.268 203.745 516.256C203.706 516.244 203.687 516.241 203.659 516.264C203.663 516.272 203.671 516.276 203.671 516.287C203.671 516.322 203.62 516.311 203.613 516.283C203.601 516.326 203.655 516.361 203.694 516.365C203.698 516.365 203.71 516.365 203.718 516.365C203.788 516.365 203.87 516.342 203.928 516.326C203.932 516.35 203.901 516.346 203.886 516.354H203.901ZM203.85 516.627C203.866 516.65 203.874 516.677 203.889 516.697C203.878 516.673 203.87 516.642 203.85 516.627ZM203.593 514.591C203.55 514.415 203.511 514.236 203.464 514.057C203.453 514.014 203.445 513.967 203.433 513.924C203.418 513.877 203.406 513.834 203.398 513.791C203.34 513.522 203.269 513.257 203.207 512.992V512.988C203.246 513.004 203.301 513 203.336 513.012C203.332 513.047 203.34 513.082 203.386 513.078C203.394 513.093 203.398 513.113 203.406 513.125C203.437 513.132 203.464 513.121 203.48 513.109C203.636 513.175 203.78 513.253 203.967 513.284C203.975 513.472 203.952 513.671 203.948 513.873C203.948 513.944 203.936 514.006 203.932 514.076C203.928 514.205 203.921 514.334 203.905 514.462C203.889 514.556 203.882 514.649 203.874 514.739C203.87 514.774 203.87 514.805 203.87 514.844C203.87 514.876 203.858 514.915 203.87 514.938C203.874 514.946 203.886 514.954 203.893 514.957C203.936 514.989 204.003 515.008 204.045 515.039C204.045 515.051 204.045 515.063 204.045 515.074C203.936 515.086 203.835 515.106 203.73 515.121C203.687 514.946 203.636 514.77 203.597 514.591H203.593ZM203.176 512.887C203.176 512.887 203.203 512.871 203.207 512.852C203.207 512.836 203.195 512.828 203.191 512.813C203.207 512.817 203.215 512.836 203.23 512.852C203.238 512.859 203.265 512.887 203.277 512.887C203.293 512.891 203.324 512.879 203.312 512.859C203.297 512.852 203.277 512.856 203.262 512.844C203.238 512.828 203.226 512.797 203.215 512.77C203.223 512.75 203.215 512.731 203.199 512.723C203.203 512.692 203.195 512.672 203.18 512.661L203.184 512.657C203.211 512.672 203.242 512.684 203.265 512.7C203.316 512.731 203.351 512.77 203.363 512.844C203.382 512.856 203.406 512.863 203.421 512.883C203.414 512.93 203.398 512.965 203.363 512.988C203.34 512.976 203.32 512.957 203.301 512.945C203.277 512.969 203.203 512.957 203.184 512.937C203.18 512.934 203.168 512.902 203.172 512.887H203.176ZM203.113 512.856C203.137 512.856 203.191 512.875 203.191 512.844C203.191 512.824 203.109 512.809 203.082 512.817C203.051 512.832 203.067 512.879 203.09 512.883C203.094 512.867 203.102 512.856 203.117 512.852L203.113 512.856ZM203.039 512.778C203.039 512.778 203.039 512.817 203.055 512.824C203.086 512.793 203.137 512.813 203.172 512.809C203.184 512.789 203.156 512.781 203.141 512.778C203.113 512.766 203.059 512.75 203.035 512.778H203.039ZM203.031 512.707C203.031 512.707 203.02 512.754 203.039 512.762C203.051 512.762 203.063 512.75 203.078 512.75C203.109 512.742 203.141 512.762 203.168 512.77C203.187 512.77 203.199 512.77 203.199 512.758C203.199 512.742 203.176 512.739 203.16 512.727C203.133 512.711 203.117 512.692 203.074 512.696C203.063 512.696 203.039 512.696 203.031 512.707ZM203.18 512.711C203.199 512.641 203.008 512.598 203.028 512.696C203.059 512.688 203.102 512.676 203.137 512.692C203.152 512.7 203.164 512.719 203.18 512.715V512.711ZM203.051 512.567C203.051 512.567 203.07 512.579 203.074 512.586C203.09 512.602 203.113 512.618 203.129 512.633C203.106 512.622 203.074 512.633 203.059 512.622C203.043 512.618 203.028 512.567 203.051 512.567ZM203.457 512.871C203.441 512.922 203.418 512.969 203.386 513.004C203.379 513.015 203.355 513.027 203.355 513.039C203.355 513.058 203.379 513.058 203.394 513.051C203.418 513.039 203.441 512.996 203.453 512.973C203.464 512.941 203.484 512.902 203.472 512.867C203.468 512.867 203.457 512.863 203.457 512.871ZM203.511 512.898C203.488 512.961 203.464 513.023 203.418 513.062C203.418 513.066 203.418 513.082 203.425 513.082C203.445 513.078 203.445 513.054 203.468 513.047C203.468 513.043 203.468 513.043 203.468 513.035C203.476 513.027 203.48 513.023 203.488 513.012C203.484 513 203.496 512.984 203.507 512.98C203.503 512.957 203.515 512.953 203.527 512.941C203.507 512.93 203.527 512.898 203.542 512.895C203.538 512.887 203.527 512.891 203.523 512.895L203.511 512.898ZM203.538 513.023C203.531 513.043 203.507 513.054 203.507 513.082C203.581 513.113 203.663 513.152 203.741 513.179C203.769 513.183 203.792 513.199 203.819 513.206C203.843 513.21 203.874 513.218 203.905 513.226C203.925 513.23 203.971 513.242 203.995 513.242C204.034 513.234 204.038 513.191 204.061 513.167C204.081 513.105 204.12 513.066 204.131 513C204.096 512.976 204.034 512.953 203.979 512.941C203.967 512.941 203.944 512.937 203.936 512.941C203.932 512.953 203.928 512.965 203.928 512.98C203.967 512.98 204.01 513.027 203.979 513.054C203.971 513.066 203.964 513.054 203.948 513.054C203.932 513.047 203.921 513.027 203.905 513.019C203.889 513.012 203.87 513.004 203.85 513C203.765 512.973 203.667 512.957 203.577 512.937C203.562 512.945 203.566 512.961 203.562 512.973C203.562 512.984 203.55 512.992 203.546 513C203.542 513.008 203.542 513.015 203.542 513.027L203.538 513.023ZM203.952 512.875C204.034 512.879 204.104 512.902 204.155 512.937C204.155 512.941 204.155 512.949 204.151 512.953C204.088 512.926 204.022 512.906 203.948 512.891C203.948 512.879 203.948 512.875 203.952 512.875ZM203.995 512.68C204.01 512.594 204.022 512.512 204.045 512.423C204.065 512.345 204.077 512.278 204.108 512.22C204.12 512.2 204.131 512.189 204.147 512.173C204.151 512.169 204.151 512.157 204.159 512.154C204.178 512.138 204.201 512.126 204.221 512.103C204.225 512.103 204.233 512.099 204.233 512.103C204.256 512.083 204.291 512.079 204.315 512.068H204.318C204.322 512.134 204.326 512.193 204.342 512.251C204.35 512.286 204.361 512.313 204.365 512.345C204.318 512.376 204.276 512.411 204.233 512.442C204.221 512.427 204.229 512.407 204.209 512.399C204.201 512.415 204.19 512.427 204.19 512.442C204.19 512.454 204.205 512.477 204.201 512.489C204.201 512.505 204.205 512.579 204.201 512.61C204.201 512.625 204.186 512.703 204.182 512.739C204.182 512.758 204.178 512.774 204.182 512.789C204.123 512.77 204.045 512.75 203.987 512.742C203.991 512.719 203.991 512.696 204.003 512.68H203.995ZM204.365 512.388C204.365 512.388 204.342 512.395 204.334 512.407C204.342 512.419 204.346 512.446 204.334 512.462C204.326 512.477 204.311 512.485 204.311 512.505C204.315 512.505 204.322 512.505 204.33 512.505C204.35 512.501 204.396 512.454 204.404 512.442C204.42 512.407 204.377 512.407 204.361 512.388H204.365ZM204.435 512.013C204.447 512.079 204.451 512.142 204.463 512.2C204.467 512.22 204.478 512.239 204.478 512.259C204.459 512.274 204.439 512.29 204.416 512.298C204.385 512.228 204.373 512.138 204.373 512.037C204.393 512.033 204.416 512.021 204.435 512.013ZM204.42 511.483C204.408 511.533 204.381 511.561 204.377 511.611C204.373 511.678 204.393 511.736 204.424 511.787C204.443 511.826 204.471 511.861 204.494 511.884C204.525 511.912 204.572 511.939 204.615 511.951C204.673 511.959 204.724 511.931 204.751 511.904C204.825 511.845 204.888 511.721 204.888 511.608C204.888 511.576 204.872 511.557 204.86 511.537C204.853 511.514 204.857 511.494 204.849 511.467C204.837 511.413 204.802 511.37 204.763 511.342C204.724 511.311 204.693 511.284 204.638 511.272C204.634 511.261 204.638 511.245 204.63 511.229C204.627 511.245 204.626 511.257 204.626 511.272C204.564 511.3 204.498 511.323 204.455 511.374C204.447 511.385 204.439 511.397 204.432 511.409C204.424 511.432 204.416 511.455 204.412 511.483H204.42ZM204.837 512.06C204.841 512.033 204.845 512.025 204.853 512.005C204.872 512.009 204.888 512.021 204.907 512.029C204.888 512.048 204.857 512.048 204.837 512.06ZM204.794 511.943C204.794 511.943 204.798 511.955 204.798 511.962C204.798 511.982 204.782 512.005 204.771 512.009C204.751 512.025 204.728 512.013 204.708 512.013C204.689 512.017 204.673 512.025 204.654 512.025C204.599 512.025 204.56 511.99 204.533 511.966C204.517 511.951 204.506 511.935 204.49 511.923C204.49 511.943 204.478 511.959 204.478 511.978C204.474 512.001 204.478 512.029 204.482 512.052C204.494 512.118 204.51 512.181 204.533 512.224C204.611 512.173 204.689 512.126 204.779 512.087C204.794 512.056 204.814 512.025 204.814 511.986C204.814 511.947 204.794 511.908 204.794 511.865C204.79 511.877 204.794 511.884 204.794 511.9C204.794 511.92 204.79 511.931 204.79 511.943H204.794ZM204.962 512.146C204.938 512.157 204.915 512.169 204.892 512.181H204.896C204.86 512.2 204.821 512.216 204.786 512.235C204.704 512.271 204.626 512.317 204.549 512.368C204.517 512.391 204.482 512.411 204.455 512.43C204.439 512.442 204.428 512.458 204.412 512.469C204.361 512.505 204.326 512.536 204.276 512.571C204.248 512.594 204.221 512.618 204.209 512.649C204.201 512.672 204.205 512.754 204.205 512.774C204.205 512.852 204.24 512.891 204.307 512.891C204.342 512.891 204.357 512.875 204.381 512.863C204.396 512.848 204.408 512.82 204.432 512.82C204.443 512.84 204.42 512.863 204.404 512.879C204.381 512.906 204.357 512.937 204.326 512.953C204.315 512.961 204.295 512.961 204.279 512.961C204.291 513.023 204.365 512.988 204.393 512.965C204.486 512.871 204.56 512.758 204.634 512.645C204.673 512.59 204.708 512.536 204.751 512.481C204.771 512.454 204.79 512.43 204.814 512.403C204.853 512.356 204.892 512.313 204.938 512.274C204.95 512.263 204.962 512.255 204.974 512.243C205.009 512.216 205.04 512.196 205.079 512.169C205.102 512.154 205.133 512.146 205.153 512.126C205.133 512.099 205.094 512.126 205.071 512.13C205.055 512.13 205.044 512.138 205.032 512.142C205.013 512.154 204.989 512.165 204.97 512.181H204.974C204.974 512.181 204.966 512.189 204.962 512.189C204.935 512.204 204.915 512.22 204.896 512.239C204.857 512.271 204.818 512.298 204.782 512.329C204.782 512.329 204.775 512.329 204.767 512.337C204.704 512.391 204.65 512.446 204.588 512.501C204.568 512.516 204.552 512.544 204.525 512.544C204.513 512.501 204.549 512.481 204.572 512.458C204.587 512.438 204.603 512.427 204.623 512.411C204.697 512.349 204.775 512.294 204.849 512.239C204.888 512.208 204.927 512.185 204.954 512.15L204.962 512.146ZM204.95 513.125V513.093C204.95 513.093 204.95 513.074 204.95 513.062C204.95 513.058 204.95 513.051 204.95 513.043C204.95 513.039 204.95 513.043 204.95 513.039C204.954 513.039 204.954 513.039 204.954 513.039C204.954 513.058 204.958 513.082 204.958 513.101C204.958 513.117 204.958 513.128 204.954 513.14C204.95 513.14 204.946 513.128 204.946 513.121L204.95 513.125ZM204.541 514.786C204.56 514.747 204.58 514.712 204.599 514.677C204.623 514.638 204.638 514.599 204.654 514.564C204.728 514.412 204.786 514.248 204.837 514.076C204.86 513.99 204.884 513.901 204.907 513.807C204.919 513.764 204.931 513.717 204.938 513.671C204.942 513.62 204.954 513.573 204.954 513.522C204.938 513.526 204.942 513.55 204.938 513.561C204.927 513.604 204.915 513.647 204.903 513.686C204.857 513.85 204.81 514.01 204.751 514.166C204.693 514.314 204.634 514.478 204.564 514.61C204.552 514.63 204.541 514.653 204.525 514.677C204.513 514.692 204.49 514.731 204.471 514.724C204.455 514.716 204.463 514.681 204.471 514.661C204.482 514.614 204.506 514.579 204.529 514.544C204.541 514.525 204.552 514.509 204.568 514.49C204.58 514.458 204.599 514.427 204.615 514.396C204.619 514.38 204.63 514.365 204.642 514.349C204.65 514.334 204.662 514.322 204.669 514.306C204.685 514.271 204.697 514.228 204.708 514.193C204.72 514.158 204.74 514.119 204.751 514.08C204.818 513.889 204.88 513.698 204.931 513.495C204.931 513.483 204.942 513.448 204.946 513.433C204.946 513.421 204.958 513.37 204.942 513.37C204.938 513.37 204.935 513.37 204.931 513.374C204.896 513.405 204.864 513.452 204.837 513.503C204.806 513.565 204.771 513.628 204.743 513.69C204.693 513.788 204.654 513.881 204.603 513.975C204.537 514.1 204.463 514.213 204.389 514.33C204.354 514.388 204.311 514.443 204.279 514.509C204.237 514.579 204.201 514.669 204.166 514.751C204.159 514.766 204.151 514.786 204.143 514.802C204.116 514.856 204.092 514.899 204.092 514.969C204.092 515.067 204.092 515.172 204.104 515.266C204.104 515.297 204.104 515.328 204.116 515.355C204.127 515.355 204.131 515.34 204.139 515.336C204.178 515.277 204.225 515.223 204.268 515.172C204.318 515.11 204.369 515.047 204.42 514.989C204.447 514.961 204.474 514.93 204.49 514.891C204.51 514.856 204.533 514.821 204.552 514.782L204.541 514.786ZM204.155 515.617C204.135 515.659 204.147 515.714 204.151 515.769C204.155 515.808 204.159 515.847 204.166 515.878C204.209 515.909 204.264 515.94 204.322 515.948C204.342 515.948 204.365 515.96 204.377 515.952C204.4 515.948 204.404 515.917 204.416 515.893C204.424 515.874 204.432 515.858 204.435 515.843C204.474 515.737 204.513 515.632 204.549 515.535C204.56 515.5 204.568 515.464 204.58 515.429C204.599 515.355 204.619 515.285 204.638 515.207C204.65 515.141 204.665 515.078 204.677 515.012C204.685 514.961 204.693 514.915 204.693 514.883C204.693 514.883 204.673 514.903 204.662 514.915C204.65 514.934 204.642 514.957 204.63 514.981C204.603 515.047 204.58 515.117 204.56 515.188C204.537 515.262 204.513 515.324 204.486 515.39C204.482 515.402 204.463 515.449 204.447 515.445C204.42 515.429 204.467 515.359 204.467 515.355C204.502 515.273 204.517 515.195 204.537 515.106C204.537 515.09 204.552 515.071 204.541 515.055C204.529 515.063 204.521 515.078 204.513 515.09C204.486 515.125 204.459 515.156 204.435 515.191C204.42 515.215 204.404 515.234 204.385 515.258C204.33 515.328 204.283 515.398 204.24 515.468C204.225 515.492 204.209 515.515 204.194 515.542C204.178 515.57 204.162 515.593 204.155 515.62V515.617ZM204.042 515.184C204.042 515.184 204.01 515.18 203.999 515.184C203.944 515.191 203.886 515.199 203.831 515.207C203.796 515.207 203.761 515.219 203.737 515.234C203.796 515.468 203.854 515.71 203.913 515.944C203.948 515.944 203.979 515.944 204.006 515.948C204.042 515.956 204.081 515.952 204.116 515.956C204.127 515.956 204.139 515.956 204.151 515.96C204.135 515.913 204.123 515.862 204.116 515.808C204.108 515.745 204.1 515.663 204.084 515.613C204.065 515.597 204.053 515.566 204.03 515.55C204.022 515.546 204.006 515.542 203.991 515.535C203.983 515.535 203.971 515.519 203.96 515.515C203.928 515.507 203.905 515.515 203.882 515.519C203.87 515.515 203.858 515.511 203.847 515.507C203.835 515.496 203.819 515.472 203.819 515.445C203.827 515.441 203.831 515.433 203.843 515.429C203.909 515.41 203.987 515.418 204.053 515.429C204.053 515.344 204.049 515.262 204.042 515.176V515.184ZM204.439 513.187C204.416 513.199 204.42 513.167 204.412 513.14C204.408 513.113 204.393 513.078 204.424 513.078C204.435 513.109 204.439 513.152 204.439 513.187ZM204.443 513.035C204.443 513.035 204.408 513.062 204.381 513.047C204.385 513.027 204.408 513.023 204.42 513.015C204.435 513.004 204.447 512.992 204.459 512.984C204.494 512.98 204.513 512.965 204.537 512.949C204.541 512.949 204.541 512.949 204.545 512.949C204.521 512.98 204.478 513.008 204.443 513.031V513.035ZM204.525 513.171C204.513 513.144 204.513 513.109 204.529 513.082C204.545 513.058 204.584 513.031 204.623 513.031C204.681 513.027 204.74 513.047 204.759 513.082C204.779 513.136 204.759 513.199 204.712 513.222C204.65 513.257 204.549 513.226 204.525 513.171ZM204.357 514.088C204.322 514.096 204.315 514.135 204.299 514.162C204.272 514.22 204.248 514.271 204.225 514.337C204.17 514.466 204.12 514.61 204.069 514.747C204.065 514.759 204.065 514.778 204.049 514.786C204.042 514.77 204.045 514.747 204.045 514.727C204.045 514.622 204.045 514.513 204.049 514.412C204.053 514.373 204.061 514.337 204.061 514.298C204.061 514.267 204.061 514.236 204.061 514.213C204.061 514.189 204.073 514.166 204.077 514.139C204.081 514.115 204.088 514.092 204.096 514.072C204.096 514.061 204.104 514.049 204.112 514.037C204.143 513.94 204.198 513.854 204.248 513.776C204.299 513.706 204.35 513.639 204.404 513.581C204.474 513.499 204.549 513.433 204.634 513.37C204.685 513.335 204.736 513.296 204.775 513.253C204.79 513.238 204.798 513.218 204.818 513.206C204.818 513.226 204.806 513.245 204.802 513.257C204.775 513.3 204.74 513.339 204.712 513.378C204.654 513.456 204.591 513.534 204.537 513.624C204.51 513.671 204.486 513.713 204.459 513.76C204.381 513.893 204.311 514.033 204.233 514.17C204.205 514.217 204.182 514.263 204.166 514.314C204.182 514.314 204.186 514.295 204.194 514.283C204.303 514.103 204.404 513.916 204.517 513.741C204.576 513.647 204.638 513.557 204.708 513.468C204.763 513.405 204.806 513.339 204.849 513.261C204.864 513.238 204.88 513.21 204.896 513.191C204.911 513.175 204.923 513.222 204.919 513.245C204.919 513.257 204.903 513.277 204.899 513.292C204.876 513.339 204.86 513.39 204.837 513.433C204.806 513.495 204.771 513.554 204.747 513.608C204.689 513.733 204.619 513.842 204.556 513.955C204.521 514.014 204.49 514.068 204.459 514.127C204.369 514.287 204.283 514.443 204.198 514.603C204.19 514.614 204.182 514.638 204.166 514.638C204.17 514.618 204.178 514.599 204.186 514.583C204.221 514.501 204.26 514.412 204.303 514.33C204.33 514.271 204.35 514.224 204.365 514.158C204.369 514.131 204.385 514.1 204.365 514.084L204.357 514.088ZM204.81 512.953C204.837 512.937 204.86 512.937 204.876 512.926H204.88C204.88 512.926 204.872 512.941 204.868 512.945C204.849 512.976 204.845 513.023 204.818 513.035C204.798 513.047 204.779 513.039 204.751 513.043C204.704 512.996 204.603 512.996 204.549 513.027C204.529 513.035 204.513 513.054 204.482 513.047C204.486 513.023 204.51 513.015 204.529 513.004C204.564 512.984 204.595 512.961 204.634 512.941C204.654 512.934 204.677 512.922 204.697 512.926C204.697 512.957 204.712 512.976 204.755 512.969C204.759 512.969 204.771 512.965 204.782 512.957C204.782 512.957 204.798 512.949 204.806 512.945L204.81 512.953ZM204.303 513.199C204.311 513.164 204.303 513.113 204.303 513.078C204.303 513.117 204.303 513.156 204.303 513.203V513.199ZM204.12 513.175C204.12 513.175 204.12 513.144 204.123 513.132C204.127 513.105 204.143 513.078 204.155 513.058C204.166 513.078 204.162 513.105 204.166 513.132C204.17 513.171 204.178 513.214 204.182 513.253C204.182 513.284 204.182 513.312 204.17 513.331C204.155 513.355 204.143 513.378 204.131 513.401C204.12 513.331 204.112 513.253 204.12 513.179V513.175ZM204.155 513.437C204.139 513.476 204.131 513.526 204.116 513.569C204.104 513.616 204.084 513.663 204.081 513.706C204.065 513.807 204.049 513.908 204.053 514.018C204.069 514.006 204.077 513.983 204.084 513.967C204.12 513.912 204.147 513.858 204.182 513.811C204.229 513.745 204.276 513.682 204.326 513.62C204.377 513.554 204.432 513.499 204.482 513.44C204.51 513.409 204.537 513.382 204.564 513.359C204.595 513.331 204.63 513.308 204.65 513.273C204.623 513.269 204.591 513.273 204.568 513.265C204.549 513.261 204.529 513.242 204.513 513.238C204.498 513.234 204.474 513.238 204.459 513.234C204.4 513.234 204.342 513.226 204.295 513.214C204.276 513.234 204.264 513.253 204.248 513.273C204.221 513.308 204.201 513.339 204.178 513.386C204.166 513.405 204.159 513.425 204.151 513.444L204.155 513.437ZM203.979 514.497C203.979 514.497 203.983 514.458 203.979 514.443C203.979 514.443 203.979 514.443 203.975 514.443C203.956 514.61 203.936 514.774 203.917 514.938C203.94 514.934 203.948 514.942 203.96 514.95C203.967 514.918 203.964 514.887 203.967 514.856C203.967 514.821 203.971 514.79 203.971 514.755C203.971 514.669 203.979 514.583 203.983 514.501L203.979 514.497ZM204.014 514.404C204.018 514.174 204.003 513.944 204.03 513.764C204.03 513.764 204.034 513.756 204.034 513.752C204.034 513.749 204.034 513.741 204.034 513.733C204.042 513.706 204.049 513.678 204.049 513.655C204.061 513.643 204.061 513.624 204.065 513.604C204.069 513.589 204.077 513.569 204.081 513.55C204.088 513.503 204.081 513.448 204.073 513.394C204.073 513.343 204.081 513.288 204.065 513.242C204.042 513.257 204.026 513.277 203.999 513.288C203.995 513.398 203.995 513.495 203.987 513.596C203.987 513.639 203.983 513.678 203.983 513.721C203.983 513.768 203.983 513.811 203.979 513.858C203.967 514.022 203.971 514.205 203.967 514.4C203.987 514.404 204.003 514.408 204.018 514.412L204.014 514.404ZM205.2 512.228C205.2 512.228 205.211 512.255 205.215 512.267C205.235 512.329 205.243 512.395 205.254 512.466C205.262 512.497 205.27 512.532 205.274 512.563C205.282 512.598 205.289 512.629 205.297 512.661C205.282 512.661 205.27 512.664 205.258 512.668C205.192 512.68 205.098 512.68 205.024 512.703V512.688C205.024 512.688 205.024 512.684 205.024 512.672C205.02 512.645 205.02 512.649 205.02 512.629C205.02 512.61 205.02 512.583 205.009 512.586C205.009 512.563 204.977 512.516 204.974 512.551C204.974 512.563 204.974 512.575 204.974 512.583C204.977 512.637 204.977 512.637 204.977 512.696C204.977 512.719 204.981 512.824 204.977 512.844C204.966 512.844 204.954 512.848 204.942 512.844C204.927 512.852 204.907 512.859 204.892 512.863C204.868 512.867 204.845 512.875 204.818 512.875C204.79 512.871 204.767 512.863 204.743 512.856C204.724 512.844 204.704 512.828 204.685 512.824C204.626 512.805 204.623 512.863 204.56 512.852C204.584 512.793 204.619 512.75 204.65 512.7C204.693 512.629 204.74 512.567 204.79 512.508C204.814 512.485 204.833 512.458 204.853 512.434C204.88 512.403 204.907 512.372 204.938 512.345C204.95 512.337 204.958 512.321 204.977 512.321C204.966 512.376 204.942 512.411 204.907 512.442C204.896 512.454 204.884 512.469 204.876 512.473C204.864 512.481 204.849 512.485 204.845 512.501V512.508C204.845 512.536 204.88 512.544 204.899 512.532C204.923 512.516 204.942 512.473 204.962 512.442C205.016 512.349 205.083 512.243 205.165 512.193C205.184 512.177 205.2 512.212 205.208 512.228H205.2ZM205.321 512.746C205.321 512.746 205.301 512.719 205.301 512.7C205.286 512.696 205.266 512.703 205.254 512.711C205.258 512.727 205.258 512.742 205.266 512.758C205.286 512.754 205.305 512.754 205.321 512.75V512.746ZM205.332 512.774C205.332 512.774 205.348 512.774 205.348 512.785C205.348 512.797 205.297 512.805 205.286 512.809C205.215 512.828 205.137 512.863 205.087 512.895C205.067 512.906 205.059 512.922 205.04 512.914C205.044 512.902 205.055 512.891 205.063 512.887C205.075 512.879 205.091 512.871 205.098 512.867C205.145 512.844 205.192 512.82 205.247 512.801C205.274 512.793 205.305 512.785 205.328 512.774H205.332ZM205.352 513.261C205.344 513.234 205.332 513.214 205.328 513.195C205.325 513.179 205.321 513.167 205.321 513.152V513.093C205.313 513.066 205.309 513.066 205.309 513.039C205.301 513 205.297 512.996 205.289 512.957C205.223 512.957 205.165 512.973 205.114 512.992C205.114 513.07 205.114 513.093 205.114 513.117C205.122 513.156 205.118 513.187 205.133 513.23C205.172 513.331 205.27 513.62 205.313 513.713C205.321 513.733 205.332 513.764 205.34 513.772C205.348 513.776 205.371 513.776 205.387 513.776C205.414 513.776 205.473 513.756 205.477 513.733C205.481 513.713 205.469 513.682 205.461 513.663C205.422 513.518 205.391 513.386 205.344 513.257L205.352 513.261ZM205.523 513.741C205.523 513.741 205.516 513.78 205.504 513.788C205.469 513.811 205.403 513.83 205.348 513.83C205.325 513.83 205.289 513.83 205.301 513.799C205.383 513.819 205.488 513.803 205.516 513.741H205.523ZM205.535 513.795C205.535 513.795 205.492 513.819 205.457 513.83C205.434 513.838 205.403 513.846 205.387 513.846C205.367 513.846 205.328 513.846 205.321 513.862C205.305 513.881 205.332 513.901 205.352 513.897C205.367 513.893 205.375 513.877 205.395 513.885C205.406 513.881 205.41 513.869 205.422 513.869C205.43 513.866 205.438 513.869 205.445 513.869C205.457 513.869 205.465 513.858 205.473 513.858C205.477 513.858 205.488 513.858 205.492 513.858C205.508 513.854 205.512 513.838 205.523 513.838C205.547 513.83 205.566 513.838 205.57 513.819C205.57 513.807 205.555 513.788 205.539 513.791L205.535 513.795ZM205.574 513.862C205.652 513.881 205.726 513.92 205.804 513.944C205.855 513.959 205.902 513.971 205.937 513.994C205.949 513.998 205.952 514.006 205.96 514.01C205.976 514.018 205.988 514.025 206.003 514.033C206.007 514.037 206.019 514.033 206.015 514.045C205.999 514.053 205.991 514.037 205.98 514.033C205.913 513.998 205.843 513.955 205.754 513.944C205.765 513.959 205.781 513.959 205.796 513.959C205.878 513.979 205.949 514.033 206.015 514.072C206.027 514.076 206.042 514.084 206.042 514.1C206.03 514.107 206.015 514.1 206.007 514.092C205.933 514.041 205.859 513.983 205.746 513.963C205.738 513.983 205.769 513.986 205.777 513.986C205.835 514.002 205.878 514.022 205.925 514.049C205.937 514.057 205.952 514.068 205.968 514.08C205.984 514.088 206.003 514.096 206.011 514.111C205.988 514.131 205.952 514.111 205.929 514.096C205.906 514.084 205.89 514.072 205.867 514.064C205.828 514.049 205.777 514.037 205.726 514.025C205.699 514.022 205.672 514.022 205.648 514.014C205.625 514.01 205.605 513.99 205.582 513.99C205.562 514.014 205.598 514.014 205.621 514.022C205.621 514.022 205.629 514.033 205.633 514.033C205.664 514.041 205.707 514.037 205.742 514.045C205.765 514.049 205.808 514.064 205.808 514.076C205.808 514.103 205.718 514.08 205.695 514.08C205.637 514.076 205.601 514.084 205.547 514.076C205.508 514.072 205.465 514.061 205.445 514.033C205.438 514.022 205.43 514.006 205.43 514.002C205.43 513.99 205.434 513.975 205.43 513.959C205.426 513.944 205.414 513.944 205.422 513.928C205.422 513.916 205.43 513.928 205.445 513.92C205.449 513.92 205.457 513.916 205.461 513.912C205.469 513.912 205.481 513.912 205.488 513.912C205.504 513.912 205.504 513.889 205.527 513.897C205.543 513.881 205.559 513.873 205.578 513.862H205.574ZM205.929 513.959C205.929 513.971 205.945 513.975 205.952 513.983C205.96 513.99 205.968 513.994 205.98 514.002C205.999 514.014 206.023 514.022 206.034 514.037C206.038 514.041 206.038 514.053 206.046 514.061C206.054 514.076 206.069 514.084 206.069 514.1C206.066 514.131 205.999 514.139 205.968 514.15C205.96 514.158 205.956 514.17 205.945 514.178C205.941 514.189 205.929 514.197 205.929 514.213C205.945 514.213 205.952 514.193 205.968 514.185C205.976 514.181 205.984 514.181 205.995 514.174C206.023 514.158 206.05 514.146 206.073 514.131C206.089 514.107 206.093 514.084 206.085 514.061C206.077 514.045 206.042 514.006 206.03 513.994C206.019 513.99 205.999 513.983 205.984 513.979C205.964 513.971 205.945 513.955 205.933 513.963L205.929 513.959ZM206.081 513.99C206.085 514.025 206.112 514.053 206.12 514.08C206.124 514.139 206.062 514.162 206.03 514.178C206.011 514.189 205.988 514.189 205.976 514.205C205.991 514.217 206.011 514.205 206.03 514.205C206.05 514.205 206.073 514.209 206.089 514.209C206.124 514.205 206.155 514.181 206.175 514.166C206.198 514.146 206.222 514.123 206.245 514.111C206.253 514.111 206.268 514.111 206.272 514.1C206.276 514.092 206.261 514.08 206.257 514.076C206.245 514.057 206.237 514.041 206.214 514.033C206.19 514.029 206.167 514.033 206.147 514.029C206.12 514.022 206.112 513.983 206.081 513.986V513.99ZM206.3 514.142C206.245 514.142 206.214 514.178 206.179 514.209C206.19 514.201 206.206 514.201 206.214 514.189C206.218 514.185 206.225 514.174 206.229 514.17C206.253 514.154 206.303 514.135 206.339 514.158C206.35 514.17 206.362 514.193 206.366 514.209C206.377 514.24 206.377 514.283 206.366 514.314C206.354 514.349 206.327 514.365 206.311 514.388C206.354 514.443 206.385 514.509 206.389 514.599C206.389 514.63 206.385 514.657 206.385 514.688C206.385 514.77 206.444 514.829 206.428 514.907C206.428 514.918 206.416 514.93 206.416 514.942C206.416 514.954 206.436 514.973 206.444 514.985C206.471 515.043 206.475 515.11 206.475 515.184C206.475 515.207 206.471 515.234 206.471 515.258C206.475 515.293 206.491 515.324 206.498 515.351C206.498 515.359 206.498 515.375 206.51 515.379C206.522 515.363 206.514 515.344 206.514 515.328C206.514 515.195 206.491 515.082 206.487 514.957C206.487 514.879 206.491 514.802 206.491 514.727C206.491 514.653 206.491 514.579 206.475 514.517C206.471 514.497 206.459 514.478 206.455 514.458C206.42 514.365 206.413 514.252 206.366 514.181C206.35 514.158 206.331 514.139 206.296 514.139L206.3 514.142ZM206.066 515.734C206.046 515.769 206.011 515.8 205.98 515.815C206.034 515.835 206.101 515.815 206.12 515.776C206.136 515.741 206.128 515.702 206.14 515.671C206.14 515.663 206.144 515.656 206.151 515.652C206.159 515.636 206.175 515.624 206.186 515.609C206.202 515.581 206.202 515.539 206.202 515.503C206.257 515.566 206.186 515.636 206.167 515.691C206.163 515.702 206.155 515.718 206.167 515.73C206.183 515.73 206.186 515.714 206.198 515.71C206.21 515.702 206.218 515.702 206.229 515.691C206.261 515.667 206.264 515.62 206.272 515.574C206.276 515.554 206.284 515.535 206.284 515.519C206.284 515.492 206.276 515.457 206.284 515.429C206.292 515.402 206.307 515.39 206.315 515.367C206.327 515.34 206.311 515.316 206.311 515.285C206.315 515.266 206.323 515.254 206.327 515.242C206.331 515.223 206.331 515.203 206.327 515.18C206.319 515.145 206.296 515.129 206.28 515.102C206.272 515.09 206.272 515.086 206.264 515.074C206.264 515.067 206.253 515.059 206.253 515.047C206.237 514.996 206.264 514.934 206.257 514.887C206.253 514.887 206.253 514.883 206.253 514.883C206.253 514.883 206.253 514.887 206.249 514.887C206.245 514.915 206.233 514.934 206.225 514.954C206.222 514.961 206.222 514.969 206.214 514.977C206.206 514.993 206.19 515 206.179 515.016C206.167 515.032 206.155 515.051 206.155 515.074C206.159 515.098 206.175 515.117 206.186 515.141C206.19 515.16 206.194 515.184 206.19 515.207C206.186 515.246 206.167 515.285 206.151 515.308C206.128 515.351 206.097 515.402 206.089 515.445C206.081 515.492 206.097 515.535 206.101 515.581C206.101 515.636 206.089 515.687 206.069 515.718L206.066 515.734ZM205.789 515.351C205.789 515.351 205.785 515.32 205.785 515.308C205.785 515.285 205.804 515.266 205.804 515.246C205.8 515.238 205.789 515.227 205.785 515.211C205.781 515.199 205.781 515.191 205.781 515.184C205.781 515.18 205.773 515.172 205.769 515.164C205.765 515.141 205.757 515.129 205.742 515.117C205.715 515.172 205.765 515.211 205.773 515.258C205.773 515.316 205.75 515.359 205.777 515.398C205.769 515.375 205.789 515.363 205.793 515.347L205.789 515.351ZM205.648 515.562C205.648 515.609 205.676 515.636 205.695 515.667C205.699 515.679 205.711 515.695 205.711 515.706C205.715 515.726 205.707 515.757 205.715 515.765C205.726 515.757 205.726 515.737 205.738 515.726C205.75 515.71 205.769 515.706 205.785 515.695C205.824 515.663 205.839 515.589 205.816 515.523C205.812 515.515 205.804 515.503 205.8 515.496C205.781 515.468 205.757 515.449 205.746 515.418C205.722 515.359 205.734 515.289 205.726 515.223C205.707 515.188 205.679 515.164 205.679 515.121C205.679 515.102 205.691 515.09 205.691 515.071C205.691 515.047 205.676 515.024 205.672 515.004C205.652 514.996 205.644 514.981 205.629 514.969C205.601 515.047 205.676 515.098 205.652 515.172C205.644 515.172 205.644 515.184 205.629 515.184C205.617 515.184 205.629 515.156 205.617 515.16C205.598 515.25 205.664 515.312 205.672 515.386C205.672 515.414 205.672 515.437 205.672 515.464C205.672 515.5 205.652 515.531 205.648 515.566V515.562ZM205.625 515.648C205.629 515.679 205.621 515.722 205.613 515.753C205.629 515.753 205.648 515.757 205.668 515.757C205.668 515.71 205.656 515.671 205.633 515.64C205.633 515.64 205.625 515.64 205.625 515.644V515.648ZM205.574 515.5C205.574 515.5 205.594 515.539 205.605 515.562C205.605 515.519 205.629 515.48 205.633 515.437C205.637 515.383 205.621 515.347 205.609 515.308C205.601 515.285 205.594 515.262 205.59 515.242C205.586 515.203 205.59 515.16 205.601 515.125C205.601 515.106 205.605 515.09 205.605 515.074C205.605 515.055 205.594 515.024 205.598 514.996C205.598 514.977 205.609 514.954 205.609 514.934C205.609 514.93 205.605 514.918 205.598 514.911C205.594 514.891 205.586 514.879 205.582 514.86C205.582 514.844 205.582 514.833 205.57 514.833C205.566 514.868 205.566 514.891 205.555 514.915C205.539 514.977 205.488 515.016 205.496 515.086C205.5 515.141 205.535 515.18 205.555 515.227C205.566 515.258 205.582 515.293 205.582 515.328C205.586 515.386 205.555 515.449 205.57 515.496L205.574 515.5ZM205.414 515.433C205.414 515.464 205.395 515.488 205.387 515.515C205.387 515.539 205.395 515.566 205.406 515.589C205.426 515.624 205.442 515.652 205.469 515.671C205.481 515.652 205.508 515.644 205.508 515.62C205.508 515.597 205.477 515.581 205.461 515.566C205.434 515.527 205.418 515.437 205.442 515.375C205.449 515.351 205.473 515.324 205.465 515.293C205.465 515.273 205.442 515.254 205.43 515.234C205.418 515.215 205.406 515.199 205.395 515.18C205.371 515.137 205.371 515.078 205.375 515.024C205.344 515 205.328 514.961 205.301 514.93L205.297 514.934C205.282 515.047 205.309 515.113 205.356 515.176C205.383 515.211 205.434 515.254 205.414 515.312C205.414 515.324 205.403 515.328 205.403 515.34C205.399 515.347 205.406 515.359 205.406 515.367C205.406 515.386 205.406 515.41 205.406 515.429L205.414 515.433ZM205.469 514.131C205.469 514.131 205.484 514.119 205.477 514.115C205.461 514.115 205.457 514.123 205.442 514.127C205.375 514.178 205.336 514.248 205.293 514.322C205.278 514.369 205.25 514.404 205.239 514.454C205.215 514.525 205.2 514.61 205.188 514.685C205.184 514.716 205.176 514.739 205.18 514.766C205.18 514.794 205.184 514.817 205.192 514.848C205.204 514.899 205.223 514.942 205.231 514.996C205.231 515.055 205.231 515.102 205.25 515.141C205.27 515.176 205.305 515.199 205.336 515.215C205.332 515.199 205.321 515.191 205.317 515.18C205.289 515.125 205.27 515.071 205.262 515C205.262 514.981 205.262 514.957 205.262 514.938C205.262 514.907 205.282 514.876 205.282 514.84C205.282 514.833 205.282 514.821 205.278 514.805V514.77C205.278 514.77 205.258 514.751 205.25 514.739C205.239 514.712 205.223 514.657 205.239 514.614C205.243 514.607 205.25 514.595 205.258 514.583C205.278 514.556 205.305 514.532 205.317 514.505C205.328 514.482 205.34 514.435 205.34 514.412C205.34 514.4 205.336 514.388 205.336 514.376C205.336 514.353 205.332 514.33 205.34 514.31C205.356 514.267 205.387 514.244 205.434 514.236C205.442 514.213 205.453 514.193 205.469 514.174C205.469 514.158 205.469 514.139 205.481 514.127L205.469 514.131ZM205.516 514.337C205.516 514.337 205.516 514.326 205.52 514.318C205.523 514.318 205.523 514.318 205.52 514.318C205.504 514.361 205.488 514.404 205.477 514.451C205.473 514.443 205.473 514.431 205.477 514.423C205.481 514.392 205.492 514.345 205.512 514.334L205.516 514.337ZM205.332 514.669C205.34 514.646 205.36 514.626 205.367 514.607C205.383 514.568 205.395 514.525 205.399 514.478V514.47C205.399 514.47 205.399 514.47 205.403 514.474C205.438 514.587 205.367 514.692 205.367 514.798C205.367 514.833 205.379 514.868 205.395 514.895C205.403 514.918 205.418 514.942 205.406 514.977C205.379 514.957 205.367 514.93 205.348 514.899C205.34 514.887 205.332 514.872 205.328 514.864C205.313 514.801 205.317 514.724 205.332 514.673V514.669ZM205.379 514.33C205.379 514.33 205.406 514.306 205.43 514.31C205.41 514.349 205.403 514.396 205.403 514.443C205.399 514.439 205.387 514.435 205.379 514.427C205.356 514.4 205.364 514.349 205.379 514.33ZM205.278 514.61H205.282C205.309 514.56 205.344 514.517 205.356 514.458C205.36 514.458 205.364 514.462 205.367 514.462C205.367 514.575 205.278 514.622 205.266 514.72C205.247 514.696 205.25 514.646 205.266 514.63C205.266 514.63 205.266 514.607 205.27 514.622C205.274 514.618 205.266 514.614 205.27 514.607L205.278 514.61ZM205.465 514.571C205.465 514.603 205.465 514.638 205.461 514.669C205.449 514.7 205.426 514.724 205.422 514.759C205.422 514.763 205.422 514.774 205.422 514.778C205.422 514.786 205.414 514.794 205.41 514.798C205.406 514.829 205.414 514.856 205.414 514.891C205.387 514.844 205.383 514.778 205.395 514.724C205.406 514.681 205.426 514.646 205.426 514.607C205.434 514.532 205.426 514.443 205.438 514.373C205.449 514.33 205.477 514.306 205.496 514.275C205.508 514.271 205.516 514.252 205.531 514.256C205.531 514.252 205.523 514.256 205.527 514.252C205.578 514.217 205.648 514.178 205.73 514.201C205.707 514.205 205.672 514.209 205.644 514.209C205.574 514.236 205.512 514.275 205.477 514.345C205.477 514.345 205.475 514.348 205.473 514.353C205.473 514.353 205.457 514.408 205.453 514.439C205.445 514.49 205.465 514.529 205.465 514.575V514.571ZM206.163 514.462C206.175 514.544 206.163 514.622 206.132 514.681C206.112 514.72 206.085 514.755 206.062 514.79C206.066 514.805 206.077 514.833 206.062 514.848C206.03 514.844 206.007 514.833 205.98 514.821C205.984 514.864 206.027 514.868 206.054 514.883C206.054 514.895 206.042 514.911 206.034 514.911C206.023 514.911 205.988 514.883 205.976 514.879C205.972 514.876 205.964 514.864 205.96 514.864C205.96 514.903 205.991 514.915 206.011 514.934C206.007 514.946 205.991 514.965 205.98 514.965C205.949 514.969 205.933 514.911 205.921 514.883C205.902 514.891 205.906 514.922 205.898 514.942C205.847 514.922 205.832 514.872 205.835 514.817C205.847 514.77 205.929 514.782 205.945 514.735C205.945 514.72 205.945 514.704 205.937 514.692C205.933 514.677 205.929 514.665 205.917 514.661C205.906 514.677 205.933 514.7 205.917 514.716C205.906 514.72 205.898 514.716 205.89 514.716C205.855 514.712 205.828 514.727 205.796 514.724C205.781 514.724 205.765 514.716 205.75 514.716C205.738 514.716 205.726 514.716 205.715 514.712C205.711 514.692 205.726 514.677 205.707 514.669C205.699 514.685 205.691 514.7 205.695 514.727C205.695 514.747 205.715 514.766 205.726 514.774C205.754 514.79 205.796 514.79 205.808 514.813C205.812 514.829 205.812 514.848 205.808 514.86C205.804 514.907 205.765 514.938 205.726 514.95C205.73 514.934 205.738 514.891 205.718 514.895C205.707 514.895 205.703 514.926 205.691 514.942C205.676 514.965 205.64 514.985 205.621 514.946C205.648 514.926 205.676 514.915 205.687 514.879C205.676 514.879 205.648 514.887 205.629 514.899C205.605 514.911 205.59 514.922 205.59 514.879C205.629 514.876 205.656 514.852 205.672 514.825C205.648 514.833 205.617 514.848 205.586 514.84C205.582 514.837 205.586 514.825 205.586 514.821C205.531 514.755 205.492 514.669 205.488 514.564C205.488 514.497 205.504 514.423 205.527 514.369C205.539 514.345 205.547 514.33 205.559 514.314C205.57 514.291 205.582 514.275 205.605 514.263C205.637 514.252 205.676 514.244 205.715 514.244C205.757 514.248 205.785 514.267 205.816 514.275C205.859 514.287 205.89 514.256 205.925 514.252C205.976 514.248 206.019 514.263 206.05 514.287C206.062 514.291 206.073 514.31 206.085 514.322C206.116 514.353 206.14 514.408 206.147 514.466L206.163 514.462ZM206.136 515.125C206.136 515.125 206.151 515.141 206.159 515.152C206.171 515.176 206.171 515.254 206.147 515.262C206.151 515.164 206.062 515.125 206.085 515.028C206.089 515.004 206.097 514.985 206.108 514.961C206.124 514.915 206.147 514.86 206.132 514.802C206.132 514.798 206.124 514.786 206.124 514.778C206.124 514.766 206.151 514.716 206.163 514.708C206.179 514.712 206.179 514.735 206.179 514.747C206.19 514.782 206.214 514.825 206.214 514.868C206.214 514.907 206.194 514.954 206.179 514.985C206.155 515.016 206.124 515.039 206.128 515.09C206.132 515.106 206.136 515.117 206.14 515.129L206.136 515.125ZM206.171 514.376C206.171 514.376 206.171 514.373 206.171 514.369C206.171 514.373 206.175 514.373 206.175 514.373C206.214 514.392 206.229 514.443 206.233 514.497C206.233 514.536 206.218 514.575 206.214 514.61C206.21 514.649 206.218 514.685 206.237 514.708C206.249 514.72 206.272 514.731 206.272 514.755C206.272 514.778 206.253 514.794 206.249 514.813C206.233 514.794 206.229 514.77 206.225 514.747C206.222 514.724 206.21 514.7 206.21 514.677C206.21 514.653 206.214 514.638 206.214 514.614C206.222 514.532 206.194 514.447 206.171 514.38V514.376ZM206.389 514.872C206.389 514.895 206.377 514.922 206.37 514.942C206.35 514.969 206.327 514.977 206.315 515.008C206.303 515.051 206.335 515.09 206.327 515.125C206.315 515.125 206.307 515.11 206.303 515.098C206.296 515.09 206.288 515.078 206.284 515.067C206.268 515.012 206.307 514.934 206.288 514.872C206.288 514.86 206.272 514.844 206.272 514.837C206.272 514.805 206.299 514.782 206.296 514.747C206.296 514.724 206.28 514.712 206.268 514.696C206.257 514.681 206.245 514.673 206.245 514.653C206.245 514.622 206.268 514.595 206.272 514.564C206.284 514.505 206.272 514.462 206.249 514.419H206.253C206.276 514.443 206.296 514.47 206.315 514.505C206.331 514.532 206.342 514.575 206.342 514.614C206.342 514.665 206.327 514.716 206.331 514.763C206.335 514.802 206.374 514.825 206.378 514.868L206.389 514.872ZM206.261 514.209C206.261 514.209 206.272 514.197 206.272 514.193C206.296 514.174 206.327 514.197 206.331 514.217C206.354 514.283 206.299 514.365 206.249 514.373C206.225 514.376 206.19 514.369 206.19 514.353C206.194 514.345 206.202 514.349 206.21 514.349C206.253 514.345 206.284 514.322 206.307 514.298C206.323 514.256 206.303 514.213 206.264 514.213L206.261 514.209ZM206.245 514.213C206.245 514.213 206.233 514.232 206.241 514.244C206.241 514.252 206.253 514.259 206.253 514.263C206.253 514.271 206.218 514.291 206.206 514.295C206.171 514.306 206.12 514.295 206.108 514.275C206.171 514.267 206.21 514.24 206.249 514.209L206.245 514.213ZM205.816 514.111C205.816 514.111 205.882 514.096 205.843 514.088C205.839 514.1 205.816 514.092 205.816 514.111ZM205.855 514.139C205.812 514.146 205.757 514.119 205.707 514.115C205.679 514.111 205.648 514.107 205.621 514.111C205.543 514.123 205.496 514.17 205.469 514.248C205.5 514.22 205.531 514.189 205.574 514.174C205.621 514.154 205.691 514.139 205.746 514.162C205.769 514.174 205.793 514.185 205.816 514.189C205.855 514.189 205.871 514.178 205.89 514.166C205.902 514.146 205.937 514.135 205.921 514.107C205.894 514.107 205.886 514.131 205.859 514.139H205.855ZM205.11 512.937C205.11 512.937 205.13 512.922 205.145 512.918C205.188 512.906 205.235 512.891 205.282 512.891C205.286 512.895 205.289 512.902 205.289 512.91C205.262 512.926 205.227 512.926 205.196 512.93C205.165 512.934 205.137 512.945 205.11 512.941V512.937ZM204.993 513.039C204.993 513.039 204.997 513.078 204.997 513.093V513.148C204.997 513.148 204.997 513.171 204.997 513.183C205.18 513.472 205.215 513.908 205.208 514.369C205.219 514.357 205.223 514.341 205.231 514.326C205.258 514.256 205.297 514.197 205.34 514.139C205.36 514.111 205.375 514.088 205.395 514.072C205.403 514.061 205.43 514.053 205.43 514.041C205.43 514.025 205.414 513.994 205.41 513.983C205.403 513.963 205.399 513.944 205.387 513.928C205.356 513.928 205.305 513.912 205.301 513.881C205.297 513.866 205.305 513.858 205.313 513.838C205.309 513.827 205.293 513.827 205.293 513.811C205.293 513.791 205.305 513.776 205.309 513.76C205.254 513.651 205.2 513.534 205.157 513.409C205.141 513.37 205.114 513.265 205.106 513.222C205.102 513.195 205.091 513.128 205.087 513.101C205.083 513.082 205.079 513.058 205.075 513.039C205.075 513.039 205.071 513.023 205.063 512.957H205.059C205.032 512.969 205.013 513 204.989 513.015C204.989 513.023 205.001 513.027 205.001 513.035L204.993 513.039ZM205.114 515.008C205.114 515.008 205.114 514.993 205.114 514.985C205.118 514.961 205.126 514.93 205.133 514.903C205.133 514.883 205.133 514.868 205.145 514.856C205.145 514.856 205.145 514.856 205.149 514.856C205.137 514.887 205.137 514.926 205.133 514.954C205.13 514.973 205.126 514.993 205.114 515.004V515.008ZM205.161 514.918C205.161 514.981 205.13 515.024 205.13 515.082C205.133 515.152 205.161 515.219 205.196 515.258C205.231 515.297 205.289 515.305 205.325 515.344C205.34 515.359 205.352 515.383 205.364 515.402C205.371 515.418 205.371 515.437 205.383 515.449C205.387 515.425 205.395 515.406 205.395 515.386C205.395 515.363 205.375 515.347 205.375 515.332C205.375 515.305 205.391 515.277 205.364 515.258C205.305 515.238 205.254 515.223 205.227 515.176C205.18 515.106 205.204 515 205.172 514.918H205.169C205.169 514.918 205.169 514.918 205.169 514.922L205.161 514.918ZM205.512 515.539C205.539 515.578 205.559 515.656 205.523 515.698C205.539 515.718 205.547 515.737 205.57 515.745C205.601 515.683 205.598 515.613 205.57 515.554C205.559 515.531 205.539 515.507 205.531 515.484C205.52 515.433 205.543 515.402 205.547 515.355C205.547 515.336 205.551 515.308 205.547 515.289C205.543 515.242 205.504 515.203 205.488 515.16C205.481 515.141 205.473 515.117 205.465 515.098C205.457 515.047 205.465 514.993 205.477 514.95C205.488 514.922 205.5 514.899 205.512 514.868C205.523 514.821 205.512 514.766 205.5 514.731C205.5 514.72 205.492 514.696 205.481 514.7C205.469 514.72 205.453 514.751 205.449 514.77C205.434 514.813 205.438 514.864 205.434 514.915C205.434 514.965 205.414 515.012 205.41 515.051C205.403 515.113 205.426 515.145 205.445 515.18C205.461 515.207 205.481 515.23 205.488 515.254C205.508 515.312 205.488 515.363 205.469 515.414C205.457 515.461 205.469 515.503 205.481 515.535C205.484 515.546 205.488 515.562 205.504 515.57C205.516 515.57 205.504 515.55 205.508 515.542L205.512 515.539ZM205.941 515.41C205.941 515.453 205.96 515.488 205.968 515.527C205.976 515.593 205.949 515.648 205.917 515.683C205.886 515.722 205.835 515.726 205.828 515.788C205.851 515.788 205.867 515.804 205.886 515.8C205.898 515.8 205.906 515.788 205.917 515.788C205.941 515.78 205.96 515.776 205.98 515.765C206.007 515.749 206.011 515.745 206.027 515.722C206.042 515.702 206.054 515.687 206.062 515.659C206.062 515.64 206.069 515.601 206.066 515.585C206.066 515.566 206.054 515.539 206.05 515.519C206.046 515.492 206.038 515.468 206.03 515.453C206.023 515.441 206.011 515.429 206.003 515.414C205.995 515.398 205.988 515.363 205.988 515.347C205.988 515.312 206.027 515.289 206.034 515.258C206.034 515.227 206.03 515.207 206.019 515.188C206.011 515.168 206.011 515.152 206.003 515.141C205.991 515.11 205.949 515.074 205.949 515.039C205.949 515.028 205.949 515.016 205.968 515.012C205.984 515.02 205.98 515.039 205.991 515.051C205.991 515.059 206.003 515.067 206.011 515.074C206.015 515.09 206.023 515.11 206.027 515.129C206.038 515.168 206.066 515.215 206.058 515.266C206.05 515.301 206.019 515.328 206.019 515.359C206.019 515.383 206.038 515.406 206.054 515.418C206.081 515.359 206.116 515.32 206.112 515.238C206.112 515.219 206.108 515.203 206.108 515.191C206.097 515.145 206.058 515.113 206.05 515.059C206.042 514.996 206.077 514.961 206.085 514.903C206.066 514.942 206.046 514.981 205.999 514.996C205.984 514.985 205.972 514.973 205.949 514.965C205.945 514.965 205.941 514.965 205.933 514.965C205.917 514.965 205.898 514.946 205.882 514.946C205.871 514.946 205.859 514.954 205.843 514.957C205.828 514.957 205.808 514.946 205.793 514.946C205.781 514.946 205.765 514.961 205.75 514.965C205.73 514.965 205.715 514.965 205.699 514.977C205.715 514.996 205.711 515.043 205.73 515.059C205.75 515.074 205.777 515.063 205.796 515.074C205.796 515.082 205.804 515.086 205.804 515.09C205.804 515.137 205.824 515.156 205.824 515.195C205.828 515.207 205.843 515.219 205.843 515.234C205.843 515.25 205.824 515.269 205.82 515.293C205.82 515.312 205.82 515.324 205.82 515.34C205.82 515.359 205.8 515.371 205.8 515.39C205.8 515.402 205.8 515.414 205.804 515.422C205.804 515.429 205.808 515.441 205.82 515.449C205.82 515.379 205.859 515.328 205.859 515.269C205.859 515.246 205.847 515.227 205.843 515.207C205.839 515.184 205.835 515.164 205.828 515.145C205.828 515.133 205.812 515.125 205.808 515.113C205.808 515.098 205.808 515.09 205.812 515.078C205.832 515.074 205.863 515.078 205.882 515.074C205.886 515.086 205.898 515.094 205.898 515.113C205.898 515.133 205.874 515.149 205.867 515.168C205.863 515.211 205.894 515.262 205.89 515.316C205.886 515.34 205.882 515.371 205.871 515.394C205.863 515.422 205.851 515.441 205.851 515.472C205.851 515.535 205.867 515.597 205.855 515.644C205.843 515.679 205.816 515.698 205.793 515.718C205.785 515.737 205.761 515.737 205.754 515.757C205.804 515.784 205.808 515.734 205.824 515.71C205.843 515.687 205.867 515.683 205.882 515.667C205.91 515.617 205.96 515.558 205.941 515.48C205.933 515.457 205.917 515.441 205.91 515.418C205.91 515.39 205.929 515.367 205.925 515.34C205.925 515.328 205.917 515.312 205.917 515.297C205.917 515.269 205.941 515.234 205.933 515.199C205.925 515.18 205.913 515.168 205.91 515.149C205.91 515.137 205.91 515.113 205.91 515.11C205.91 515.09 205.917 515.051 205.933 515.051C205.945 515.051 205.956 515.113 205.956 515.125C205.956 515.141 205.945 515.164 205.952 515.176C205.952 515.203 205.968 515.219 205.968 515.242C205.964 515.266 205.949 515.285 205.945 515.305C205.941 515.328 205.956 515.347 205.956 515.367C205.956 515.379 205.952 515.39 205.952 515.398L205.941 515.41ZM206.467 515.527C206.475 515.5 206.471 515.464 206.467 515.433C206.467 515.379 206.436 515.34 206.432 515.281C206.432 515.254 206.432 515.219 206.432 515.191C206.432 515.16 206.44 515.106 206.432 515.063C206.432 515.035 206.413 514.965 206.393 514.957C206.385 514.957 206.378 514.973 206.374 514.977C206.366 514.981 206.362 514.981 206.354 514.985C206.342 515 206.335 515.032 206.335 515.051C206.335 515.067 206.346 515.082 206.346 515.098C206.346 515.125 206.335 515.141 206.335 515.156C206.335 515.172 206.342 515.184 206.346 515.195C206.35 515.215 206.35 515.234 206.346 515.254C206.346 515.273 206.335 515.289 206.327 515.308C206.323 515.351 206.335 515.394 206.315 515.429C206.303 515.449 206.284 515.464 206.28 515.488C206.28 515.507 206.292 515.527 206.288 515.546C206.323 515.515 206.354 515.476 206.354 515.418C206.354 515.375 206.342 515.312 206.37 515.285C206.358 515.367 206.385 515.418 206.374 515.48C206.374 515.496 206.358 515.531 206.35 515.542C206.342 515.554 206.327 515.574 206.319 515.581C206.303 515.597 206.284 515.601 206.272 515.62C206.268 515.628 206.272 515.64 206.264 515.648C206.264 515.663 206.257 515.683 206.245 515.698C206.222 515.73 206.183 515.749 206.167 515.78C206.163 515.788 206.167 515.8 206.163 515.804C206.159 515.815 206.144 515.819 206.136 515.831C206.128 515.831 206.108 515.831 206.116 515.851C206.128 515.854 206.136 515.851 206.144 515.847C206.159 515.839 206.179 515.819 206.194 515.804C206.21 515.788 206.225 515.773 206.241 515.761C206.296 515.718 206.358 515.691 206.393 515.644C206.413 515.617 206.428 515.593 206.44 515.562C206.444 515.554 206.455 515.542 206.455 515.531L206.467 515.527ZM202.938 511.838C202.938 511.838 202.977 511.818 202.992 511.803C202.989 511.822 202.961 511.838 202.938 511.842C202.938 511.842 202.938 511.842 202.938 511.838ZM202.895 512.095C202.883 512.052 202.879 511.998 202.872 511.959C202.883 511.982 202.891 512.013 202.899 512.044C202.903 512.076 202.914 512.111 202.911 512.138C202.899 512.13 202.899 512.111 202.895 512.099V512.095ZM202.833 511.853C202.833 511.853 202.852 511.838 202.86 511.834C202.864 511.838 202.852 511.842 202.848 511.849C202.856 511.881 202.856 511.916 202.879 511.935C202.868 511.935 202.864 511.943 202.852 511.943C202.852 511.927 202.825 511.873 202.829 511.853H202.833ZM202.821 511.764C202.798 511.721 202.77 511.678 202.747 511.639C202.759 511.6 202.766 511.549 202.77 511.498C202.778 511.498 202.774 511.51 202.774 511.518C202.786 511.553 202.817 511.596 202.778 511.611C202.79 511.67 202.817 511.721 202.829 511.783C202.821 511.779 202.825 511.771 202.817 511.764H202.821ZM202.786 511.935C202.786 511.935 202.813 511.935 202.813 511.923C202.809 511.912 202.794 511.923 202.786 511.923C202.77 511.927 202.755 511.931 202.739 511.927C202.708 511.92 202.673 511.904 202.661 511.877C202.649 511.857 202.645 511.826 202.645 511.799C202.645 511.752 202.645 511.693 202.638 511.662C202.634 511.74 202.622 511.842 202.653 511.9C202.669 511.912 202.684 511.923 202.7 511.931C202.723 511.939 202.759 511.943 202.79 511.935H202.786ZM207.095 515.882C207.095 515.882 207.064 515.874 207.052 515.866C207.021 515.862 206.982 515.862 206.951 515.862C206.92 515.858 206.892 515.858 206.857 515.851C206.826 515.847 206.795 515.843 206.764 515.835C206.74 515.827 206.713 515.808 206.689 515.792C206.604 515.749 206.518 515.706 206.424 515.671C206.444 515.64 206.467 515.617 206.483 515.585C206.502 515.546 206.506 515.496 206.514 515.445C206.518 515.414 206.53 515.379 206.533 515.351C206.537 515.285 206.533 515.227 206.53 515.168C206.51 514.985 206.53 514.805 206.522 514.634C206.518 514.564 206.502 514.49 206.479 514.423C206.455 514.357 206.44 514.283 206.416 514.228C206.409 514.209 206.393 514.178 206.381 514.166C206.37 514.15 206.346 514.139 206.339 514.123C206.339 514.115 206.339 514.107 206.339 514.096C206.331 514.072 206.3 514.064 206.284 514.049C206.268 514.037 206.26 514.025 206.249 514.018C206.237 514.006 206.222 514.002 206.206 513.994C206.194 513.99 206.179 513.99 206.167 513.983C206.155 513.979 206.151 513.967 206.144 513.963C206.105 513.94 206.069 513.951 206.019 513.94C206.011 513.94 206.003 513.932 205.995 513.932C205.933 513.912 205.843 513.928 205.777 513.905C205.703 513.885 205.64 513.846 205.578 513.827C205.582 513.791 205.555 513.784 205.535 513.772C205.535 513.752 205.551 513.717 205.527 513.706H205.5C205.465 513.585 205.445 513.468 205.414 513.355C205.399 513.296 205.371 513.242 205.364 513.187C205.36 513.156 205.356 513.128 205.348 513.09C205.348 513.058 205.336 513.027 205.332 512.996C205.321 512.945 205.325 512.902 205.321 512.856C205.336 512.832 205.375 512.809 205.371 512.774C205.371 512.77 205.371 512.762 205.371 512.754C205.367 512.731 205.352 512.711 205.34 512.692C205.309 512.622 205.297 512.54 205.282 512.462C205.266 512.376 205.254 512.298 205.227 512.228C205.219 512.204 205.208 512.181 205.2 512.157C205.2 512.157 205.196 512.157 205.196 512.154C205.188 512.103 205.169 512.079 205.122 512.072C205.118 512.056 205.102 512.044 205.094 512.025C205.091 512.013 205.067 511.99 205.067 511.978C205.063 511.951 205.071 511.931 205.063 511.912C205.063 511.9 205.048 511.896 205.044 511.884C205.044 511.873 205.048 511.865 205.044 511.853C205.044 511.838 205.028 511.838 205.024 511.822C205.044 511.791 205.024 511.76 205.009 511.74C205.024 511.717 205.009 511.693 204.993 511.678C205.013 511.654 204.989 511.627 204.977 511.608C204.989 511.58 204.977 511.553 204.962 511.537C204.977 511.498 204.958 511.475 204.95 511.455C204.95 511.452 204.95 511.44 204.95 511.432C204.95 511.42 204.938 511.413 204.935 511.405C204.935 511.393 204.935 511.381 204.931 511.374C204.931 511.362 204.927 511.346 204.919 511.335C204.907 511.264 204.899 511.222 204.857 511.171C204.79 511.097 204.697 511.077 204.623 511.077C204.541 511.069 204.459 511.105 204.393 511.147C204.346 511.179 204.318 511.222 204.303 511.272C204.303 511.276 204.299 511.284 204.291 511.288C204.272 511.323 204.256 511.362 204.256 511.405C204.244 511.432 204.237 511.459 204.229 511.483C204.225 511.498 204.229 511.51 204.225 511.526C204.225 511.53 204.221 511.541 204.217 511.549C204.217 511.557 204.221 511.565 204.221 511.576C204.198 511.592 204.201 511.623 204.205 511.65C204.186 511.662 204.186 511.701 204.201 511.713C204.178 511.732 204.178 511.779 204.198 511.803C204.194 511.818 204.182 511.822 204.182 511.838C204.182 511.853 204.194 511.861 204.194 511.873C204.194 511.884 204.178 511.892 204.174 511.904C204.17 511.927 204.174 511.939 204.182 511.955C204.166 511.974 204.151 512.001 204.162 512.033C204.159 512.044 204.147 512.048 204.143 512.06C204.139 512.064 204.143 512.076 204.139 512.083C204.135 512.103 204.116 512.115 204.104 512.126C204.092 512.138 204.084 512.154 204.077 512.169C204.049 512.212 204.03 512.259 204.014 512.31C203.971 512.489 203.936 512.692 203.886 512.863C203.874 512.898 203.87 512.934 203.85 512.965C203.757 512.93 203.648 512.918 203.546 512.895C203.542 512.875 203.546 512.856 203.531 512.848C203.511 512.836 203.488 512.852 203.468 512.859C203.46 512.836 203.418 512.824 203.394 512.84C203.382 512.832 203.367 512.828 203.359 512.817C203.347 512.766 203.32 512.727 203.285 512.7C203.269 512.688 203.246 512.68 203.226 512.664C203.195 512.645 203.168 512.629 203.133 512.618C203.109 512.61 203.067 512.583 203.055 512.563C203.055 512.559 203.055 512.544 203.051 512.536C203.02 512.419 202.989 512.306 202.961 512.189C202.957 512.169 202.95 512.146 202.95 512.134C202.95 512.122 202.957 512.122 202.961 512.111C202.961 512.099 202.957 512.079 202.953 512.064C202.938 512.013 202.922 511.97 202.918 511.923C202.973 511.916 203.012 511.892 203.047 511.861C203.067 511.83 203.086 511.806 203.082 511.756C203.07 511.627 202.969 511.533 202.961 511.393C202.961 511.362 202.969 511.335 202.957 511.311C202.942 511.311 202.934 511.335 202.93 511.35C202.891 511.459 202.957 511.553 202.973 511.65C202.981 511.693 202.973 511.74 202.942 511.767C202.926 511.779 202.899 511.806 202.883 511.795C202.868 511.756 202.86 511.693 202.868 511.647C202.852 511.623 202.883 511.6 202.876 511.572C202.876 511.561 202.856 511.545 202.844 511.537C202.837 511.522 202.825 511.51 202.817 511.502C202.782 511.448 202.747 511.381 202.723 511.323C202.712 511.303 202.708 511.276 202.684 511.268C202.669 511.28 202.681 511.296 202.681 511.307C202.688 511.354 202.692 511.397 202.696 511.448C202.696 511.483 202.696 511.545 202.688 511.584C202.684 511.596 202.673 511.611 202.677 511.623C202.681 511.631 202.692 511.639 202.696 511.647C202.704 511.658 202.708 511.67 202.716 511.682C202.747 511.721 202.766 511.767 202.786 511.814C202.774 511.818 202.766 511.834 202.77 511.849C202.7 511.877 202.657 511.826 202.653 511.767C202.649 511.713 202.653 511.65 202.642 511.596C202.634 511.533 202.61 511.475 202.575 511.436C202.564 511.424 202.548 511.405 202.528 511.413C202.528 511.432 202.544 511.444 202.552 511.459C202.587 511.561 202.571 511.732 202.575 511.853C202.575 511.908 202.606 511.951 202.642 511.97C202.688 511.998 202.751 511.982 202.805 511.97C202.821 512.013 202.837 512.076 202.848 512.122C202.852 512.134 202.852 512.146 202.856 512.154C202.86 512.157 202.872 512.161 202.876 512.169C202.883 512.177 202.887 512.208 202.891 512.228C202.926 512.364 202.961 512.508 202.992 512.637C202.992 512.649 202.981 512.653 202.977 512.661C202.969 512.68 202.973 512.7 202.973 512.723C202.973 512.735 202.973 512.746 202.973 512.754C202.973 512.766 202.985 512.778 202.989 512.789C202.992 512.817 202.989 512.84 203.008 512.852C203.008 512.879 203.024 512.906 203.039 512.922C203.051 512.934 203.067 512.937 203.074 512.949C203.082 512.961 203.09 512.996 203.094 513.015C203.098 513.043 203.106 513.066 203.109 513.086C203.145 513.226 203.176 513.359 203.211 513.499C203.328 513.959 203.437 514.415 203.55 514.876C203.574 514.969 203.601 515.059 203.613 515.156C203.593 515.16 203.57 515.168 203.55 515.176C203.519 515.191 203.488 515.203 203.453 515.215C203.402 515.238 203.347 515.266 203.308 515.293C203.301 515.297 203.289 515.305 203.281 515.308C203.16 515.39 203.074 515.527 202.996 515.656C202.985 515.675 202.973 515.695 202.961 515.714C202.957 515.726 202.953 515.741 202.946 515.753C202.942 515.765 202.93 515.776 202.926 515.788C202.903 515.843 202.883 515.897 202.876 515.964C202.864 516.046 202.875 516.124 202.899 516.186C202.864 516.186 202.786 516.198 202.786 516.233C202.786 516.252 202.809 516.272 202.813 516.283C202.794 516.291 202.782 516.295 202.755 516.287C202.712 516.283 202.649 516.276 202.614 516.291C202.603 516.299 202.583 516.315 202.587 516.33C202.587 516.361 202.657 516.369 202.688 516.369C202.704 516.369 202.716 516.365 202.723 516.365C202.751 516.365 202.782 516.365 202.805 516.373C202.817 516.377 202.817 516.385 202.821 516.385C202.825 516.385 202.837 516.385 202.848 516.385C202.856 516.385 202.864 516.389 202.876 516.389C202.907 516.389 202.938 516.389 202.961 516.389C202.957 516.397 202.946 516.404 202.938 516.412C202.942 516.424 202.938 516.432 202.938 516.447C202.953 516.475 202.973 516.482 203.004 516.49C203.067 516.506 203.117 516.475 203.176 516.482C203.219 516.486 203.262 516.51 203.312 516.502C203.293 516.525 203.277 516.568 203.297 516.595C203.308 516.611 203.324 516.611 203.336 516.619C203.382 516.623 203.429 516.623 203.472 516.619C203.503 516.619 203.562 516.599 203.589 516.619C203.601 516.623 203.605 516.642 203.616 516.658C203.616 516.662 203.628 516.669 203.636 516.673C203.64 516.677 203.648 516.689 203.652 516.693C203.671 516.705 203.73 516.716 203.741 516.736C203.741 516.736 203.737 516.74 203.741 516.744C203.741 516.794 203.741 516.849 203.769 516.888C203.78 516.903 203.8 516.911 203.808 516.931C203.835 516.946 203.862 516.97 203.893 516.989C203.913 517.001 203.936 517.009 203.956 517.017C203.975 517.028 203.991 517.048 204.006 517.063C204.006 517.063 204.008 517.063 204.01 517.063H204.014C204.003 517.067 204.003 517.048 204.003 517.036C204.003 517.009 204.014 516.981 204.022 516.954C204.057 516.786 203.96 516.666 203.886 516.588C203.874 516.576 203.862 516.568 203.858 516.556C203.897 516.549 203.921 516.529 203.956 516.51C203.971 516.568 203.983 516.63 203.995 516.693C203.999 516.712 204.006 516.74 204.018 516.747C204.034 516.755 204.069 516.744 204.073 516.732C204.088 516.708 204.069 516.669 204.061 516.642C204.049 516.595 204.042 516.564 204.03 516.517C204.026 516.498 204.01 516.463 204.018 516.451C204.022 516.432 204.084 516.428 204.123 516.432C204.143 516.432 204.174 516.439 204.198 516.439C204.229 516.436 204.252 516.412 204.287 516.424C204.303 516.436 204.311 516.451 204.326 516.455C204.377 516.471 204.435 516.467 204.486 516.455C204.51 516.447 204.533 516.439 204.556 516.432C204.591 516.42 204.626 516.42 204.65 516.404C204.673 516.4 204.724 516.389 204.724 516.369C204.724 516.358 204.708 516.358 204.712 516.342C204.732 516.338 204.751 516.326 204.775 516.326C204.806 516.326 204.837 516.334 204.864 516.334C204.88 516.334 204.899 516.326 204.915 516.33C204.95 516.334 204.985 516.35 205.024 516.346C205.044 516.342 205.059 516.334 205.087 516.33C205.11 516.326 205.137 516.334 205.161 516.338C205.192 516.338 205.231 516.338 205.266 516.334C205.313 516.33 205.364 516.319 205.395 516.303C205.403 516.299 205.418 516.283 205.43 516.283C205.442 516.283 205.465 516.287 205.481 516.295C205.5 516.295 205.523 516.299 205.539 516.299C205.559 516.299 205.594 516.295 205.594 516.283C205.598 516.272 205.574 516.252 205.566 516.244C205.52 516.217 205.43 516.217 205.371 516.225C205.356 516.229 205.336 516.241 205.328 516.225C205.328 516.209 205.352 516.213 205.364 516.205C205.375 516.202 205.379 516.19 205.387 516.182C205.438 516.194 205.496 516.194 205.547 516.182C205.574 516.202 205.609 516.205 205.652 516.209C205.656 516.217 205.652 516.229 205.656 516.237C205.679 516.256 205.718 516.26 205.757 516.26C205.859 516.264 205.972 516.287 206.073 516.291C206.116 516.326 206.198 516.319 206.253 516.334C206.237 516.338 206.225 516.354 206.214 516.361C206.14 516.342 206.054 516.35 205.991 516.369C205.964 516.381 205.952 516.412 205.976 516.432C205.999 516.455 206.05 516.459 206.093 516.459C206.136 516.459 206.183 516.471 206.225 516.459C206.241 516.459 206.268 516.443 206.276 516.436C206.288 516.432 206.292 516.416 206.292 516.404C206.335 516.404 206.452 516.408 206.459 516.365C206.459 516.35 206.448 516.346 206.444 516.338C206.467 516.342 206.471 516.311 206.491 516.307H206.522C206.522 516.307 206.553 516.299 206.561 516.295C206.58 516.283 206.584 516.268 206.6 516.256C206.627 516.256 206.65 516.264 206.674 516.252C206.701 516.241 206.721 516.213 206.748 516.209C206.779 516.202 206.803 516.209 206.834 516.217C206.861 516.221 206.892 516.233 206.923 516.233C206.951 516.237 206.99 516.233 207.013 516.217C207.029 516.213 207.04 516.194 207.056 516.19C207.083 516.182 207.118 516.186 207.138 516.159C207.138 516.155 207.138 516.139 207.138 516.135C207.193 516.112 207.216 516.073 207.208 515.999C207.204 515.929 207.15 515.882 207.083 515.87L207.095 515.882ZM205.52 516.365C205.57 516.354 205.66 516.35 205.679 516.397C205.738 516.397 205.793 516.408 205.824 516.432C205.832 516.455 205.816 516.463 205.796 516.478C205.773 516.49 205.738 516.51 205.695 516.502C205.679 516.502 205.656 516.49 205.64 516.482C205.601 516.478 205.555 516.482 205.527 516.482C205.484 516.478 205.403 516.478 205.375 516.455C205.364 516.447 205.36 516.432 205.371 516.42C205.348 516.416 205.309 516.408 205.297 516.393C205.254 516.358 205.344 516.346 205.371 516.346C205.399 516.346 205.422 516.35 205.442 516.358C205.457 516.361 205.465 516.373 205.477 516.373C205.488 516.373 205.504 516.365 205.52 516.361V516.365ZM205.317 515.8C205.317 515.8 205.364 515.78 205.379 515.769C205.348 515.734 205.25 515.737 205.254 515.808C205.258 515.835 205.321 515.843 205.317 515.804V515.8ZM205.785 514.993C205.785 514.993 205.839 514.985 205.855 514.993C205.859 515.016 205.835 515.035 205.816 515.032C205.8 515.032 205.781 515.012 205.781 514.993H205.785ZM205.648 514.49C205.637 514.532 205.695 514.544 205.726 514.532C205.726 514.525 205.726 514.525 205.718 514.521C205.699 514.532 205.664 514.536 205.66 514.509C205.66 514.509 205.672 514.513 205.679 514.513C205.703 514.497 205.672 514.478 205.648 514.486V514.49ZM205.707 514.454C205.664 514.431 205.621 514.462 205.586 514.454C205.578 514.454 205.57 514.443 205.562 514.443C205.562 514.478 205.578 514.493 205.609 514.497C205.625 514.544 205.676 514.56 205.742 514.56C205.75 514.564 205.746 514.575 205.757 514.575C205.765 514.575 205.777 514.56 205.777 514.552C205.777 514.54 205.765 514.513 205.761 514.509C205.757 514.49 205.722 514.466 205.707 514.454ZM205.976 514.521C206.011 514.536 206.054 514.521 206.062 514.486C206.058 514.482 206.054 514.474 206.042 514.474C206.042 514.497 206.027 514.521 205.999 514.513C206.015 514.505 206.015 514.486 205.999 514.474C205.98 514.474 205.972 514.486 205.972 514.505C205.968 514.509 205.96 514.505 205.96 514.521C205.964 514.525 205.968 514.517 205.976 514.517V514.521ZM206.081 514.447C206.054 514.447 206.027 514.427 205.999 514.431C205.98 514.431 205.956 514.451 205.941 514.466C205.929 514.486 205.913 514.525 205.913 514.548C205.913 514.552 205.913 514.56 205.925 514.564C205.937 514.568 205.933 514.548 205.941 514.548C205.995 514.552 206.03 514.552 206.058 514.532C206.073 514.521 206.081 514.497 206.089 514.474C206.097 514.458 206.116 514.443 206.108 514.423C206.108 514.423 206.108 514.423 206.105 514.423C206.097 514.427 206.089 514.443 206.077 514.447H206.081ZM205.867 514.443C205.867 514.443 205.843 514.415 205.843 514.412C205.835 514.443 205.816 514.447 205.8 514.451C205.785 514.454 205.777 514.443 205.769 514.443C205.765 514.486 205.832 514.474 205.843 514.451C205.855 514.466 205.902 514.486 205.906 514.447C205.89 514.454 205.874 514.451 205.859 514.443H205.867ZM204.654 513.195C204.693 513.156 204.689 513.09 204.646 513.062C204.646 513.062 204.646 513.062 204.642 513.062C204.623 513.074 204.603 513.097 204.599 513.125C204.599 513.156 204.611 513.175 204.623 513.191C204.634 513.21 204.642 513.21 204.658 513.195H204.654ZM204.634 513.051C204.595 513.054 204.564 513.074 204.552 513.097C204.541 513.117 204.537 513.148 204.549 513.171C204.56 513.195 204.603 513.226 204.634 513.226C204.669 513.226 204.712 513.199 204.724 513.175C204.755 513.109 204.701 513.047 204.63 513.051H204.634ZM204.63 511.838C204.63 511.838 204.646 511.834 204.654 511.834C204.654 511.842 204.634 511.838 204.63 511.838ZM204.724 511.783C204.724 511.783 204.743 511.791 204.743 511.81C204.724 511.81 204.716 511.814 204.708 511.814C204.708 511.834 204.697 511.849 204.681 511.857C204.665 511.861 204.634 511.861 204.623 511.857C204.603 511.849 204.603 511.826 204.595 511.814C204.587 511.814 204.576 511.814 204.564 511.814C204.56 511.806 204.556 511.791 204.564 511.787C204.572 511.787 204.572 511.799 204.588 511.799C204.607 511.803 204.627 511.775 204.654 511.795C204.662 511.795 204.673 511.787 204.685 511.791C204.693 511.791 204.704 511.795 204.712 511.795C204.716 511.795 204.724 511.787 204.728 511.787L204.724 511.783Z" fill="#191917"/>
<path fill-rule="evenodd" clip-rule="evenodd" d="M204.646 490.163L202.072 509.49L204.65 508.117V490.163H204.646Z" fill="#EE7A00"/>
<path fill-rule="evenodd" clip-rule="evenodd" d="M199.147 512.146L189.215 508.909L199.721 514.954L199.147 512.146Z" fill="#EE7A00"/>
<path fill-rule="evenodd" clip-rule="evenodd" d="M220.077 508.901L208.121 510.188L210.176 512.134L220.077 508.901Z" fill="#EE7A00"/>
<path fill-rule="evenodd" clip-rule="evenodd" d="M208.097 518.58L214.407 527.136L209.252 516.049L208.097 518.58Z" fill="#EE7A00"/>
<path fill-rule="evenodd" clip-rule="evenodd" d="M194.881 527.148L204.081 518.998L201.206 518.576L194.885 527.148H194.881Z" fill="#EE7A00"/>
<path fill-rule="evenodd" clip-rule="evenodd" d="M205.005 518.787L207.937 518.366L209.115 515.753L205.005 518.787Z" fill="#EE7A00"/>
<path fill-rule="evenodd" clip-rule="evenodd" d="M200.189 515.757L201.366 518.362L204.291 518.787L200.185 515.757H200.189Z" fill="#EE7A00"/>
<path fill-rule="evenodd" clip-rule="evenodd" d="M201.491 510.27L199.405 512.228L199.99 515.063L201.491 510.27Z" fill="#EE7A00"/>
<path fill-rule="evenodd" clip-rule="evenodd" d="M207.805 510.27L209.891 512.228L209.306 515.067L207.805 510.274V510.27Z" fill="#EE7A00"/>
<path fill-rule="evenodd" clip-rule="evenodd" d="M207.255 509.829L204.654 508.421L202.045 509.829H207.255Z" fill="#EE7A00"/>
</g>
</svg>




